RecursiveMonoVar-StrictHeavy.ufo
<glyph name="parenright" format="1">
  <advance width="600"/>
  <unicode hex="0029"/>
  <outline>
    <contour>
      <point x="310" y="-77" type="curve" smooth="yes"/>
      <point x="416" y="29"/>
      <point x="471" y="173"/>
      <point x="471" y="338" type="curve" smooth="yes"/>
      <point x="471" y="347" type="line" smooth="yes"/>
      <point x="471" y="512"/>
      <point x="416" y="656"/>
      <point x="310" y="762" type="curve" smooth="yes"/>
      <point x="301" y="771"/>
      <point x="295" y="774"/>
      <point x="285" y="774" type="curve" smooth="yes"/>
      <point x="207" y="774"/>
      <point x="129" y="774"/>
      <point x="51" y="774" type="curve"/>
      <point x="51" y="754" type="line"/>
      <point x="168" y="649"/>
      <point x="241" y="501"/>
      <point x="241" y="347" type="curve" smooth="yes"/>
      <point x="241" y="338" type="line" smooth="yes"/>
      <point x="241" y="184"/>
      <point x="168" y="36"/>
      <point x="51" y="-69" type="curve"/>
      <point x="51" y="-89" type="line"/>
      <point x="129" y="-89"/>
      <point x="207" y="-89"/>
      <point x="285" y="-89" type="curve" smooth="yes"/>
      <point x="295" y="-89"/>
      <point x="301" y="-86"/>
    </contour>
  </outline>
</glyph>
<glyph name="asterisk" format="1">
  <advance width="600"/>
  <unicode hex="002A"/>
  <outline>
    <contour>
      <point x="209" y="568" type="curve"/>
      <point x="221" y="521"/>
      <point x="233" y="473"/>
      <point x="245" y="426" type="curve" smooth="yes"/>
      <point x="283" y="309" type="line"/>
      <point x="210" y="60" type="line" smooth="yes"/>
      <point x="209" y="54"/>
      <point x="212" y="50"/>
      <point x="217" y="50" type="curve"/>
      <point x="274" y="50"/>
      <point x="333" y="50"/>
      <point x="390" y="50" type="curve"/>
      <point x="378" y="97"/>
      <point x="366" y="145"/>
      <point x="354" y="192" type="curve" smooth="yes"/>
      <point x="316" y="309" type="line"/>
      <point x="389" y="558" type="line" smooth="yes"/>
      <point x="390" y="564"/>
      <point x="387" y="568"/>
      <point x="382" y="568" type="curve" smooth="yes"/>
      <point x="325" y="568"/>
      <point x="266" y="568"/>
    </contour>
    <contour>
      <point x="479" y="518" type="curve"/>
      <point x="293" y="325" type="line"/>
      <point x="40" y="264" type="line" smooth="yes"/>
      <point x="33" y="262"/>
      <point x="32" y="257"/>
      <point x="36" y="249" type="curve"/>
      <point x="63" y="200"/>
      <point x="93" y="152"/>
      <point x="120" y="103" type="curve"/>
      <point x="308" y="296" type="line"/>
      <point x="557" y="356" type="line" smooth="yes"/>
      <point x="566" y="358"/>
      <point x="568" y="364"/>
      <point x="564" y="373" type="curve" smooth="yes"/>
      <point x="536" y="422"/>
      <point x="507" y="469"/>
    </contour>
    <contour>
      <point x="568" y="260" type="curve"/>
      <point x="308" y="325" type="line"/>
      <point x="130" y="513" type="line" smooth="yes"/>
      <point x="125" y="517"/>
      <point x="120" y="516"/>
      <point x="114" y="509" type="curve"/>
      <point x="86" y="460"/>
      <point x="57" y="413"/>
      <point x="29" y="364" type="curve"/>
      <point x="290" y="297" type="line"/>
      <point x="467" y="111" type="line" smooth="yes"/>
      <point x="474" y="104"/>
      <point x="480" y="106"/>
      <point x="485" y="113" type="curve"/>
      <point x="513" y="162"/>
      <point x="540" y="211"/>
    </contour>
  </outline>
</glyph>
<glyph name="comma" format="1">
  <advance width="600"/>
  <unicode hex="002C"/>
  <outline>
    <contour>
      <point x="356" y="-190" type="curve" smooth="yes"/>
      <point x="360" y="-190"/>
      <point x="364" y="-189"/>
      <point x="366" y="-183" type="curve"/>
      <point x="406" y="-64"/>
      <point x="460" y="85"/>
      <point x="488" y="167" type="curve"/>
      <point x="490" y="175"/>
      <point x="488" y="180"/>
      <point x="480" y="180" type="curve" smooth="yes"/>
      <point x="386" y="180"/>
      <point x="330" y="180"/>
      <point x="221" y="180" type="curve"/>
      <point x="197" y="57"/>
      <point x="173" y="-67"/>
      <point x="149" y="-190" type="curve"/>
      <point x="203" y="-190"/>
      <point x="265" y="-190"/>
    </contour>
  </outline>
</glyph>
<glyph name="zero" format="1">
  <advance width="600"/>
  <unicode hex="0030"/>
  <outline>
    <contour>
      <point x="300" y="720" type="curve" smooth="yes"/>
      <point x="150" y="720"/>
      <point x="31" y="630"/>
      <point x="31" y="480" type="curve" smooth="yes"/>
      <point x="31" y="220" type="line" smooth="yes"/>
      <point x="31" y="69"/>
      <point x="149" y="-20"/>
      <point x="300" y="-20" type="curve"/>
      <point x="350" y="-20"/>
      <point x="350" y="0"/>
      <point x="300" y="170" type="curve"/>
      <point x="270" y="170"/>
      <point x="256" y="194"/>
      <point x="256" y="221" type="curve" smooth="yes"/>
      <point x="256" y="479" type="line" smooth="yes"/>
      <point x="256" y="506"/>
      <point x="270" y="530"/>
      <point x="300" y="530" type="curve" smooth="yes"/>
      <point x="325" y="530"/>
      <point x="351" y="530"/>
      <point x="376" y="530" type="curve"/>
      <point x="376" y="664"/>
      <point x="364" y="720"/>
    </contour>
    <contour>
      <point x="300" y="-20" type="curve" smooth="yes"/>
      <point x="450" y="-20"/>
      <point x="569" y="70"/>
      <point x="569" y="220" type="curve" smooth="yes"/>
      <point x="569" y="480" type="line" smooth="yes"/>
      <point x="569" y="631"/>
      <point x="451" y="720"/>
      <point x="300" y="720" type="curve"/>
      <point x="250" y="720"/>
      <point x="250" y="700"/>
      <point x="300" y="530" type="curve"/>
      <point x="330" y="530"/>
      <point x="344" y="506"/>
      <point x="344" y="479" type="curve" smooth="yes"/>
      <point x="344" y="221" type="line" smooth="yes"/>
      <point x="344" y="194"/>
      <point x="330" y="170"/>
      <point x="300" y="170" type="curve" smooth="yes"/>
      <point x="275" y="170"/>
      <point x="249" y="170"/>
      <point x="224" y="170" type="curve"/>
      <point x="224" y="36"/>
      <point x="236" y="-20"/>
    </contour>
    <contour>
      <point x="192" y="174" type="curve"/>
      <point x="273" y="259"/>
      <point x="354" y="344"/>
      <point x="435" y="429" type="curve"/>
      <point x="442" y="437"/>
      <point x="445" y="446"/>
      <point x="422" y="537" type="curve"/>
      <point x="335" y="446"/>
      <point x="246" y="356"/>
      <point x="159" y="266" type="curve" smooth="yes"/>
      <point x="152" y="257"/>
      <point x="157" y="252"/>
    </contour>
  </outline>
</glyph>
<glyph name="two" format="1">
  <advance width="600"/>
  <unicode hex="0032"/>
  <outline>
    <contour>
      <point x="355" y="552" type="curve"/>
      <point x="355" y="516"/>
      <point x="355" y="507"/>
      <point x="355" y="492" type="curve" smooth="yes"/>
      <point x="355" y="480"/>
      <point x="346" y="473"/>
      <point x="242" y="415" type="curve" smooth="yes"/>
      <point x="70" y="319"/>
      <point x="52" y="250"/>
      <point x="52" y="166" type="curve" smooth="yes"/>
      <point x="52" y="151"/>
      <point x="60" y="147"/>
      <point x="262" y="147" type="curve"/>
      <point x="262" y="211"/>
      <point x="275" y="225"/>
      <point x="344" y="263" type="curve" smooth="yes"/>
      <point x="501" y="348"/>
      <point x="555" y="399"/>
      <point x="555" y="494" type="curve" smooth="yes"/>
      <point x="555" y="549" type="line" smooth="yes"/>
      <point x="555" y="581"/>
      <point x="533" y="591"/>
    </contour>
    <contour>
      <point x="565" y="0" type="line"/>
      <point x="565" y="57"/>
      <point x="565" y="119"/>
      <point x="565" y="199" type="curve" smooth="yes"/>
      <point x="565" y="209"/>
      <point x="564" y="210"/>
      <point x="554" y="210" type="curve" smooth="yes"/>
      <point x="226" y="210" type="line" smooth="yes"/>
      <point x="167" y="210"/>
      <point x="115" y="201"/>
      <point x="52" y="166" type="curve"/>
      <point x="52" y="112"/>
      <point x="52" y="84"/>
      <point x="52" y="11" type="curve" smooth="yes"/>
      <point x="52" y="2"/>
      <point x="54" y="0"/>
      <point x="64" y="0" type="curve" smooth="yes"/>
    </contour>
    <contour>
      <point x="305" y="720" type="curve" smooth="yes"/>
      <point x="191" y="720"/>
      <point x="89" y="689"/>
      <point x="80" y="680" type="curve" smooth="yes"/>
      <point x="76" y="676"/>
      <point x="75" y="672"/>
      <point x="75" y="667" type="curve" smooth="yes"/>
      <point x="75" y="591"/>
      <point x="75" y="505"/>
      <point x="75" y="469" type="curve"/>
      <point x="95" y="469" type="line"/>
      <point x="148" y="493"/>
      <point x="218" y="505"/>
      <point x="280" y="505" type="curve" smooth="yes"/>
      <point x="335" y="505"/>
      <point x="355" y="502"/>
      <point x="355" y="492" type="curve" smooth="yes"/>
      <point x="355" y="467"/>
      <point x="355" y="455"/>
      <point x="355" y="441" type="curve"/>
      <point x="512" y="476"/>
      <point x="555" y="531"/>
      <point x="555" y="549" type="curve" smooth="yes"/>
      <point x="555" y="652"/>
      <point x="457" y="720"/>
    </contour>
  </outline>
</glyph>
<glyph name="three" format="1">
  <advance width="600"/>
  <unicode hex="0033"/>
  <outline>
    <contour>
      <point x="256" y="505" type="curve" smooth="yes"/>
      <point x="340" y="505"/>
      <point x="353" y="485"/>
      <point x="353" y="470" type="curve" smooth="yes"/>
      <point x="353" y="449"/>
      <point x="353" y="447"/>
      <point x="353" y="432" type="curve"/>
      <point x="458" y="431"/>
      <point x="562" y="445"/>
      <point x="562" y="525" type="curve" smooth="yes"/>
      <point x="562" y="542" type="line" smooth="yes"/>
      <point x="562" y="675"/>
      <point x="457" y="720"/>
      <point x="272" y="720" type="curve" smooth="yes"/>
      <point x="146" y="720"/>
      <point x="58" y="709"/>
      <point x="48" y="699" type="curve" smooth="yes"/>
      <point x="46" y="697"/>
      <point x="45" y="694"/>
      <point x="45" y="691" type="curve" smooth="yes"/>
      <point x="45" y="616"/>
      <point x="45" y="557"/>
      <point x="45" y="487" type="curve"/>
      <point x="65" y="487" type="line"/>
      <point x="119" y="500"/>
      <point x="180" y="505"/>
    </contour>
    <contour>
      <point x="144" y="340" type="curve" smooth="yes"/>
      <point x="375" y="340"/>
      <point x="562" y="335"/>
      <point x="562" y="525" type="curve" smooth="yes"/>
      <point x="562" y="548"/>
      <point x="444" y="580"/>
      <point x="353" y="580" type="curve"/>
      <point x="353" y="545"/>
      <point x="353" y="508"/>
      <point x="353" y="470" type="curve" smooth="yes"/>
      <point x="353" y="452"/>
      <point x="341" y="443"/>
      <point x="133" y="443" type="curve"/>
      <point x="133" y="411"/>
      <point x="133" y="383"/>
      <point x="133" y="352" type="curve" smooth="yes"/>
      <point x="133" y="346"/>
      <point x="138" y="340"/>
    </contour>
    <contour>
      <point x="144" y="255" type="curve" smooth="yes"/>
      <point x="353" y="255"/>
      <point x="364" y="248"/>
      <point x="364" y="229" type="curve" smooth="yes"/>
      <point x="364" y="198"/>
      <point x="364" y="195"/>
      <point x="364" y="145" type="curve"/>
      <point x="502" y="145"/>
      <point x="572" y="151"/>
      <point x="572" y="210" type="curve" smooth="yes"/>
      <point x="572" y="378"/>
      <point x="364" y="362"/>
      <point x="133" y="362" type="curve"/>
      <point x="133" y="321"/>
      <point x="133" y="299"/>
      <point x="133" y="266" type="curve" smooth="yes"/>
      <point x="133" y="258"/>
      <point x="136" y="255"/>
    </contour>
    <contour>
      <point x="256" y="195" type="curve" smooth="yes"/>
      <point x="164" y="195"/>
      <point x="120" y="200"/>
      <point x="55" y="213" type="curve"/>
      <point x="35" y="213" type="line"/>
      <point x="35" y="143"/>
      <point x="35" y="85"/>
      <point x="35" y="9" type="curve" smooth="yes"/>
      <point x="35" y="6"/>
      <point x="36" y="3"/>
      <point x="38" y="1" type="curve" smooth="yes"/>
      <point x="48" y="-9"/>
      <point x="136" y="-20"/>
      <point x="263" y="-20" type="curve" smooth="yes"/>
      <point x="434" y="-20"/>
      <point x="572" y="26"/>
      <point x="572" y="182" type="curve" smooth="yes"/>
      <point x="572" y="210" type="line" smooth="yes"/>
      <point x="572" y="287"/>
      <point x="480" y="296"/>
      <point x="364" y="294" type="curve"/>
      <point x="364" y="270"/>
      <point x="364" y="263"/>
      <point x="364" y="229" type="curve" smooth="yes"/>
      <point x="364" y="216"/>
      <point x="345" y="195"/>
    </contour>
  </outline>
</glyph>
<glyph name="four" format="1">
  <advance width="600"/>
  <unicode hex="0034"/>
  <outline>
    <contour>
      <point x="190" y="250" type="curve"/>
      <point x="295" y="393"/>
      <point x="400" y="537"/>
      <point x="505" y="680" type="curve"/>
      <point x="505" y="700" type="line"/>
      <point x="362" y="700"/>
      <point x="237" y="700"/>
      <point x="231" y="700" type="curve" smooth="yes"/>
      <point x="227" y="700"/>
      <point x="225" y="699"/>
      <point x="221" y="691" type="curve" smooth="yes"/>
      <point x="180" y="611"/>
      <point x="29" y="320"/>
      <point x="29" y="306" type="curve" smooth="yes"/>
      <point x="29" y="285"/>
      <point x="37" y="271"/>
    </contour>
    <contour>
      <point x="570" y="120" type="line"/>
      <point x="570" y="187"/>
      <point x="570" y="258"/>
      <point x="570" y="325" type="curve" smooth="yes"/>
      <point x="570" y="331"/>
      <point x="565" y="336"/>
      <point x="559" y="336" type="curve" smooth="yes"/>
      <point x="368" y="336" type="line"/>
      <point x="357" y="336"/>
      <point x="209" y="323"/>
      <point x="29" y="306" type="curve"/>
      <point x="29" y="131" type="line" smooth="yes"/>
      <point x="29" y="128"/>
      <point x="30" y="125"/>
      <point x="32" y="123" type="curve" smooth="yes"/>
      <point x="34" y="121"/>
      <point x="37" y="120"/>
      <point x="40" y="120" type="curve" smooth="yes"/>
    </contour>
    <contour>
      <point x="522" y="0" type="curve"/>
      <point x="522" y="24"/>
      <point x="522" y="58"/>
      <point x="522" y="96" type="curve" smooth="yes"/>
      <point x="522" y="404" type="line" smooth="yes"/>
      <point x="522" y="410"/>
      <point x="518" y="414"/>
      <point x="512" y="414" type="curve" smooth="yes"/>
      <point x="368" y="414" type="line"/>
      <point x="346" y="340"/>
      <point x="319" y="244"/>
      <point x="298" y="170" type="curve"/>
      <point x="298" y="11" type="line" smooth="yes"/>
      <point x="298" y="5"/>
      <point x="302" y="0"/>
      <point x="308" y="0" type="curve" smooth="yes"/>
      <point x="379" y="0"/>
      <point x="451" y="0"/>
    </contour>
  </outline>
</glyph>
<glyph name="five" format="1">
  <advance width="600"/>
  <unicode hex="0035"/>
  <outline>
    <contour>
      <point x="167" y="700" type="line"/>
      <point x="167" y="637"/>
      <point x="167" y="574"/>
      <point x="167" y="511" type="curve" smooth="yes"/>
      <point x="167" y="508"/>
      <point x="168" y="505"/>
      <point x="170" y="503" type="curve" smooth="yes"/>
      <point x="172" y="501"/>
      <point x="175" y="500"/>
      <point x="178" y="500" type="curve" smooth="yes"/>
      <point x="535" y="500" type="line"/>
      <point x="535" y="538"/>
      <point x="535" y="615"/>
      <point x="535" y="689" type="curve" smooth="yes"/>
      <point x="535" y="695"/>
      <point x="530" y="700"/>
      <point x="524" y="700" type="curve" smooth="yes"/>
    </contour>
    <contour>
      <point x="260" y="271" type="line"/>
      <point x="315" y="644" type="line" smooth="yes"/>
      <point x="320" y="678"/>
      <point x="275" y="700"/>
      <point x="195" y="700" type="curve" smooth="yes"/>
      <point x="105" y="700" type="line"/>
      <point x="64" y="283" type="line" smooth="yes"/>
      <point x="63" y="276"/>
      <point x="67" y="271"/>
      <point x="74" y="271" type="curve" smooth="yes"/>
    </contour>
    <contour>
      <point x="249" y="373" type="curve"/>
      <point x="229" y="349"/>
      <point x="242" y="289"/>
      <point x="260" y="271" type="curve"/>
      <point x="272" y="275"/>
      <point x="291" y="280"/>
      <point x="312" y="280" type="curve" smooth="yes"/>
      <point x="339" y="280"/>
      <point x="366" y="274"/>
      <point x="366" y="247" type="curve" smooth="yes"/>
      <point x="366" y="220"/>
      <point x="366" y="184"/>
      <point x="366" y="150" type="curve"/>
      <point x="425" y="150"/>
      <point x="572" y="138"/>
      <point x="572" y="260" type="curve" smooth="yes"/>
      <point x="572" y="382"/>
      <point x="488" y="435"/>
      <point x="408" y="435" type="curve" smooth="yes"/>
      <point x="333" y="435"/>
      <point x="290" y="417"/>
    </contour>
    <contour>
      <point x="263" y="-20" type="curve" smooth="yes"/>
      <point x="434" y="-20"/>
      <point x="572" y="31"/>
      <point x="572" y="202" type="curve" smooth="yes"/>
      <point x="572" y="260" type="line" smooth="yes"/>
      <point x="572" y="319"/>
      <point x="506" y="350"/>
      <point x="366" y="348" type="curve"/>
      <point x="366" y="320"/>
      <point x="366" y="283"/>
      <point x="366" y="250" type="curve" smooth="yes"/>
      <point x="366" y="237" type="line" smooth="yes"/>
      <point x="366" y="212"/>
      <point x="348" y="195"/>
      <point x="256" y="195" type="curve" smooth="yes"/>
      <point x="164" y="195"/>
      <point x="120" y="200"/>
      <point x="55" y="213" type="curve"/>
      <point x="35" y="213" type="line"/>
      <point x="35" y="143"/>
      <point x="35" y="85"/>
      <point x="35" y="9" type="curve" smooth="yes"/>
      <point x="35" y="6"/>
      <point x="36" y="3"/>
      <point x="38" y="1" type="curve" smooth="yes"/>
      <point x="48" y="-9"/>
      <point x="136" y="-20"/>
    </contour>
  </outline>
</glyph>
<glyph name="seven" format="1">
  <advance width="600"/>
  <unicode hex="0037"/>
  <outline>
    <contour>
      <point x="418" y="475" type="line" smooth="yes"/>
      <point x="480" y="475"/>
      <point x="536" y="478"/>
      <point x="570" y="500" type="curve"/>
      <point x="570" y="689" type="line"/>
      <point x="570" y="695"/>
      <point x="565" y="700"/>
      <point x="559" y="700" type="curve"/>
      <point x="30" y="700" type="line"/>
      <point x="30" y="624" type="line" smooth="yes"/>
      <point x="30" y="531"/>
      <point x="52" y="475"/>
      <point x="86" y="475" type="curve" smooth="yes"/>
    </contour>
    <contour>
      <point x="370" y="0" type="line"/>
      <point x="558" y="463"/>
      <point x="570" y="495"/>
      <point x="570" y="500" type="curve" smooth="yes"/>
      <point x="570" y="560"/>
      <point x="507" y="584"/>
      <point x="414" y="585" type="curve"/>
      <point x="123" y="37"/>
      <point x="120" y="28"/>
      <point x="120" y="11" type="curve" smooth="yes"/>
      <point x="120" y="6"/>
      <point x="125" y="0"/>
      <point x="130" y="0" type="curve" smooth="yes"/>
    </contour>
    <contour>
      <point x="235" y="430" type="curve"/>
      <point x="235" y="497"/>
      <point x="235" y="561"/>
      <point x="235" y="629" type="curve"/>
      <point x="235" y="674"/>
      <point x="183" y="700"/>
      <point x="44" y="700" type="curve" smooth="yes"/>
      <point x="30" y="700" type="line"/>
      <point x="30" y="612"/>
      <point x="30" y="528"/>
      <point x="30" y="440" type="curve"/>
      <point x="30" y="434"/>
      <point x="35" y="430"/>
      <point x="41" y="430" type="curve" smooth="yes"/>
      <point x="105" y="430"/>
      <point x="171" y="430"/>
    </contour>
  </outline>
</glyph>
<glyph name="eight" format="1">
  <advance width="600"/>
  <unicode hex="0038"/>
  <outline>
    <contour>
      <point x="418" y="398" type="curve" smooth="yes"/>
      <point x="282" y="448" type="line" smooth="yes"/>
      <point x="262" y="455"/>
      <point x="250" y="468"/>
      <point x="250" y="481" type="curve" smooth="yes"/>
      <point x="250" y="482"/>
      <point x="250" y="506"/>
      <point x="250" y="525" type="curve"/>
      <point x="84" y="525"/>
      <point x="50" y="519"/>
      <point x="50" y="489" type="curve" smooth="yes"/>
      <point x="50" y="401"/>
      <point x="104" y="331"/>
      <point x="200" y="294" type="curve" smooth="yes"/>
      <point x="331" y="243" type="line" smooth="yes"/>
      <point x="360" y="231"/>
      <point x="370" y="223"/>
      <point x="370" y="211" type="curve" smooth="yes"/>
      <point x="370" y="190"/>
      <point x="370" y="184"/>
      <point x="370" y="167" type="curve"/>
      <point x="548" y="167"/>
      <point x="570" y="202"/>
      <point x="570" y="213" type="curve"/>
      <point x="570" y="296"/>
      <point x="514" y="363"/>
    </contour>
    <contour>
      <point x="297" y="-20" type="curve" smooth="yes"/>
      <point x="468" y="-20"/>
      <point x="570" y="48"/>
      <point x="570" y="162" type="curve" smooth="yes"/>
      <point x="570" y="213" type="line" smooth="yes"/>
      <point x="570" y="223"/>
      <point x="545" y="256"/>
      <point x="370" y="256" type="curve"/>
      <point x="370" y="240"/>
      <point x="370" y="222"/>
      <point x="370" y="206" type="curve" smooth="yes"/>
      <point x="370" y="188"/>
      <point x="348" y="180"/>
      <point x="297" y="180" type="curve" smooth="yes"/>
      <point x="268" y="180"/>
      <point x="239" y="180"/>
      <point x="210" y="180" type="curve"/>
      <point x="210" y="10"/>
      <point x="223" y="-20"/>
    </contour>
    <contour>
      <point x="304" y="720" type="curve" smooth="yes"/>
      <point x="151" y="720"/>
      <point x="50" y="641"/>
      <point x="50" y="522" type="curve" smooth="yes"/>
      <point x="50" y="489" type="line" smooth="yes"/>
      <point x="50" y="460"/>
      <point x="84" y="445"/>
      <point x="250" y="445" type="curve"/>
      <point x="250" y="451"/>
      <point x="250" y="484"/>
      <point x="250" y="489" type="curve" smooth="yes"/>
      <point x="250" y="510"/>
      <point x="269" y="520"/>
      <point x="307" y="520" type="curve" smooth="yes"/>
      <point x="334" y="520"/>
      <point x="353" y="520"/>
      <point x="390" y="520" type="curve"/>
      <point x="390" y="688"/>
      <point x="376" y="720"/>
    </contour>
    <contour>
      <point x="371" y="367" type="curve" smooth="yes"/>
      <point x="465" y="367"/>
      <point x="550" y="432"/>
      <point x="550" y="503" type="curve" smooth="yes"/>
      <point x="550" y="536" type="line" smooth="yes"/>
      <point x="550" y="647"/>
      <point x="452" y="720"/>
      <point x="304" y="720" type="curve" smooth="yes"/>
      <point x="282" y="720"/>
      <point x="283" y="672"/>
      <point x="307" y="520" type="curve"/>
      <point x="337" y="520"/>
      <point x="350" y="512"/>
      <point x="350" y="491" type="curve" smooth="yes"/>
      <point x="350" y="476" type="line" smooth="yes"/>
      <point x="350" y="454"/>
      <point x="335" y="433"/>
      <point x="314" y="424" type="curve"/>
      <point x="314" y="394"/>
      <point x="340" y="367"/>
    </contour>
    <contour>
      <point x="297" y="180" type="curve"/>
      <point x="248" y="180"/>
      <point x="230" y="189"/>
      <point x="230" y="211" type="curve" smooth="yes"/>
      <point x="230" y="227" type="line" smooth="yes"/>
      <point x="230" y="251"/>
      <point x="250" y="278"/>
      <point x="272" y="285" type="curve"/>
      <point x="272" y="330"/>
      <point x="259" y="350"/>
      <point x="229" y="350" type="curve" smooth="yes"/>
      <point x="122" y="350"/>
      <point x="30" y="280"/>
      <point x="30" y="199" type="curve" smooth="yes"/>
      <point x="30" y="169" type="line" smooth="yes"/>
      <point x="30" y="41"/>
      <point x="117" y="-20"/>
      <point x="297" y="-20" type="curve" smooth="yes"/>
      <point x="318" y="-20"/>
      <point x="331" y="15"/>
    </contour>
  </outline>
</glyph>
<glyph name="nine" format="1">
  <advance width="600"/>
  <unicode hex="0039"/>
  <outline>
    <contour>
      <point x="437" y="516" type="curve"/>
      <point x="437" y="671"/>
      <point x="363" y="720"/>
      <point x="285" y="720" type="curve"/>
      <point x="131" y="720"/>
      <point x="27" y="622"/>
      <point x="27" y="502" type="curve" smooth="yes"/>
      <point x="27" y="438" type="line" smooth="yes"/>
      <point x="27" y="363"/>
      <point x="61" y="359"/>
      <point x="242" y="359" type="curve"/>
      <point x="242" y="396"/>
      <point x="242" y="408"/>
      <point x="242" y="440" type="curve" smooth="yes"/>
      <point x="242" y="482" type="line" smooth="yes"/>
      <point x="242" y="503"/>
      <point x="254" y="516"/>
      <point x="297" y="516" type="curve" smooth="yes"/>
      <point x="384" y="516"/>
      <point x="406" y="516"/>
    </contour>
    <contour>
      <point x="428" y="178" type="curve"/>
      <point x="376" y="178"/>
      <point x="316" y="178"/>
      <point x="246" y="178" type="curve" smooth="yes"/>
      <point x="176" y="178"/>
      <point x="135" y="184"/>
      <point x="90" y="196" type="curve"/>
      <point x="70" y="196" type="line"/>
      <point x="70" y="142"/>
      <point x="70" y="84"/>
      <point x="70" y="11" type="curve" smooth="yes"/>
      <point x="70" y="8"/>
      <point x="71" y="5"/>
      <point x="73" y="3" type="curve" smooth="yes"/>
      <point x="87" y="-11"/>
      <point x="169" y="-22"/>
      <point x="262" y="-22" type="curve" smooth="yes"/>
      <point x="375" y="-22"/>
      <point x="428" y="42"/>
    </contour>
    <contour>
      <point x="570" y="271" type="curve" smooth="yes"/>
      <point x="570" y="448" type="line" smooth="yes"/>
      <point x="570" y="625"/>
      <point x="471" y="720"/>
      <point x="285" y="720" type="curve" smooth="yes"/>
      <point x="266" y="720"/>
      <point x="237" y="686"/>
      <point x="297" y="516" type="curve"/>
      <point x="339" y="516"/>
      <point x="355" y="500"/>
      <point x="355" y="454" type="curve" smooth="yes"/>
      <point x="355" y="291" type="line" smooth="yes"/>
      <point x="355" y="216"/>
      <point x="347" y="178"/>
      <point x="246" y="178" type="curve"/>
      <point x="221" y="10"/>
      <point x="246" y="-22"/>
      <point x="262" y="-22" type="curve" smooth="yes"/>
      <point x="459" y="-22"/>
      <point x="570" y="81"/>
    </contour>
    <contour>
      <point x="210" y="245" type="curve" smooth="yes"/>
      <point x="276" y="245"/>
      <point x="320" y="262"/>
      <point x="360" y="302" type="curve" smooth="yes"/>
      <point x="388" y="330"/>
      <point x="403" y="385"/>
      <point x="403" y="438" type="curve"/>
      <point x="351" y="421"/>
      <point x="314" y="418"/>
      <point x="279" y="418" type="curve" smooth="yes"/>
      <point x="249" y="418"/>
      <point x="242" y="424"/>
      <point x="242" y="449" type="curve" smooth="yes"/>
      <point x="242" y="454"/>
      <point x="242" y="467"/>
      <point x="242" y="508" type="curve"/>
      <point x="54" y="508"/>
      <point x="27" y="466"/>
      <point x="27" y="438" type="curve" smooth="yes"/>
      <point x="27" y="317"/>
      <point x="100" y="245"/>
    </contour>
  </outline>
</glyph>
<glyph name="colon" format="1">
  <advance width="600"/>
  <unicode hex="003A"/>
  <outline>
    <contour>
      <point x="424" y="312" type="curve"/>
      <point x="424" y="551" type="line" smooth="yes"/>
      <point x="424" y="557"/>
      <point x="419" y="562"/>
      <point x="413" y="562" type="curve" smooth="yes"/>
      <point x="329" y="562"/>
      <point x="260" y="562"/>
      <point x="176" y="562" type="curve"/>
      <point x="176" y="323" type="line" smooth="yes"/>
      <point x="176" y="317"/>
      <point x="181" y="312"/>
      <point x="187" y="312" type="curve" smooth="yes"/>
      <point x="271" y="312"/>
      <point x="340" y="312"/>
    </contour>
    <contour>
      <point x="424" y="-13" type="curve"/>
      <point x="424" y="226" type="line" smooth="yes"/>
      <point x="424" y="232"/>
      <point x="419" y="237"/>
      <point x="413" y="237" type="curve" smooth="yes"/>
      <point x="329" y="237"/>
      <point x="260" y="237"/>
      <point x="176" y="237" type="curve"/>
      <point x="176" y="-2" type="line" smooth="yes"/>
      <point x="176" y="-8"/>
      <point x="181" y="-13"/>
      <point x="187" y="-13" type="curve" smooth="yes"/>
      <point x="271" y="-13"/>
      <point x="340" y="-13"/>
    </contour>
  </outline>
</glyph>
<glyph name="semicolon" format="1">
  <advance width="600"/>
  <unicode hex="003B"/>
  <outline>
    <contour>
      <point x="424" y="312" type="curve"/>
      <point x="424" y="551" type="line" smooth="yes"/>
      <point x="424" y="557"/>
      <point x="419" y="562"/>
      <point x="413" y="562" type="curve" smooth="yes"/>
      <point x="329" y="562"/>
      <point x="260" y="562"/>
      <point x="176" y="562" type="curve"/>
      <point x="176" y="323" type="line" smooth="yes"/>
      <point x="176" y="317"/>
      <point x="181" y="312"/>
      <point x="187" y="312" type="curve" smooth="yes"/>
      <point x="271" y="312"/>
      <point x="340" y="312"/>
    </contour>
    <contour>
      <point x="340" y="-271" type="curve" smooth="yes"/>
      <point x="344" y="-271"/>
      <point x="348" y="-270"/>
      <point x="350" y="-264" type="curve"/>
      <point x="390" y="-145"/>
      <point x="444" y="4"/>
      <point x="472" y="86" type="curve"/>
      <point x="474" y="94"/>
      <point x="472" y="99"/>
      <point x="464" y="99" type="curve" smooth="yes"/>
      <point x="370" y="99"/>
      <point x="314" y="99"/>
      <point x="205" y="99" type="curve"/>
      <point x="181" y="-24"/>
      <point x="157" y="-148"/>
      <point x="133" y="-271" type="curve"/>
      <point x="187" y="-271"/>
      <point x="249" y="-271"/>
    </contour>
  </outline>
</glyph>
<glyph name="less" format="1">
  <advance width="600"/>
  <unicode hex="003C"/>
  <outline>
    <contour>
      <point x="520" y="394" type="curve"/>
      <point x="520" y="591" type="line"/>
      <point x="520" y="598"/>
      <point x="516" y="603"/>
      <point x="509" y="603" type="curve" smooth="yes"/>
      <point x="505" y="603"/>
      <point x="499" y="601"/>
      <point x="482" y="595" type="curve" smooth="yes"/>
      <point x="429" y="576"/>
      <point x="221" y="499"/>
      <point x="78" y="446" type="curve"/>
      <point x="78" y="197" type="line"/>
      <point x="102" y="234"/>
      <point x="140" y="271"/>
      <point x="226" y="299" type="curve"/>
      <point x="323" y="330"/>
      <point x="423" y="363"/>
    </contour>
    <contour>
      <point x="518" y="-5" type="curve"/>
      <point x="518" y="63"/>
      <point x="518" y="124"/>
      <point x="518" y="192" type="curve" smooth="yes"/>
      <point x="518" y="203"/>
      <point x="515" y="209"/>
      <point x="504" y="212" type="curve" smooth="yes"/>
      <point x="438" y="231"/>
      <point x="365" y="252"/>
      <point x="302" y="271" type="curve" smooth="yes"/>
      <point x="289" y="275"/>
      <point x="284" y="282"/>
      <point x="284" y="295" type="curve" smooth="yes"/>
      <point x="284" y="320"/>
      <point x="284" y="352"/>
      <point x="284" y="403" type="curve"/>
      <point x="129" y="406"/>
      <point x="78" y="290"/>
      <point x="78" y="216" type="curve" smooth="yes"/>
      <point x="78" y="168" type="line" smooth="yes"/>
      <point x="78" y="156"/>
      <point x="82" y="150"/>
      <point x="96" y="144" type="curve" smooth="yes"/>
      <point x="238" y="94"/>
      <point x="377" y="45"/>
    </contour>
  </outline>
</glyph>
<glyph name="greater" format="1">
  <advance width="600"/>
  <unicode hex="003E"/>
  <outline>
    <contour>
      <point x="80" y="205" type="curve"/>
      <point x="80" y="8" type="line"/>
      <point x="80" y="1"/>
      <point x="84" y="-4"/>
      <point x="91" y="-4" type="curve" smooth="yes"/>
      <point x="95" y="-4"/>
      <point x="101" y="-2"/>
      <point x="118" y="4" type="curve" smooth="yes"/>
      <point x="171" y="23"/>
      <point x="379" y="100"/>
      <point x="522" y="153" type="curve"/>
      <point x="522" y="402" type="line"/>
      <point x="498" y="365"/>
      <point x="460" y="328"/>
      <point x="374" y="300" type="curve"/>
      <point x="277" y="269"/>
      <point x="177" y="236"/>
    </contour>
    <contour>
      <point x="82" y="604" type="curve"/>
      <point x="82" y="536"/>
      <point x="82" y="475"/>
      <point x="82" y="407" type="curve" smooth="yes"/>
      <point x="82" y="396"/>
      <point x="85" y="390"/>
      <point x="96" y="387" type="curve" smooth="yes"/>
      <point x="162" y="368"/>
      <point x="235" y="347"/>
      <point x="298" y="328" type="curve" smooth="yes"/>
      <point x="311" y="324"/>
      <point x="316" y="317"/>
      <point x="316" y="304" type="curve" smooth="yes"/>
      <point x="316" y="279"/>
      <point x="316" y="247"/>
      <point x="316" y="196" type="curve"/>
      <point x="471" y="193"/>
      <point x="522" y="309"/>
      <point x="522" y="383" type="curve" smooth="yes"/>
      <point x="522" y="431" type="line" smooth="yes"/>
      <point x="522" y="443"/>
      <point x="518" y="449"/>
      <point x="504" y="455" type="curve" smooth="yes"/>
      <point x="362" y="505"/>
      <point x="223" y="554"/>
    </contour>
  </outline>
</glyph>
<glyph name="E" format="1">
  <advance width="600"/>
  <unicode hex="0045"/>
  <outline>
    <contour>
      <point x="5" y="700" type="line"/>
      <point x="5" y="640"/>
      <point x="5" y="581"/>
      <point x="5" y="521" type="curve" smooth="yes"/>
      <point x="5" y="518"/>
      <point x="6" y="515"/>
      <point x="8" y="513" type="curve" smooth="yes"/>
      <point x="10" y="511"/>
      <point x="13" y="510"/>
      <point x="16" y="510" type="curve" smooth="yes"/>
      <point x="570" y="510" type="line"/>
      <point x="570" y="570"/>
      <point x="570" y="629"/>
      <point x="570" y="689" type="curve" smooth="yes"/>
      <point x="570" y="692"/>
      <point x="569" y="695"/>
      <point x="567" y="697" type="curve" smooth="yes"/>
      <point x="565" y="699"/>
      <point x="562" y="700"/>
      <point x="559" y="700" type="curve" smooth="yes"/>
    </contour>
    <contour>
      <point x="260" y="100" type="curve"/>
      <point x="260" y="639" type="line" smooth="yes"/>
      <point x="260" y="645"/>
      <point x="255" y="650"/>
      <point x="35" y="650" type="curve"/>
      <point x="35" y="111" type="line"/>
      <point x="35" y="105"/>
      <point x="40" y="100"/>
    </contour>
    <contour>
      <point x="35" y="190" type="line"/>
      <point x="35" y="11" type="line" smooth="yes"/>
      <point x="35" y="5"/>
      <point x="40" y="0"/>
      <point x="46" y="0" type="curve" smooth="yes"/>
      <point x="570" y="0" type="line"/>
      <point x="570" y="60"/>
      <point x="570" y="119"/>
      <point x="570" y="179" type="curve" smooth="yes"/>
      <point x="570" y="185"/>
      <point x="565" y="190"/>
      <point x="559" y="190" type="curve" smooth="yes"/>
    </contour>
    <contour>
      <point x="145" y="435" type="line"/>
      <point x="145" y="269"/>
      <point x="150" y="265"/>
      <point x="156" y="265" type="curve" smooth="yes"/>
      <point x="510" y="265" type="line"/>
      <point x="510" y="318"/>
      <point x="510" y="371"/>
      <point x="510" y="424" type="curve" smooth="yes"/>
      <point x="510" y="427"/>
      <point x="509" y="430"/>
      <point x="507" y="432" type="curve" smooth="yes"/>
      <point x="505" y="434"/>
      <point x="502" y="435"/>
      <point x="499" y="435" type="curve" smooth="yes"/>
    </contour>
    <contour>
      <point x="287" y="711" type="move" name="top"/>
    </contour>
    <contour>
      <point x="571" y="0" type="move" name="ogonek"/>
    </contour>
    <contour>
      <point x="322" y="-1" type="move" name="bottom"/>
    </contour>
  </outline>
</glyph>
<glyph name="H" format="1">
  <advance width="600"/>
  <unicode hex="0048"/>
  <outline>
    <contour>
      <point x="35" y="700" type="curve"/>
      <point x="35" y="667"/>
      <point x="35" y="633"/>
      <point x="35" y="600" type="curve" smooth="yes"/>
      <point x="35" y="11" type="line" smooth="yes"/>
      <point x="35" y="5"/>
      <point x="40" y="0"/>
      <point x="46" y="0" type="curve" smooth="yes"/>
      <point x="117" y="0"/>
      <point x="189" y="0"/>
      <point x="260" y="0" type="curve"/>
      <point x="260" y="689" type="line" smooth="yes"/>
      <point x="260" y="692"/>
      <point x="259" y="695"/>
      <point x="257" y="697" type="curve" smooth="yes"/>
      <point x="255" y="699"/>
      <point x="252" y="700"/>
      <point x="249" y="700" type="curve" smooth="yes"/>
      <point x="178" y="700"/>
      <point x="106" y="700"/>
    </contour>
    <contour>
      <point x="565" y="0" type="curve"/>
      <point x="565" y="33"/>
      <point x="565" y="67"/>
      <point x="565" y="100" type="curve" smooth="yes"/>
      <point x="565" y="689" type="line" smooth="yes"/>
      <point x="565" y="695"/>
      <point x="560" y="700"/>
      <point x="554" y="700" type="curve" smooth="yes"/>
      <point x="483" y="700"/>
      <point x="411" y="700"/>
      <point x="340" y="700" type="curve"/>
      <point x="340" y="11" type="line" smooth="yes"/>
      <point x="340" y="8"/>
      <point x="341" y="5"/>
      <point x="343" y="3" type="curve" smooth="yes"/>
      <point x="345" y="1"/>
      <point x="348" y="0"/>
      <point x="351" y="0" type="curve" smooth="yes"/>
      <point x="422" y="0"/>
      <point x="494" y="0"/>
    </contour>
    <contour>
      <point x="135" y="460" type="line"/>
      <point x="135" y="261" type="line" smooth="yes"/>
      <point x="135" y="258"/>
      <point x="136" y="255"/>
      <point x="138" y="253" type="curve" smooth="yes"/>
      <point x="140" y="251"/>
      <point x="143" y="250"/>
      <point x="146" y="250" type="curve"/>
      <point x="460" y="250" type="line"/>
      <point x="460" y="455"/>
      <point x="455" y="460"/>
      <point x="449" y="460" type="curve" smooth="yes"/>
    </contour>
    <contour>
      <point x="300" y="711" type="move" name="top"/>
    </contour>
  </outline>
</glyph>
<glyph name="J" format="1">
  <advance width="600"/>
  <unicode hex="004A"/>
  <outline>
    <contour>
      <point x="40" y="700" type="line"/>
      <point x="40" y="634"/>
      <point x="40" y="567"/>
      <point x="40" y="501" type="curve" smooth="yes"/>
      <point x="40" y="498"/>
      <point x="41" y="495"/>
      <point x="43" y="493" type="curve" smooth="yes"/>
      <point x="45" y="491"/>
      <point x="48" y="490"/>
      <point x="51" y="490" type="curve" smooth="yes"/>
      <point x="430" y="490" type="line"/>
      <point x="430" y="692"/>
      <point x="425" y="700"/>
      <point x="419" y="700" type="curve"/>
    </contour>
    <contour>
      <point x="559" y="245" type="curve" smooth="yes"/>
      <point x="559" y="689" type="line" smooth="yes"/>
      <point x="559" y="695"/>
      <point x="554" y="700"/>
      <point x="548" y="700" type="curve" smooth="yes"/>
      <point x="326" y="700" type="line"/>
      <point x="326" y="276" type="line" smooth="yes"/>
      <point x="326" y="196"/>
      <point x="326" y="165"/>
      <point x="326" y="116" type="curve"/>
      <point x="502" y="116"/>
      <point x="559" y="147"/>
    </contour>
    <contour>
      <point x="229" y="195" type="curve" smooth="yes"/>
      <point x="164" y="195"/>
      <point x="109" y="205"/>
      <point x="50" y="229" type="curve"/>
      <point x="30" y="229" type="line"/>
      <point x="30" y="171"/>
      <point x="30" y="94"/>
      <point x="30" y="31" type="curve"/>
      <point x="30" y="28"/>
      <point x="31" y="25"/>
      <point x="33" y="23" type="curve" smooth="yes"/>
      <point x="48" y="8"/>
      <point x="130" y="-20"/>
      <point x="230" y="-20" type="curve" smooth="yes"/>
      <point x="247" y="-20" type="line" smooth="yes"/>
      <point x="429" y="-20"/>
      <point x="559" y="43"/>
      <point x="559" y="245" type="curve"/>
      <point x="559" y="261"/>
      <point x="528" y="276"/>
      <point x="326" y="276" type="curve"/>
      <point x="326" y="213"/>
      <point x="288" y="195"/>
    </contour>
    <contour>
      <point x="294" y="711" type="move" name="top"/>
    </contour>
  </outline>
</glyph>
<glyph name="K" format="1">
  <advance width="600"/>
  <unicode hex="004B"/>
  <outline>
    <contour>
      <point x="35" y="700" type="curve"/>
      <point x="35" y="667"/>
      <point x="35" y="633"/>
      <point x="35" y="600" type="curve" smooth="yes"/>
      <point x="35" y="11" type="line" smooth="yes"/>
      <point x="35" y="5"/>
      <point x="40" y="0"/>
      <point x="46" y="0" type="curve" smooth="yes"/>
      <point x="117" y="0"/>
      <point x="184" y="0"/>
      <point x="255" y="0" type="curve"/>
      <point x="255" y="689" type="line" smooth="yes"/>
      <point x="255" y="692"/>
      <point x="254" y="695"/>
      <point x="252" y="697" type="curve" smooth="yes"/>
      <point x="250" y="699"/>
      <point x="247" y="700"/>
      <point x="244" y="700" type="curve" smooth="yes"/>
      <point x="173" y="700"/>
      <point x="106" y="700"/>
    </contour>
    <contour>
      <point x="580" y="700" type="curve"/>
      <point x="361" y="700" type="line"/>
      <point x="291" y="539"/>
      <point x="221" y="377"/>
      <point x="151" y="216" type="curve"/>
      <point x="142" y="194"/>
      <point x="149" y="183"/>
      <point x="213" y="111" type="curve"/>
      <point x="349" y="252"/>
      <point x="359" y="260"/>
      <point x="533" y="582" type="curve" smooth="yes"/>
      <point x="588" y="684"/>
      <point x="589" y="687"/>
      <point x="589" y="692" type="curve" smooth="yes"/>
      <point x="589" y="696"/>
      <point x="585" y="700"/>
    </contour>
    <contour>
      <point x="393" y="403" type="line"/>
      <point x="238" y="325"/>
      <point x="259" y="235"/>
      <point x="275" y="206" type="curve" smooth="yes"/>
      <point x="340" y="86" type="line" smooth="yes"/>
      <point x="386" y="2"/>
      <point x="421" y="-10"/>
      <point x="503" y="-10" type="curve" smooth="yes"/>
      <point x="559" y="-10" type="line" smooth="yes"/>
      <point x="566" y="-10"/>
      <point x="570" y="-6"/>
      <point x="570" y="1" type="curve" smooth="yes"/>
      <point x="570" y="67"/>
      <point x="570" y="134"/>
      <point x="570" y="200" type="curve"/>
      <point x="545" y="200" type="line"/>
      <point x="541" y="200"/>
      <point x="537" y="200"/>
      <point x="533" y="200" type="curve" smooth="yes"/>
      <point x="519" y="200"/>
      <point x="512" y="206"/>
      <point x="503" y="221" type="curve" smooth="yes"/>
    </contour>
    <contour>
      <point x="312" y="-1" type="move" name="bottom"/>
    </contour>
  </outline>
</glyph>
<glyph name="L" format="1">
  <advance width="600"/>
  <unicode hex="004C"/>
  <outline>
    <contour>
      <point x="270" y="100" type="curve"/>
      <point x="270" y="689" type="line" smooth="yes"/>
      <point x="270" y="692"/>
      <point x="269" y="695"/>
      <point x="267" y="697" type="curve" smooth="yes"/>
      <point x="265" y="699"/>
      <point x="262" y="700"/>
      <point x="259" y="700" type="curve" smooth="yes"/>
      <point x="184" y="700"/>
      <point x="110" y="700"/>
      <point x="35" y="700" type="curve"/>
      <point x="35" y="667"/>
      <point x="35" y="633"/>
      <point x="35" y="600" type="curve" smooth="yes"/>
      <point x="35" y="111" type="line" smooth="yes"/>
      <point x="35" y="105"/>
      <point x="40" y="100"/>
    </contour>
    <contour>
      <point x="35" y="220" type="line"/>
      <point x="35" y="11" type="line" smooth="yes"/>
      <point x="35" y="5"/>
      <point x="40" y="0"/>
      <point x="46" y="0" type="curve" smooth="yes"/>
      <point x="570" y="0" type="line"/>
      <point x="570" y="70"/>
      <point x="570" y="139"/>
      <point x="570" y="209" type="curve" smooth="yes"/>
      <point x="570" y="215"/>
      <point x="565" y="220"/>
      <point x="559" y="220" type="curve" smooth="yes"/>
    </contour>
    <contour>
      <point x="445" y="550" type="move" name="caronslovak"/>
    </contour>
    <contour>
      <point x="150" y="711" type="move" name="top"/>
    </contour>
    <contour>
      <point x="452" y="450" type="move" name="dot"/>
    </contour>
    <contour>
      <point x="302" y="-1" type="move" name="bottom"/>
    </contour>
  </outline>
</glyph>
<glyph name="M" format="1">
  <advance width="600"/>
  <unicode hex="004D"/>
  <outline>
    <contour>
      <point x="224" y="0" type="curve"/>
      <point x="224" y="41"/>
      <point x="224" y="82"/>
      <point x="224" y="123" type="curve" smooth="yes"/>
      <point x="151" y="484"/>
      <point x="150" y="496"/>
      <point x="150" y="690" type="curve" smooth="yes"/>
      <point x="150" y="693"/>
      <point x="149" y="695"/>
      <point x="147" y="697" type="curve" smooth="yes"/>
      <point x="145" y="699"/>
      <point x="142" y="700"/>
      <point x="139" y="700" type="curve" smooth="yes"/>
      <point x="101" y="700"/>
      <point x="64" y="700"/>
      <point x="26" y="700" type="curve"/>
      <point x="26" y="667"/>
      <point x="26" y="633"/>
      <point x="26" y="600" type="curve" smooth="yes"/>
      <point x="26" y="11" type="line" smooth="yes"/>
      <point x="26" y="8"/>
      <point x="27" y="5"/>
      <point x="29" y="3" type="curve" smooth="yes"/>
      <point x="31" y="1"/>
      <point x="34" y="0"/>
      <point x="37" y="0" type="curve" smooth="yes"/>
      <point x="99" y="0"/>
      <point x="162" y="0"/>
    </contour>
    <contour>
      <point x="574" y="0" type="curve"/>
      <point x="574" y="33"/>
      <point x="574" y="67"/>
      <point x="574" y="100" type="curve" smooth="yes"/>
      <point x="574" y="689" type="line" smooth="yes"/>
      <point x="574" y="692"/>
      <point x="573" y="695"/>
      <point x="571" y="697" type="curve" smooth="yes"/>
      <point x="569" y="699"/>
      <point x="566" y="700"/>
      <point x="563" y="700" type="curve" smooth="yes"/>
      <point x="450" y="700" type="line"/>
      <point x="450" y="696"/>
      <point x="450" y="692"/>
      <point x="450" y="688" type="curve" smooth="yes"/>
      <point x="450" y="495"/>
      <point x="450" y="483"/>
      <point x="376" y="123" type="curve" smooth="yes"/>
      <point x="376" y="86"/>
      <point x="376" y="48"/>
      <point x="376" y="11" type="curve" smooth="yes"/>
      <point x="376" y="8"/>
      <point x="377" y="5"/>
      <point x="379" y="3" type="curve" smooth="yes"/>
      <point x="381" y="1"/>
      <point x="384" y="0"/>
      <point x="387" y="0" type="curve"/>
      <point x="449" y="0"/>
      <point x="512" y="0"/>
    </contour>
    <contour>
      <point x="82" y="700" type="line"/>
      <point x="151" y="503"/>
      <point x="220" y="305"/>
      <point x="287" y="108" type="curve"/>
      <point x="290" y="101"/>
      <point x="295" y="100"/>
      <point x="299" y="100" type="curve"/>
      <point x="316" y="100"/>
      <point x="348" y="364"/>
      <point x="342" y="383" type="curve"/>
      <point x="306" y="487"/>
      <point x="270" y="592"/>
      <point x="236" y="691" type="curve"/>
      <point x="233" y="699"/>
      <point x="231" y="700"/>
      <point x="221" y="700" type="curve"/>
    </contour>
    <contour>
      <point x="450" y="700" type="curve" smooth="yes"/>
      <point x="423" y="700"/>
      <point x="396" y="700"/>
      <point x="369" y="700" type="curve"/>
      <point x="332" y="594"/>
      <point x="295" y="489"/>
      <point x="257" y="383" type="curve"/>
      <point x="251" y="365"/>
      <point x="287" y="100"/>
      <point x="299" y="100" type="curve"/>
      <point x="310" y="100" type="line"/>
      <point x="374" y="282"/>
      <point x="439" y="465"/>
      <point x="503" y="647" type="curve"/>
      <point x="515" y="677"/>
      <point x="501" y="700"/>
    </contour>
  </outline>
</glyph>
<glyph name="N" format="1">
  <advance width="600"/>
  <unicode hex="004E"/>
  <outline>
    <contour>
      <point x="245" y="0" type="curve"/>
      <point x="245" y="163" type="line"/>
      <point x="165" y="673"/>
      <point x="162" y="692"/>
      <point x="157" y="697" type="curve" smooth="yes"/>
      <point x="155" y="699"/>
      <point x="152" y="700"/>
      <point x="149" y="700" type="curve"/>
      <point x="111" y="700"/>
      <point x="73" y="700"/>
      <point x="35" y="700" type="curve"/>
      <point x="35" y="667"/>
      <point x="35" y="593"/>
      <point x="35" y="560" type="curve" smooth="yes"/>
      <point x="35" y="11" type="line"/>
      <point x="35" y="5"/>
      <point x="40" y="0"/>
      <point x="46" y="0" type="curve"/>
      <point x="112" y="0"/>
      <point x="179" y="0"/>
    </contour>
    <contour>
      <point x="565" y="0" type="line"/>
      <point x="565" y="689" type="line"/>
      <point x="565" y="695"/>
      <point x="560" y="700"/>
      <point x="554" y="700" type="curve"/>
      <point x="355" y="700" type="line"/>
      <point x="355" y="494" type="line"/>
      <point x="420" y="30"/>
      <point x="424" y="5"/>
      <point x="426" y="3" type="curve" smooth="yes"/>
      <point x="428" y="1"/>
      <point x="431" y="0"/>
      <point x="434" y="0" type="curve"/>
    </contour>
    <contour>
      <point x="149" y="700" type="line"/>
      <point x="101" y="681"/>
      <point x="109" y="661"/>
      <point x="117" y="642" type="curve" smooth="yes"/>
      <point x="203" y="431"/>
      <point x="287" y="219"/>
      <point x="372" y="8" type="curve"/>
      <point x="375" y="1"/>
      <point x="380" y="0"/>
      <point x="384" y="0" type="curve" smooth="yes"/>
      <point x="388" y="0"/>
      <point x="440" y="0"/>
      <point x="443" y="0" type="curve"/>
      <point x="458" y="0"/>
      <point x="461" y="78"/>
      <point x="444" y="127" type="curve"/>
      <point x="372" y="314"/>
      <point x="299" y="503"/>
      <point x="227" y="690" type="curve"/>
      <point x="224" y="698"/>
      <point x="221" y="700"/>
      <point x="209" y="700" type="curve"/>
    </contour>
    <contour>
      <point x="300" y="711" type="move" name="top"/>
    </contour>
    <contour>
      <point x="300" y="-1" type="move" name="bottom"/>
    </contour>
  </outline>
</glyph>
<glyph name="O" format="1">
  <advance width="600"/>
  <unicode hex="004F"/>
  <outline>
    <contour>
      <point x="300" y="720" type="curve" smooth="yes"/>
      <point x="144" y="720"/>
      <point x="30" y="628"/>
      <point x="30" y="480" type="curve" smooth="yes"/>
      <point x="30" y="220" type="line" smooth="yes"/>
      <point x="30" y="61"/>
      <point x="128" y="-20"/>
      <point x="300" y="-20" type="curve" smooth="yes"/>
      <point x="325" y="-20"/>
      <point x="344" y="7"/>
      <point x="300" y="180" type="curve"/>
      <point x="270" y="180"/>
      <point x="253" y="194"/>
      <point x="253" y="232" type="curve" smooth="yes"/>
      <point x="253" y="465" type="line" smooth="yes"/>
      <point x="253" y="501"/>
      <point x="267" y="520"/>
      <point x="300" y="520" type="curve" smooth="yes"/>
      <point x="364" y="520"/>
      <point x="395" y="520"/>
      <point x="430" y="520" type="curve"/>
      <point x="430" y="654"/>
      <point x="395" y="720"/>
    </contour>
    <contour>
      <point x="300" y="-20" type="curve" smooth="yes"/>
      <point x="453" y="-20"/>
      <point x="565" y="72"/>
      <point x="565" y="220" type="curve" smooth="yes"/>
      <point x="565" y="480" type="line" smooth="yes"/>
      <point x="565" y="639"/>
      <point x="469" y="720"/>
      <point x="300" y="720" type="curve" smooth="yes"/>
      <point x="286" y="720"/>
      <point x="277" y="707"/>
      <point x="300" y="520" type="curve"/>
      <point x="327" y="520"/>
      <point x="342" y="506"/>
      <point x="342" y="469" type="curve" smooth="yes"/>
      <point x="342" y="236" type="line" smooth="yes"/>
      <point x="342" y="200"/>
      <point x="329" y="180"/>
      <point x="300" y="180" type="curve" smooth="yes"/>
      <point x="234" y="180"/>
      <point x="201" y="180"/>
      <point x="165" y="180" type="curve"/>
      <point x="165" y="46"/>
      <point x="201" y="-20"/>
    </contour>
    <contour>
      <point x="297" y="711" type="move" name="top"/>
    </contour>
    <contour>
      <point x="418" y="9" type="move" name="ogonek"/>
    </contour>
    <contour>
      <point x="297" y="-1" type="move" name="bottom"/>
    </contour>
  </outline>
</glyph>
<glyph name="P" format="1">
  <advance width="600"/>
  <unicode hex="0050"/>
  <outline>
    <contour>
      <point x="261" y="0" type="curve"/>
      <point x="261" y="31"/>
      <point x="261" y="65"/>
      <point x="261" y="101" type="curve" smooth="yes"/>
      <point x="261" y="639" type="line" smooth="yes"/>
      <point x="261" y="645"/>
      <point x="256" y="650"/>
      <point x="35" y="650" type="curve"/>
      <point x="35" y="11" type="line" smooth="yes"/>
      <point x="35" y="8"/>
      <point x="36" y="5"/>
      <point x="38" y="3" type="curve" smooth="yes"/>
      <point x="40" y="1"/>
      <point x="43" y="0"/>
      <point x="46" y="0" type="curve" smooth="yes"/>
      <point x="118" y="0"/>
      <point x="189" y="0"/>
    </contour>
    <contour>
      <point x="5" y="700" type="curve"/>
      <point x="5" y="637"/>
      <point x="5" y="574"/>
      <point x="5" y="511" type="curve"/>
      <point x="5" y="508"/>
      <point x="6" y="505"/>
      <point x="8" y="503" type="curve" smooth="yes"/>
      <point x="10" y="501"/>
      <point x="13" y="500"/>
      <point x="16" y="500" type="curve" smooth="yes"/>
      <point x="30" y="500"/>
      <point x="78" y="500"/>
      <point x="92" y="500" type="curve" smooth="yes"/>
      <point x="155" y="500"/>
      <point x="231" y="500"/>
      <point x="293" y="500" type="curve" smooth="yes"/>
      <point x="337" y="500"/>
      <point x="372" y="500"/>
      <point x="443" y="500" type="curve"/>
      <point x="443" y="639"/>
      <point x="421" y="700"/>
      <point x="341" y="700" type="curve" smooth="yes"/>
      <point x="273" y="700"/>
      <point x="82" y="700"/>
    </contour>
    <contour>
      <point x="575" y="396" type="curve" smooth="yes"/>
      <point x="575" y="456" type="line" smooth="yes"/>
      <point x="575" y="612"/>
      <point x="485" y="700"/>
      <point x="341" y="700" type="curve"/>
      <point x="317" y="700"/>
      <point x="293" y="693"/>
      <point x="293" y="500" type="curve"/>
      <point x="323" y="500"/>
      <point x="345" y="497"/>
      <point x="345" y="449" type="curve" smooth="yes"/>
      <point x="345" y="396" type="line" smooth="yes"/>
      <point x="345" y="358"/>
      <point x="325" y="340"/>
      <point x="289" y="340" type="curve" smooth="yes"/>
      <point x="251" y="340"/>
      <point x="213" y="340"/>
      <point x="175" y="340" type="curve"/>
      <point x="175" y="287"/>
      <point x="175" y="228"/>
      <point x="175" y="161" type="curve" smooth="yes"/>
      <point x="175" y="155"/>
      <point x="180" y="150"/>
      <point x="186" y="150" type="curve" smooth="yes"/>
      <point x="355" y="150" type="line" smooth="yes"/>
      <point x="491" y="150"/>
      <point x="575" y="243"/>
    </contour>
  </outline>
</glyph>
<glyph name="Q" format="1">
  <advance width="600"/>
  <unicode hex="0051"/>
  <outline>
    <contour>
      <point x="300" y="720" type="curve" smooth="yes"/>
      <point x="144" y="720"/>
      <point x="30" y="628"/>
      <point x="30" y="480" type="curve" smooth="yes"/>
      <point x="30" y="220" type="line" smooth="yes"/>
      <point x="30" y="61"/>
      <point x="128" y="-20"/>
      <point x="300" y="-20" type="curve" smooth="yes"/>
      <point x="325" y="-20"/>
      <point x="344" y="7"/>
      <point x="300" y="180" type="curve"/>
      <point x="270" y="180"/>
      <point x="253" y="194"/>
      <point x="253" y="232" type="curve" smooth="yes"/>
      <point x="253" y="465" type="line" smooth="yes"/>
      <point x="253" y="501"/>
      <point x="267" y="520"/>
      <point x="300" y="520" type="curve" smooth="yes"/>
      <point x="364" y="520"/>
      <point x="395" y="520"/>
      <point x="430" y="520" type="curve"/>
      <point x="430" y="654"/>
      <point x="395" y="720"/>
    </contour>
    <contour>
      <point x="300" y="-20" type="curve" smooth="yes"/>
      <point x="453" y="-20"/>
      <point x="565" y="72"/>
      <point x="565" y="220" type="curve" smooth="yes"/>
      <point x="565" y="480" type="line" smooth="yes"/>
      <point x="565" y="639"/>
      <point x="469" y="720"/>
      <point x="300" y="720" type="curve" smooth="yes"/>
      <point x="286" y="720"/>
      <point x="277" y="707"/>
      <point x="300" y="520" type="curve"/>
      <point x="327" y="520"/>
      <point x="342" y="506"/>
      <point x="342" y="469" type="curve" smooth="yes"/>
      <point x="342" y="236" type="line" smooth="yes"/>
      <point x="342" y="200"/>
      <point x="329" y="180"/>
      <point x="300" y="180" type="curve" smooth="yes"/>
      <point x="234" y="180"/>
      <point x="201" y="180"/>
      <point x="165" y="180" type="curve"/>
      <point x="165" y="46"/>
      <point x="201" y="-20"/>
    </contour>
    <contour>
      <point x="447" y="147" type="line"/>
      <point x="287" y="66"/>
      <point x="267" y="51"/>
      <point x="279" y="32" type="curve" smooth="yes"/>
      <point x="352" y="-87" type="line" smooth="yes"/>
      <point x="397" y="-160"/>
      <point x="441" y="-177"/>
      <point x="536" y="-177" type="curve" smooth="yes"/>
      <point x="569" y="-177" type="line" smooth="yes"/>
      <point x="576" y="-177"/>
      <point x="580" y="-173"/>
      <point x="580" y="-166" type="curve" smooth="yes"/>
      <point x="580" y="-100"/>
      <point x="580" y="-49"/>
      <point x="580" y="17" type="curve"/>
      <point x="555" y="17" type="line"/>
      <point x="551" y="17"/>
      <point x="547" y="17"/>
      <point x="543" y="17" type="curve" smooth="yes"/>
      <point x="529" y="17"/>
      <point x="522" y="24"/>
      <point x="513" y="38" type="curve" smooth="yes"/>
    </contour>
  </outline>
</glyph>
<glyph name="T" format="1">
  <advance width="600"/>
  <unicode hex="0054"/>
  <outline>
    <contour>
      <point x="30" y="700" type="line"/>
      <point x="30" y="634"/>
      <point x="30" y="567"/>
      <point x="30" y="501" type="curve" smooth="yes"/>
      <point x="30" y="498"/>
      <point x="31" y="495"/>
      <point x="33" y="493" type="curve" smooth="yes"/>
      <point x="35" y="491"/>
      <point x="38" y="490"/>
      <point x="41" y="490" type="curve" smooth="yes"/>
      <point x="570" y="490" type="line"/>
      <point x="570" y="556"/>
      <point x="570" y="623"/>
      <point x="570" y="689" type="curve" smooth="yes"/>
      <point x="570" y="695"/>
      <point x="565" y="700"/>
      <point x="559" y="700" type="curve" smooth="yes"/>
    </contour>
    <contour>
      <point x="413" y="0" type="curve"/>
      <point x="413" y="31"/>
      <point x="413" y="65"/>
      <point x="413" y="101" type="curve" smooth="yes"/>
      <point x="413" y="639" type="line" smooth="yes"/>
      <point x="413" y="645"/>
      <point x="408" y="650"/>
      <point x="187" y="650" type="curve"/>
      <point x="187" y="11" type="line" smooth="yes"/>
      <point x="187" y="8"/>
      <point x="188" y="5"/>
      <point x="190" y="3" type="curve" smooth="yes"/>
      <point x="192" y="1"/>
      <point x="195" y="0"/>
      <point x="198" y="0" type="curve" smooth="yes"/>
      <point x="270" y="0"/>
      <point x="341" y="0"/>
    </contour>
    <contour>
      <point x="300" y="711" type="move" name="top"/>
    </contour>
    <contour>
      <point x="300" y="-1" type="move" name="bottom"/>
    </contour>
  </outline>
</glyph>
<glyph name="U" format="1">
  <advance width="600"/>
  <unicode hex="0055"/>
  <outline>
    <contour>
      <point x="35" y="700" type="curve"/>
      <point x="35" y="672"/>
      <point x="35" y="638"/>
      <point x="35" y="602" type="curve" smooth="yes"/>
      <point x="35" y="158" type="line"/>
      <point x="35" y="128"/>
      <point x="69" y="101"/>
      <point x="260" y="101" type="curve"/>
      <point x="260" y="144"/>
      <point x="260" y="187"/>
      <point x="260" y="230" type="curve" smooth="yes"/>
      <point x="260" y="689" type="line"/>
      <point x="260" y="695"/>
      <point x="255" y="700"/>
      <point x="249" y="700" type="curve"/>
      <point x="178" y="700"/>
      <point x="106" y="700"/>
    </contour>
    <contour>
      <point x="180" y="-10" type="curve" smooth="yes"/>
      <point x="252" y="-10"/>
      <point x="318" y="34"/>
      <point x="359" y="101" type="curve" smooth="yes"/>
      <point x="378" y="133"/>
      <point x="393" y="174"/>
      <point x="393" y="229" type="curve"/>
      <point x="339" y="204"/>
      <point x="305" y="200"/>
      <point x="283" y="200" type="curve" smooth="yes"/>
      <point x="268" y="200"/>
      <point x="260" y="208"/>
      <point x="260" y="230" type="curve"/>
      <point x="91" y="230"/>
      <point x="35" y="185"/>
      <point x="35" y="158" type="curve" smooth="yes"/>
      <point x="35" y="43"/>
      <point x="91" y="-10"/>
    </contour>
    <contour>
      <point x="565" y="0" type="curve"/>
      <point x="565" y="28"/>
      <point x="565" y="62"/>
      <point x="565" y="98" type="curve" smooth="yes"/>
      <point x="565" y="689" type="line" smooth="yes"/>
      <point x="565" y="695"/>
      <point x="560" y="700"/>
      <point x="554" y="700" type="curve" smooth="yes"/>
      <point x="501" y="700"/>
      <point x="394" y="700"/>
      <point x="340" y="700" type="curve"/>
      <point x="340" y="11" type="line" smooth="yes"/>
      <point x="340" y="8"/>
      <point x="341" y="5"/>
      <point x="343" y="3" type="curve" smooth="yes"/>
      <point x="345" y="1"/>
      <point x="348" y="0"/>
      <point x="351" y="0" type="curve" smooth="yes"/>
      <point x="400" y="0"/>
      <point x="506" y="0"/>
    </contour>
    <contour>
      <point x="300" y="711" type="move" name="top"/>
    </contour>
    <contour>
      <point x="566" y="0" type="move" name="ogonek"/>
    </contour>
    <contour>
      <point x="300" y="711" type="move" name="ring"/>
    </contour>
    <contour>
      <point x="300" y="-1" type="move" name="bottom"/>
    </contour>
  </outline>
</glyph>
<glyph name="W" format="1">
  <advance width="600"/>
  <unicode hex="0057"/>
  <outline>
    <contour>
      <point x="15" y="700" type="curve"/>
      <point x="30" y="468"/>
      <point x="46" y="239"/>
      <point x="61" y="15" type="curve"/>
      <point x="62" y="5"/>
      <point x="72" y="0"/>
      <point x="82" y="0" type="curve"/>
      <point x="141" y="0" type="line" smooth="yes"/>
      <point x="166" y="0"/>
      <point x="179" y="21"/>
      <point x="190" y="35" type="curve"/>
      <point x="190" y="243"/>
      <point x="190" y="460"/>
      <point x="190" y="682" type="curve"/>
      <point x="189" y="692"/>
      <point x="188" y="695"/>
      <point x="186" y="697" type="curve" smooth="yes"/>
      <point x="184" y="699"/>
      <point x="181" y="700"/>
      <point x="177" y="700" type="curve"/>
      <point x="123" y="700"/>
      <point x="69" y="700"/>
    </contour>
    <contour>
      <point x="410" y="700" type="curve"/>
      <point x="410" y="501"/>
      <point x="410" y="300"/>
      <point x="410" y="101" type="curve"/>
      <point x="404" y="39"/>
      <point x="395" y="19"/>
      <point x="384" y="0" type="curve"/>
      <point x="536" y="0" type="line"/>
      <point x="552" y="229"/>
      <point x="568" y="458"/>
      <point x="584" y="687" type="curve"/>
      <point x="585" y="693"/>
      <point x="584" y="695"/>
      <point x="582" y="697" type="curve" smooth="yes"/>
      <point x="580" y="699"/>
      <point x="579" y="700"/>
      <point x="575" y="700" type="curve"/>
      <point x="520" y="700"/>
      <point x="465" y="700"/>
    </contour>
    <contour>
      <point x="316" y="611" type="curve"/>
      <point x="252" y="611" type="line"/>
      <point x="228" y="441"/>
      <point x="203" y="271"/>
      <point x="179" y="101" type="curve"/>
      <point x="163" y="33"/>
      <point x="114" y="14"/>
      <point x="82" y="0" type="curve"/>
      <point x="265" y="0" type="line"/>
      <point x="286" y="197"/>
      <point x="308" y="395"/>
      <point x="329" y="592" type="curve"/>
      <point x="331" y="603"/>
      <point x="327" y="611"/>
    </contour>
    <contour>
      <point x="337" y="611" type="curve"/>
      <point x="265" y="611" type="line"/>
      <point x="288" y="413"/>
      <point x="311" y="213"/>
      <point x="334" y="15" type="curve"/>
      <point x="336" y="5"/>
      <point x="345" y="0"/>
      <point x="355" y="0" type="curve"/>
      <point x="402" y="0" type="line"/>
      <point x="414" y="0"/>
      <point x="430" y="10"/>
      <point x="434" y="24" type="curve"/>
      <point x="406" y="216"/>
      <point x="377" y="408"/>
      <point x="349" y="600" type="curve"/>
      <point x="348" y="607"/>
      <point x="343" y="611"/>
    </contour>
    <contour>
      <point x="299" y="711" type="move" name="top"/>
    </contour>
  </outline>
</glyph>
<glyph name="X" format="1">
  <advance width="600"/>
  <unicode hex="0058"/>
  <outline>
    <contour>
      <point x="367" y="0" type="curve" smooth="yes"/>
      <point x="441" y="0"/>
      <point x="516" y="0"/>
      <point x="590" y="0" type="curve"/>
      <point x="538" y="130"/>
      <point x="486" y="259"/>
      <point x="433" y="389" type="curve" smooth="yes"/>
      <point x="427" y="403"/>
      <point x="350" y="384"/>
      <point x="344" y="401" type="curve" smooth="yes"/>
      <point x="312" y="497"/>
      <point x="283" y="594"/>
      <point x="251" y="690" type="curve" smooth="yes"/>
      <point x="249" y="697"/>
      <point x="241" y="700"/>
      <point x="232" y="700" type="curve" smooth="yes"/>
      <point x="10" y="700" type="line"/>
      <point x="62" y="568"/>
      <point x="114" y="436"/>
      <point x="166" y="305" type="curve" smooth="yes"/>
      <point x="172" y="291"/>
      <point x="257" y="305"/>
      <point x="262" y="288" type="curve" smooth="yes"/>
      <point x="292" y="195"/>
      <point x="319" y="103"/>
      <point x="348" y="12" type="curve" smooth="yes"/>
      <point x="351" y="2"/>
      <point x="359" y="0"/>
    </contour>
    <contour>
      <point x="576" y="700" type="curve"/>
      <point x="365" y="700" type="line"/>
      <point x="335" y="590"/>
      <point x="306" y="481"/>
      <point x="276" y="371" type="curve"/>
      <point x="269" y="351"/>
      <point x="300" y="291"/>
      <point x="413" y="220" type="curve"/>
      <point x="470" y="374"/>
      <point x="528" y="527"/>
      <point x="585" y="681" type="curve"/>
      <point x="588" y="687"/>
      <point x="589" y="693"/>
      <point x="586" y="696" type="curve" smooth="yes"/>
      <point x="584" y="699"/>
      <point x="580" y="700"/>
    </contour>
    <contour>
      <point x="21" y="0" type="curve" smooth="yes"/>
      <point x="238" y="0" type="line"/>
      <point x="266" y="106"/>
      <point x="294" y="213"/>
      <point x="322" y="319" type="curve"/>
      <point x="331" y="344"/>
      <point x="293" y="395"/>
      <point x="182" y="457" type="curve"/>
      <point x="125" y="311"/>
      <point x="68" y="166"/>
      <point x="10" y="20" type="curve"/>
      <point x="8" y="14"/>
      <point x="8" y="7"/>
      <point x="12" y="3" type="curve" smooth="yes"/>
      <point x="14" y="1"/>
      <point x="17" y="0"/>
    </contour>
  </outline>
</glyph>
<glyph name="Y" format="1">
  <advance width="600"/>
  <unicode hex="0059"/>
  <outline>
    <contour>
      <point x="15" y="700" type="line"/>
      <point x="75" y="527"/>
      <point x="136" y="353"/>
      <point x="196" y="180" type="curve"/>
      <point x="199" y="170"/>
      <point x="207" y="165"/>
      <point x="217" y="165" type="curve"/>
      <point x="281" y="165"/>
      <point x="323" y="277"/>
      <point x="308" y="364" type="curve"/>
      <point x="288" y="472"/>
      <point x="268" y="579"/>
      <point x="248" y="687" type="curve"/>
      <point x="246" y="697"/>
      <point x="241" y="700"/>
      <point x="232" y="700" type="curve" smooth="yes"/>
    </contour>
    <contour>
      <point x="357" y="700" type="line"/>
      <point x="335" y="588"/>
      <point x="314" y="477"/>
      <point x="292" y="365" type="curve"/>
      <point x="263" y="264"/>
      <point x="238" y="191"/>
      <point x="217" y="165" type="curve"/>
      <point x="398" y="165" type="line"/>
      <point x="458" y="337"/>
      <point x="518" y="509"/>
      <point x="578" y="681" type="curve"/>
      <point x="581" y="691"/>
      <point x="576" y="700"/>
      <point x="565" y="700" type="curve"/>
    </contour>
    <contour>
      <point x="413" y="0" type="curve"/>
      <point x="413" y="31"/>
      <point x="413" y="65"/>
      <point x="413" y="101" type="curve" smooth="yes"/>
      <point x="413" y="289" type="line" smooth="yes"/>
      <point x="413" y="295"/>
      <point x="408" y="300"/>
      <point x="187" y="300" type="curve"/>
      <point x="187" y="11" type="line" smooth="yes"/>
      <point x="187" y="8"/>
      <point x="188" y="5"/>
      <point x="190" y="3" type="curve" smooth="yes"/>
      <point x="192" y="1"/>
      <point x="195" y="0"/>
      <point x="198" y="0" type="curve" smooth="yes"/>
      <point x="270" y="0"/>
      <point x="341" y="0"/>
    </contour>
    <contour>
      <point x="296" y="711" type="move" name="top"/>
    </contour>
  </outline>
</glyph>
<glyph name="Z" format="1">
  <advance width="600"/>
  <unicode hex="005A"/>
  <outline>
    <contour>
      <point x="95" y="700" type="line"/>
      <point x="95" y="637"/>
      <point x="95" y="574"/>
      <point x="95" y="511" type="curve" smooth="yes"/>
      <point x="95" y="508"/>
      <point x="96" y="505"/>
      <point x="98" y="503" type="curve" smooth="yes"/>
      <point x="100" y="501"/>
      <point x="103" y="500"/>
      <point x="106" y="500" type="curve" smooth="yes"/>
      <point x="365" y="500" type="line" smooth="yes"/>
      <point x="415" y="500"/>
      <point x="476" y="500"/>
      <point x="529" y="500" type="curve" smooth="yes"/>
      <point x="542" y="500"/>
      <point x="554" y="500"/>
      <point x="565" y="500" type="curve"/>
      <point x="565" y="689" type="line" smooth="yes"/>
      <point x="565" y="695"/>
      <point x="560" y="700"/>
      <point x="554" y="700" type="curve" smooth="yes"/>
    </contour>
    <contour>
      <point x="406" y="568" type="curve"/>
      <point x="281" y="442"/>
      <point x="155" y="316"/>
      <point x="30" y="190" type="curve"/>
      <point x="176" y="95"/>
      <point x="205" y="91"/>
      <point x="219" y="107" type="curve" smooth="yes"/>
      <point x="437" y="354"/>
      <point x="565" y="498"/>
      <point x="565" y="500" type="curve"/>
      <point x="438" y="579"/>
      <point x="420" y="586"/>
    </contour>
    <contour>
      <point x="570" y="0" type="line"/>
      <point x="570" y="68"/>
      <point x="570" y="136"/>
      <point x="570" y="204" type="curve" smooth="yes"/>
      <point x="570" y="207"/>
      <point x="569" y="210"/>
      <point x="567" y="212" type="curve" smooth="yes"/>
      <point x="565" y="214"/>
      <point x="562" y="215"/>
      <point x="559" y="215" type="curve" smooth="yes"/>
      <point x="239" y="215" type="line" smooth="yes"/>
      <point x="177" y="215"/>
      <point x="94" y="208"/>
      <point x="30" y="190" type="curve"/>
      <point x="30" y="11" type="line" smooth="yes"/>
      <point x="30" y="5"/>
      <point x="35" y="0"/>
      <point x="41" y="0" type="curve" smooth="yes"/>
    </contour>
    <contour>
      <point x="225" y="465" type="curve"/>
      <point x="225" y="543"/>
      <point x="225" y="611"/>
      <point x="225" y="689" type="curve"/>
      <point x="225" y="696"/>
      <point x="222" y="700"/>
      <point x="214" y="700" type="curve" smooth="yes"/>
      <point x="30" y="700" type="line"/>
      <point x="30" y="622"/>
      <point x="30" y="553"/>
      <point x="30" y="475" type="curve"/>
      <point x="30" y="469"/>
      <point x="35" y="465"/>
      <point x="41" y="465" type="curve" smooth="yes"/>
      <point x="102" y="465"/>
      <point x="164" y="465"/>
    </contour>
    <contour>
      <point x="300" y="711" type="move" name="top"/>
    </contour>
  </outline>
</glyph>
<glyph name="bracketright" format="1">
  <advance width="600"/>
  <unicode hex="005D"/>
  <outline>
    <contour>
      <point x="395" y="-5" type="curve" smooth="yes"/>
      <point x="395" y="534" type="line" smooth="yes"/>
      <point x="395" y="544"/>
      <point x="349" y="545"/>
      <point x="170" y="545" type="curve"/>
      <point x="170" y="-101" type="line" smooth="yes"/>
      <point x="170" y="-107"/>
      <point x="174" y="-112"/>
      <point x="201" y="-112" type="curve" smooth="yes"/>
      <point x="279" y="-112"/>
      <point x="318" y="-112"/>
      <point x="395" y="-112" type="curve"/>
      <point x="395" y="-76"/>
      <point x="395" y="-41"/>
    </contour>
    <contour>
      <point x="80" y="98" type="line"/>
      <point x="80" y="31"/>
      <point x="80" y="-34"/>
      <point x="80" y="-101" type="curve" smooth="yes"/>
      <point x="80" y="-104"/>
      <point x="81" y="-107"/>
      <point x="83" y="-109" type="curve" smooth="yes"/>
      <point x="85" y="-111"/>
      <point x="88" y="-112"/>
      <point x="91" y="-112" type="curve" smooth="yes"/>
      <point x="201" y="-112" type="line"/>
      <point x="201" y="85"/>
      <point x="195" y="98"/>
      <point x="190" y="98" type="curve"/>
    </contour>
    <contour>
      <point x="80" y="743" type="line"/>
      <point x="80" y="677"/>
      <point x="80" y="610"/>
      <point x="80" y="544" type="curve" smooth="yes"/>
      <point x="80" y="538"/>
      <point x="85" y="533"/>
      <point x="91" y="533" type="curve" smooth="yes"/>
      <point x="395" y="533" type="line"/>
      <point x="395" y="732" type="line" smooth="yes"/>
      <point x="395" y="738"/>
      <point x="390" y="743"/>
      <point x="384" y="743" type="curve" smooth="yes"/>
    </contour>
  </outline>
</glyph>
<glyph name="b" format="1">
  <advance width="600"/>
  <unicode hex="0062"/>
  <outline>
    <contour>
      <point x="35" y="0" type="line"/>
      <point x="60" y="0"/>
      <point x="125" y="0"/>
      <point x="150" y="0" type="curve" smooth="yes"/>
      <point x="153" y="0"/>
      <point x="260" y="110"/>
      <point x="260" y="114" type="curve" smooth="yes"/>
      <point x="260" y="739" type="line"/>
      <point x="260" y="745"/>
      <point x="255" y="750"/>
      <point x="249" y="750" type="curve" smooth="yes"/>
      <point x="201" y="750"/>
      <point x="83" y="750"/>
      <point x="35" y="750" type="curve"/>
      <point x="35" y="701"/>
      <point x="35" y="652"/>
      <point x="35" y="603" type="curve" smooth="yes"/>
    </contour>
    <contour>
      <point x="416" y="560" type="curve" smooth="yes"/>
      <point x="363" y="560"/>
      <point x="302" y="531"/>
      <point x="259" y="488" type="curve" smooth="yes"/>
      <point x="209" y="438"/>
      <point x="180" y="368"/>
      <point x="194" y="294" type="curve"/>
      <point x="242" y="349"/>
      <point x="268" y="367"/>
      <point x="303" y="367" type="curve" smooth="yes"/>
      <point x="333" y="367"/>
      <point x="347" y="352"/>
      <point x="347" y="317" type="curve"/>
      <point x="525" y="317"/>
      <point x="570" y="338"/>
      <point x="570" y="397" type="curve" smooth="yes"/>
      <point x="570" y="488"/>
      <point x="507" y="560"/>
    </contour>
    <contour>
      <point x="390" y="-10" type="curve" smooth="yes"/>
      <point x="499" y="-10"/>
      <point x="570" y="61"/>
      <point x="570" y="170" type="curve" smooth="yes"/>
      <point x="570" y="397" type="line" smooth="yes"/>
      <point x="570" y="470"/>
      <point x="478" y="489"/>
      <point x="405" y="489" type="curve"/>
      <point x="354" y="489"/>
      <point x="347" y="477"/>
      <point x="347" y="451" type="curve"/>
      <point x="347" y="422"/>
      <point x="347" y="389"/>
      <point x="347" y="317" type="curve" smooth="yes"/>
      <point x="347" y="220" type="line" smooth="yes"/>
      <point x="347" y="184"/>
      <point x="332" y="170"/>
      <point x="303" y="170" type="curve" smooth="yes"/>
      <point x="263" y="170"/>
      <point x="232" y="188"/>
      <point x="188" y="230" type="curve"/>
      <point x="181" y="207"/>
      <point x="183" y="163"/>
      <point x="183" y="150" type="curve" smooth="yes"/>
      <point x="183" y="105"/>
      <point x="268" y="-10"/>
    </contour>
  </outline>
</glyph>
<glyph name="d" format="1">
  <advance width="600"/>
  <unicode hex="0064"/>
  <outline>
    <contour>
      <point x="210" y="560" type="curve" smooth="yes"/>
      <point x="101" y="560"/>
      <point x="30" y="489"/>
      <point x="30" y="380" type="curve" smooth="yes"/>
      <point x="30" y="153" type="line" smooth="yes"/>
      <point x="30" y="80"/>
      <point x="97" y="61"/>
      <point x="150" y="61" type="curve" smooth="yes"/>
      <point x="211" y="61"/>
      <point x="253" y="73"/>
      <point x="253" y="100" type="curve"/>
      <point x="253" y="119"/>
      <point x="253" y="154"/>
      <point x="253" y="223" type="curve" smooth="yes"/>
      <point x="253" y="326" type="line" smooth="yes"/>
      <point x="253" y="365"/>
      <point x="268" y="380"/>
      <point x="297" y="380" type="curve" smooth="yes"/>
      <point x="341" y="380"/>
      <point x="365" y="365"/>
      <point x="412" y="320" type="curve"/>
      <point x="419" y="343"/>
      <point x="417" y="382"/>
      <point x="417" y="395" type="curve" smooth="yes"/>
      <point x="417" y="441"/>
      <point x="332" y="560"/>
    </contour>
    <contour>
      <point x="172" y="-10" type="curve" smooth="yes"/>
      <point x="233" y="-10"/>
      <point x="283" y="11"/>
      <point x="341" y="69" type="curve" smooth="yes"/>
      <point x="391" y="119"/>
      <point x="402" y="145"/>
      <point x="391" y="215" type="curve"/>
      <point x="366" y="194"/>
      <point x="349" y="184"/>
      <point x="297" y="184" type="curve" smooth="yes"/>
      <point x="265" y="184"/>
      <point x="253" y="195"/>
      <point x="253" y="223" type="curve"/>
      <point x="88" y="219"/>
      <point x="30" y="202"/>
      <point x="30" y="153" type="curve" smooth="yes"/>
      <point x="30" y="55"/>
      <point x="84" y="-10"/>
    </contour>
    <contour>
      <point x="340" y="750" type="curve"/>
      <point x="340" y="721"/>
      <point x="340" y="688"/>
      <point x="340" y="649" type="curve" smooth="yes"/>
      <point x="340" y="11" type="line"/>
      <point x="340" y="8"/>
      <point x="341" y="5"/>
      <point x="343" y="3" type="curve" smooth="yes"/>
      <point x="345" y="1"/>
      <point x="348" y="0"/>
      <point x="351" y="0" type="curve" smooth="yes"/>
      <point x="399" y="0"/>
      <point x="517" y="0"/>
      <point x="565" y="0" type="curve"/>
      <point x="565" y="34"/>
      <point x="565" y="69"/>
      <point x="565" y="103" type="curve" smooth="yes"/>
      <point x="565" y="739" type="line"/>
      <point x="565" y="742"/>
      <point x="564" y="745"/>
      <point x="562" y="747" type="curve" smooth="yes"/>
      <point x="560" y="749"/>
      <point x="557" y="750"/>
      <point x="554" y="750" type="curve" smooth="yes"/>
      <point x="506" y="750"/>
      <point x="388" y="750"/>
    </contour>
    <contour>
      <point x="447" y="711" type="move" name="caronslovak"/>
    </contour>
  </outline>
</glyph>
<glyph name="i" format="1">
  <advance width="600"/>
  <unicode hex="0069"/>
  <outline>
    <contour>
      <point x="30" y="550" type="curve"/>
      <point x="30" y="504"/>
      <point x="30" y="402"/>
      <point x="30" y="356" type="curve" smooth="yes"/>
      <point x="30" y="350"/>
      <point x="35" y="345"/>
      <point x="41" y="345" type="curve" smooth="yes"/>
      <point x="112" y="345"/>
      <point x="178" y="345"/>
      <point x="249" y="345" type="curve"/>
      <point x="249" y="504"/>
      <point x="234" y="550"/>
      <point x="199" y="550" type="curve" smooth="yes"/>
      <point x="140" y="550"/>
      <point x="89" y="550"/>
    </contour>
    <contour>
      <point x="426" y="547" type="curve" smooth="yes"/>
      <point x="424" y="549"/>
      <point x="421" y="550"/>
      <point x="418" y="550" type="curve" smooth="yes"/>
      <point x="199" y="550" type="line"/>
      <point x="199" y="176" type="line" smooth="yes"/>
      <point x="199" y="156"/>
      <point x="299" y="147"/>
      <point x="429" y="147" type="curve"/>
      <point x="429" y="539" type="line" smooth="yes"/>
      <point x="429" y="542"/>
      <point x="428" y="545"/>
    </contour>
    <contour>
      <point x="20" y="200" type="line"/>
      <point x="20" y="152"/>
      <point x="20" y="59"/>
      <point x="20" y="11" type="curve" smooth="yes"/>
      <point x="20" y="8"/>
      <point x="21" y="5"/>
      <point x="23" y="3" type="curve" smooth="yes"/>
      <point x="25" y="1"/>
      <point x="28" y="0"/>
      <point x="31" y="0" type="curve"/>
      <point x="580" y="0" type="line"/>
      <point x="580" y="48"/>
      <point x="580" y="141"/>
      <point x="580" y="189" type="curve" smooth="yes"/>
      <point x="580" y="195"/>
      <point x="575" y="200"/>
      <point x="569" y="200" type="curve"/>
    </contour>
    <contour>
      <point x="435" y="615" type="curve"/>
      <point x="435" y="789" type="line" smooth="yes"/>
      <point x="435" y="795"/>
      <point x="430" y="800"/>
      <point x="424" y="800" type="curve" smooth="yes"/>
      <point x="368" y="800"/>
      <point x="241" y="800"/>
      <point x="185" y="800" type="curve"/>
      <point x="185" y="626" type="line" smooth="yes"/>
      <point x="185" y="620"/>
      <point x="190" y="615"/>
      <point x="196" y="615" type="curve" smooth="yes"/>
      <point x="252" y="615"/>
      <point x="379" y="615"/>
    </contour>
    <contour>
      <point x="581" y="0" type="move" name="ogonek"/>
    </contour>
    <contour>
      <point x="300" y="-1" type="move" name="bottom"/>
    </contour>
  </outline>
</glyph>
<glyph name="j" format="1">
  <advance width="600"/>
  <unicode hex="006A"/>
  <outline>
    <contour>
      <point x="60" y="550" type="curve"/>
      <point x="60" y="504"/>
      <point x="60" y="392"/>
      <point x="60" y="346" type="curve" smooth="yes"/>
      <point x="60" y="340"/>
      <point x="65" y="335"/>
      <point x="71" y="335" type="curve" smooth="yes"/>
      <point x="203" y="335"/>
      <point x="313" y="335"/>
      <point x="445" y="335" type="curve"/>
      <point x="445" y="394"/>
      <point x="423" y="550"/>
      <point x="370" y="550" type="curve" smooth="yes"/>
      <point x="258" y="550"/>
      <point x="172" y="550"/>
    </contour>
    <contour>
      <point x="535" y="19" type="curve" smooth="yes"/>
      <point x="535" y="539" type="line" smooth="yes"/>
      <point x="535" y="542"/>
      <point x="534" y="545"/>
      <point x="532" y="547" type="curve" smooth="yes"/>
      <point x="530" y="549"/>
      <point x="527" y="550"/>
      <point x="524" y="550" type="curve" smooth="yes"/>
      <point x="315" y="550" type="line"/>
      <point x="315" y="39" type="line" smooth="yes"/>
      <point x="315" y="-39"/>
      <point x="315" y="-102"/>
      <point x="315" y="-180" type="curve"/>
      <point x="410" y="-222"/>
      <point x="535" y="-114"/>
    </contour>
    <contour>
      <point x="221" y="-35" type="curve" smooth="yes"/>
      <point x="152" y="-35"/>
      <point x="105" y="-27"/>
      <point x="50" y="-5" type="curve"/>
      <point x="30" y="-5" type="line"/>
      <point x="30" y="-68"/>
      <point x="30" y="-146"/>
      <point x="30" y="-209" type="curve" smooth="yes"/>
      <point x="30" y="-212"/>
      <point x="31" y="-215"/>
      <point x="33" y="-217" type="curve" smooth="yes"/>
      <point x="48" y="-232"/>
      <point x="125" y="-250"/>
      <point x="199" y="-250" type="curve" smooth="yes"/>
      <point x="430" y="-250"/>
      <point x="535" y="-167"/>
      <point x="535" y="19" type="curve" smooth="yes"/>
      <point x="535" y="27"/>
      <point x="518" y="39"/>
      <point x="315" y="39" type="curve"/>
      <point x="315" y="-18"/>
      <point x="279" y="-35"/>
    </contour>
    <contour>
      <point x="550" y="615" type="curve"/>
      <point x="550" y="789" type="line" smooth="yes"/>
      <point x="550" y="795"/>
      <point x="545" y="800"/>
      <point x="539" y="800" type="curve" smooth="yes"/>
      <point x="483" y="800"/>
      <point x="356" y="800"/>
      <point x="300" y="800" type="curve"/>
      <point x="300" y="626" type="line" smooth="yes"/>
      <point x="300" y="620"/>
      <point x="305" y="615"/>
      <point x="311" y="615" type="curve" smooth="yes"/>
      <point x="367" y="615"/>
      <point x="494" y="615"/>
    </contour>
  </outline>
</glyph>
<glyph name="l" format="1">
  <advance width="600"/>
  <unicode hex="006C"/>
  <outline>
    <contour>
      <point x="30" y="750" type="curve"/>
      <point x="30" y="704"/>
      <point x="30" y="592"/>
      <point x="30" y="546" type="curve" smooth="yes"/>
      <point x="30" y="540"/>
      <point x="35" y="535"/>
      <point x="41" y="535" type="curve" smooth="yes"/>
      <point x="112" y="535"/>
      <point x="178" y="535"/>
      <point x="249" y="535" type="curve"/>
      <point x="249" y="694"/>
      <point x="234" y="750"/>
      <point x="199" y="750" type="curve" smooth="yes"/>
      <point x="140" y="750"/>
      <point x="89" y="750"/>
    </contour>
    <contour>
      <point x="421" y="747" type="curve" smooth="yes"/>
      <point x="419" y="749"/>
      <point x="416" y="750"/>
      <point x="413" y="750" type="curve" smooth="yes"/>
      <point x="199" y="750" type="line"/>
      <point x="199" y="176" type="line" smooth="yes"/>
      <point x="199" y="156"/>
      <point x="294" y="147"/>
      <point x="424" y="147" type="curve"/>
      <point x="424" y="739" type="line" smooth="yes"/>
      <point x="424" y="742"/>
      <point x="423" y="745"/>
    </contour>
    <contour>
      <point x="20" y="210" type="line"/>
      <point x="20" y="162"/>
      <point x="20" y="59"/>
      <point x="20" y="11" type="curve" smooth="yes"/>
      <point x="20" y="8"/>
      <point x="21" y="5"/>
      <point x="23" y="3" type="curve" smooth="yes"/>
      <point x="25" y="1"/>
      <point x="28" y="0"/>
      <point x="31" y="0" type="curve"/>
      <point x="580" y="0" type="line"/>
      <point x="580" y="48"/>
      <point x="580" y="151"/>
      <point x="580" y="199" type="curve" smooth="yes"/>
      <point x="580" y="205"/>
      <point x="575" y="210"/>
      <point x="569" y="210" type="curve"/>
    </contour>
    <contour>
      <point x="530" y="671" type="move" name="caronslovak"/>
    </contour>
    <contour>
      <point x="300" y="730" type="move" name="top"/>
    </contour>
    <contour>
      <point x="450" y="400" type="move" name="dot"/>
    </contour>
    <contour>
      <point x="300" y="-1" type="move" name="bottom"/>
    </contour>
  </outline>
</glyph>
<glyph name="m" format="1">
  <advance width="600"/>
  <unicode hex="006D"/>
  <outline>
    <contour>
      <point x="180" y="0" type="curve"/>
      <point x="180" y="539" type="line" smooth="yes"/>
      <point x="180" y="542"/>
      <point x="179" y="545"/>
      <point x="177" y="547" type="curve" smooth="yes"/>
      <point x="175" y="549"/>
      <point x="172" y="550"/>
      <point x="169" y="550" type="curve" smooth="yes"/>
      <point x="135" y="550"/>
      <point x="61" y="550"/>
      <point x="20" y="550" type="curve"/>
      <point x="20" y="522"/>
      <point x="20" y="488"/>
      <point x="20" y="452" type="curve" smooth="yes"/>
      <point x="20" y="11" type="line" smooth="yes"/>
      <point x="20" y="5"/>
      <point x="25" y="0"/>
      <point x="31" y="0" type="curve" smooth="yes"/>
      <point x="68" y="0"/>
      <point x="143" y="0"/>
    </contour>
    <contour>
      <point x="282" y="560" type="curve" smooth="yes"/>
      <point x="229" y="560"/>
      <point x="191" y="509"/>
      <point x="151" y="445" type="curve" smooth="yes"/>
      <point x="138" y="424"/>
      <point x="134" y="391"/>
      <point x="134" y="349" type="curve"/>
      <point x="159" y="367"/>
      <point x="181" y="378"/>
      <point x="213" y="378" type="curve" smooth="yes"/>
      <point x="227" y="378"/>
      <point x="230" y="373"/>
      <point x="230" y="360" type="curve"/>
      <point x="324" y="359"/>
      <point x="370" y="395"/>
      <point x="370" y="445" type="curve" smooth="yes"/>
      <point x="370" y="523"/>
      <point x="336" y="560"/>
    </contour>
    <contour>
      <point x="370" y="0" type="curve"/>
      <point x="370" y="445" type="line" smooth="yes"/>
      <point x="370" y="468"/>
      <point x="331" y="488"/>
      <point x="230" y="488" type="curve"/>
      <point x="230" y="445"/>
      <point x="230" y="403"/>
      <point x="230" y="360" type="curve" smooth="yes"/>
      <point x="230" y="11" type="line" smooth="yes"/>
      <point x="230" y="5"/>
      <point x="235" y="0"/>
      <point x="241" y="0" type="curve" smooth="yes"/>
      <point x="284" y="0"/>
      <point x="327" y="0"/>
    </contour>
    <contour>
      <point x="482" y="560" type="curve" smooth="yes"/>
      <point x="424" y="560"/>
      <point x="380" y="511"/>
      <point x="339" y="445" type="curve" smooth="yes"/>
      <point x="328" y="427"/>
      <point x="325" y="391"/>
      <point x="325" y="349" type="curve"/>
      <point x="350" y="367"/>
      <point x="371" y="378"/>
      <point x="403" y="378" type="curve" smooth="yes"/>
      <point x="414" y="378"/>
      <point x="420" y="372"/>
      <point x="420" y="361" type="curve"/>
      <point x="529" y="361"/>
      <point x="580" y="405"/>
      <point x="580" y="445" type="curve" smooth="yes"/>
      <point x="580" y="523"/>
      <point x="542" y="560"/>
    </contour>
    <contour>
      <point x="580" y="0" type="curve"/>
      <point x="580" y="28"/>
      <point x="580" y="62"/>
      <point x="580" y="98" type="curve" smooth="yes"/>
      <point x="580" y="445" type="line" smooth="yes"/>
      <point x="580" y="468"/>
      <point x="535" y="488"/>
      <point x="420" y="488" type="curve"/>
      <point x="420" y="445"/>
      <point x="420" y="404"/>
      <point x="420" y="361" type="curve" smooth="yes"/>
      <point x="420" y="11" type="line" smooth="yes"/>
      <point x="420" y="5"/>
      <point x="425" y="0"/>
      <point x="431" y="0" type="curve" smooth="yes"/>
      <point x="481" y="0"/>
      <point x="530" y="0"/>
    </contour>
  </outline>
</glyph>
<glyph name="n" format="1">
  <advance width="600"/>
  <unicode hex="006E"/>
  <outline>
    <contour>
      <point x="260" y="0" type="curve"/>
      <point x="260" y="539" type="line" smooth="yes"/>
      <point x="260" y="542"/>
      <point x="259" y="545"/>
      <point x="257" y="547" type="curve" smooth="yes"/>
      <point x="255" y="549"/>
      <point x="252" y="550"/>
      <point x="249" y="550" type="curve" smooth="yes"/>
      <point x="200" y="550"/>
      <point x="94" y="550"/>
      <point x="35" y="550" type="curve"/>
      <point x="35" y="522"/>
      <point x="35" y="488"/>
      <point x="35" y="452" type="curve" smooth="yes"/>
      <point x="35" y="11" type="line" smooth="yes"/>
      <point x="35" y="5"/>
      <point x="40" y="0"/>
      <point x="46" y="0" type="curve" smooth="yes"/>
      <point x="99" y="0"/>
      <point x="206" y="0"/>
    </contour>
    <contour>
      <point x="422" y="560" type="curve" smooth="yes"/>
      <point x="342" y="560"/>
      <point x="280" y="499"/>
      <point x="240" y="438" type="curve" smooth="yes"/>
      <point x="222" y="409"/>
      <point x="207" y="376"/>
      <point x="207" y="321" type="curve"/>
      <point x="254" y="343"/>
      <point x="280" y="350"/>
      <point x="313" y="350" type="curve" smooth="yes"/>
      <point x="332" y="350"/>
      <point x="340" y="340"/>
      <point x="340" y="322" type="curve"/>
      <point x="548" y="355"/>
      <point x="565" y="367"/>
      <point x="565" y="392" type="curve" smooth="yes"/>
      <point x="565" y="507"/>
      <point x="509" y="560"/>
    </contour>
    <contour>
      <point x="565" y="0" type="curve"/>
      <point x="565" y="28"/>
      <point x="565" y="62"/>
      <point x="565" y="98" type="curve" smooth="yes"/>
      <point x="565" y="392" type="line"/>
      <point x="565" y="414"/>
      <point x="551" y="421"/>
      <point x="325" y="384" type="curve"/>
      <point x="338" y="361"/>
      <point x="340" y="348"/>
      <point x="340" y="322" type="curve" smooth="yes"/>
      <point x="340" y="11" type="line" smooth="yes"/>
      <point x="340" y="5"/>
      <point x="345" y="0"/>
      <point x="351" y="0" type="curve" smooth="yes"/>
      <point x="422" y="0"/>
      <point x="494" y="0"/>
    </contour>
    <contour>
      <point x="105" y="711" type="move" name="caronslovak"/>
    </contour>
    <contour>
      <point x="300" y="561" type="move" name="top"/>
    </contour>
    <contour>
      <point x="300" y="-1" type="move" name="bottom"/>
    </contour>
  </outline>
</glyph>
<glyph name="p" format="1">
  <advance width="600"/>
  <unicode hex="0070"/>
  <outline>
    <contour>
      <point x="260" y="-200" type="curve"/>
      <point x="260" y="539" type="line" smooth="yes"/>
      <point x="260" y="542"/>
      <point x="259" y="545"/>
      <point x="257" y="547" type="curve" smooth="yes"/>
      <point x="255" y="549"/>
      <point x="252" y="550"/>
      <point x="249" y="550" type="curve"/>
      <point x="197" y="550"/>
      <point x="87" y="550"/>
      <point x="35" y="550" type="curve"/>
      <point x="35" y="521"/>
      <point x="35" y="488"/>
      <point x="35" y="449" type="curve" smooth="yes"/>
      <point x="35" y="-189" type="line" smooth="yes"/>
      <point x="35" y="-195"/>
      <point x="40" y="-200"/>
      <point x="46" y="-200" type="curve"/>
      <point x="98" y="-200"/>
      <point x="208" y="-200"/>
    </contour>
    <contour>
      <point x="416" y="560" type="curve" smooth="yes"/>
      <point x="363" y="560"/>
      <point x="304" y="529"/>
      <point x="261" y="486" type="curve" smooth="yes"/>
      <point x="211" y="436"/>
      <point x="180" y="368"/>
      <point x="194" y="294" type="curve"/>
      <point x="242" y="349"/>
      <point x="268" y="367"/>
      <point x="303" y="367" type="curve" smooth="yes"/>
      <point x="333" y="367"/>
      <point x="347" y="352"/>
      <point x="347" y="317" type="curve"/>
      <point x="525" y="317"/>
      <point x="570" y="338"/>
      <point x="570" y="397" type="curve" smooth="yes"/>
      <point x="570" y="488"/>
      <point x="507" y="560"/>
    </contour>
    <contour>
      <point x="390" y="-10" type="curve" smooth="yes"/>
      <point x="499" y="-10"/>
      <point x="570" y="61"/>
      <point x="570" y="170" type="curve" smooth="yes"/>
      <point x="570" y="397" type="line" smooth="yes"/>
      <point x="570" y="470"/>
      <point x="478" y="489"/>
      <point x="405" y="489" type="curve" smooth="yes"/>
      <point x="354" y="489"/>
      <point x="347" y="477"/>
      <point x="347" y="451" type="curve"/>
      <point x="347" y="422"/>
      <point x="347" y="389"/>
      <point x="347" y="317" type="curve" smooth="yes"/>
      <point x="347" y="220" type="line" smooth="yes"/>
      <point x="347" y="184"/>
      <point x="332" y="170"/>
      <point x="303" y="170" type="curve" smooth="yes"/>
      <point x="263" y="170"/>
      <point x="232" y="188"/>
      <point x="188" y="230" type="curve"/>
      <point x="181" y="207"/>
      <point x="183" y="163"/>
      <point x="183" y="150" type="curve" smooth="yes"/>
      <point x="183" y="105"/>
      <point x="268" y="-10"/>
    </contour>
  </outline>
</glyph>
<glyph name="r" format="1">
  <advance width="600"/>
  <unicode hex="0072"/>
  <outline>
    <contour>
      <point x="20" y="550" type="curve"/>
      <point x="20" y="504"/>
      <point x="20" y="407"/>
      <point x="20" y="361" type="curve" smooth="yes"/>
      <point x="20" y="355"/>
      <point x="25" y="350"/>
      <point x="31" y="350" type="curve" smooth="yes"/>
      <point x="114" y="350"/>
      <point x="207" y="350"/>
      <point x="290" y="350" type="curve"/>
      <point x="290" y="493"/>
      <point x="260" y="550"/>
      <point x="248" y="550" type="curve" smooth="yes"/>
      <point x="164" y="550"/>
      <point x="105" y="550"/>
    </contour>
    <contour>
      <point x="355" y="50" type="curve"/>
      <point x="355" y="427" type="line" smooth="yes"/>
      <point x="355" y="458"/>
      <point x="272" y="550"/>
      <point x="248" y="550" type="curve" smooth="yes"/>
      <point x="229" y="550"/>
      <point x="193" y="543"/>
      <point x="130" y="530" type="curve"/>
      <point x="130" y="63" type="line" smooth="yes"/>
      <point x="130" y="52"/>
      <point x="150" y="50"/>
    </contour>
    <contour>
      <point x="20" y="200" type="line"/>
      <point x="20" y="154"/>
      <point x="20" y="57"/>
      <point x="20" y="11" type="curve" smooth="yes"/>
      <point x="20" y="8"/>
      <point x="21" y="5"/>
      <point x="23" y="3" type="curve" smooth="yes"/>
      <point x="25" y="1"/>
      <point x="28" y="0"/>
      <point x="31" y="0" type="curve"/>
      <point x="550" y="0" type="line"/>
      <point x="550" y="46"/>
      <point x="550" y="143"/>
      <point x="550" y="189" type="curve" smooth="yes"/>
      <point x="550" y="195"/>
      <point x="545" y="200"/>
      <point x="539" y="200" type="curve"/>
    </contour>
    <contour>
      <point x="299" y="285" type="curve"/>
      <point x="362" y="312"/>
      <point x="400" y="322"/>
      <point x="448" y="322" type="curve" smooth="yes"/>
      <point x="482" y="322"/>
      <point x="516" y="318"/>
      <point x="550" y="307" type="curve"/>
      <point x="570" y="307" type="line"/>
      <point x="570" y="384"/>
      <point x="570" y="472"/>
      <point x="570" y="549" type="curve"/>
      <point x="570" y="556"/>
      <point x="566" y="560"/>
      <point x="559" y="560" type="curve" smooth="yes"/>
      <point x="541" y="560" type="line" smooth="yes"/>
      <point x="451" y="560"/>
      <point x="399" y="531"/>
      <point x="341" y="458" type="curve" smooth="yes"/>
      <point x="307" y="416"/>
      <point x="299" y="375"/>
    </contour>
    <contour>
      <point x="295" y="561" type="move" name="top"/>
    </contour>
    <contour>
      <point x="295" y="-1" type="move" name="bottom"/>
    </contour>
  </outline>
</glyph>
<glyph name="s" format="1">
  <advance width="600"/>
  <unicode hex="0073"/>
  <outline>
    <contour>
      <point x="340" y="562" type="curve" smooth="yes"/>
      <point x="321" y="562" type="line" smooth="yes"/>
      <point x="148" y="562"/>
      <point x="35" y="494"/>
      <point x="35" y="382" type="curve" smooth="yes"/>
      <point x="35" y="331"/>
      <point x="120" y="298"/>
      <point x="233" y="298" type="curve"/>
      <point x="233" y="310"/>
      <point x="233" y="347"/>
      <point x="233" y="362" type="curve" smooth="yes"/>
      <point x="233" y="378"/>
      <point x="255" y="384"/>
      <point x="318" y="384" type="curve" smooth="yes"/>
      <point x="403" y="384"/>
      <point x="454" y="375"/>
      <point x="530" y="356" type="curve"/>
      <point x="550" y="356" type="line"/>
      <point x="550" y="420"/>
      <point x="550" y="467"/>
      <point x="550" y="524" type="curve"/>
      <point x="550" y="529"/>
      <point x="549" y="532"/>
      <point x="547" y="534" type="curve" smooth="yes"/>
      <point x="536" y="545"/>
      <point x="456" y="562"/>
    </contour>
    <contour>
      <point x="387" y="325" type="curve" smooth="yes"/>
      <point x="283" y="338" type="line" smooth="yes"/>
      <point x="250" y="342"/>
      <point x="233" y="345"/>
      <point x="233" y="362" type="curve" smooth="yes"/>
      <point x="233" y="390"/>
      <point x="233" y="417"/>
      <point x="233" y="454" type="curve"/>
      <point x="119" y="454"/>
      <point x="35" y="421"/>
      <point x="35" y="382" type="curve"/>
      <point x="35" y="285"/>
      <point x="87" y="245"/>
      <point x="237" y="224" type="curve" smooth="yes"/>
      <point x="339" y="210" type="line" smooth="yes"/>
      <point x="377" y="205"/>
      <point x="388" y="199"/>
      <point x="388" y="190" type="curve" smooth="yes"/>
      <point x="388" y="156"/>
      <point x="388" y="120"/>
      <point x="388" y="79" type="curve"/>
      <point x="506" y="81"/>
      <point x="580" y="115"/>
      <point x="580" y="166" type="curve" smooth="yes"/>
      <point x="580" y="257"/>
      <point x="526" y="308"/>
    </contour>
    <contour>
      <point x="295" y="166" type="curve" smooth="yes"/>
      <point x="191" y="166"/>
      <point x="118" y="176"/>
      <point x="50" y="201" type="curve"/>
      <point x="30" y="201" type="line"/>
      <point x="30" y="145"/>
      <point x="30" y="95"/>
      <point x="30" y="28" type="curve" smooth="yes"/>
      <point x="30" y="25"/>
      <point x="30" y="23"/>
      <point x="32" y="21" type="curve" smooth="yes"/>
      <point x="44" y="9"/>
      <point x="169" y="-12"/>
      <point x="270" y="-12" type="curve" smooth="yes"/>
      <point x="291" y="-12" type="line" smooth="yes"/>
      <point x="477" y="-12"/>
      <point x="580" y="49"/>
      <point x="580" y="166" type="curve" smooth="yes"/>
      <point x="580" y="246"/>
      <point x="492" y="275"/>
      <point x="388" y="275" type="curve"/>
      <point x="388" y="246"/>
      <point x="388" y="209"/>
      <point x="388" y="190" type="curve" smooth="yes"/>
      <point x="388" y="178"/>
      <point x="371" y="166"/>
    </contour>
    <contour>
      <point x="305" y="561" type="move" name="top"/>
    </contour>
    <contour>
      <point x="303" y="-1" type="move" name="bottom"/>
    </contour>
  </outline>
</glyph>
<glyph name="v" format="1">
  <advance width="600"/>
  <unicode hex="0076"/>
  <outline>
    <contour>
      <point x="571" y="550" type="curve" smooth="yes"/>
      <point x="366" y="550" type="line"/>
      <point x="343" y="400"/>
      <point x="319" y="251"/>
      <point x="296" y="101" type="curve"/>
      <point x="286" y="42"/>
      <point x="246" y="16"/>
      <point x="206" y="0" type="curve"/>
      <point x="461" y="0" type="line"/>
      <point x="502" y="177"/>
      <point x="542" y="354"/>
      <point x="584" y="531" type="curve"/>
      <point x="586" y="541"/>
      <point x="582" y="550"/>
    </contour>
    <contour>
      <point x="220" y="550" type="curve" smooth="yes"/>
      <point x="12" y="550" type="line"/>
      <point x="53" y="372"/>
      <point x="94" y="193"/>
      <point x="135" y="15" type="curve"/>
      <point x="137" y="5"/>
      <point x="146" y="0"/>
      <point x="156" y="0" type="curve" smooth="yes"/>
      <point x="236" y="0" type="line" smooth="yes"/>
      <point x="314" y="0"/>
      <point x="397" y="100"/>
      <point x="397" y="186" type="curve"/>
      <point x="359" y="186"/>
      <point x="329" y="186"/>
      <point x="301" y="186" type="curve" smooth="yes"/>
      <point x="294" y="186"/>
      <point x="290" y="190"/>
      <point x="288" y="198" type="curve"/>
      <point x="271" y="310"/>
      <point x="255" y="421"/>
      <point x="237" y="533" type="curve"/>
      <point x="235" y="544"/>
      <point x="229" y="550"/>
    </contour>
  </outline>
</glyph>
<glyph name="w" format="1">
  <advance width="600"/>
  <unicode hex="0077"/>
  <outline>
    <contour>
      <point x="16" y="550" type="curve"/>
      <point x="34" y="372"/>
      <point x="51" y="193"/>
      <point x="69" y="15" type="curve" smooth="yes"/>
      <point x="70" y="5"/>
      <point x="80" y="0"/>
      <point x="90" y="0" type="curve" smooth="yes"/>
      <point x="143" y="0" type="line" smooth="yes"/>
      <point x="176" y="0"/>
      <point x="196" y="11"/>
      <point x="211" y="33" type="curve" smooth="yes"/>
      <point x="203" y="199"/>
      <point x="195" y="366"/>
      <point x="188" y="532" type="curve"/>
      <point x="188" y="542"/>
      <point x="186" y="545"/>
      <point x="184" y="547" type="curve" smooth="yes"/>
      <point x="182" y="549"/>
      <point x="179" y="550"/>
      <point x="175" y="550" type="curve"/>
      <point x="119" y="550"/>
      <point x="67" y="550"/>
    </contour>
    <contour>
      <point x="326" y="470" type="curve" smooth="yes"/>
      <point x="254" y="470" type="line"/>
      <point x="232" y="347"/>
      <point x="211" y="224"/>
      <point x="189" y="101" type="curve"/>
      <point x="176" y="32"/>
      <point x="130" y="13"/>
      <point x="90" y="0" type="curve"/>
      <point x="263" y="0" type="line"/>
      <point x="288" y="150"/>
      <point x="314" y="301"/>
      <point x="339" y="451" type="curve" smooth="yes"/>
      <point x="341" y="462"/>
      <point x="337" y="470"/>
    </contour>
    <contour>
      <point x="335" y="470" type="curve" smooth="yes"/>
      <point x="257" y="470" type="line"/>
      <point x="283" y="318"/>
      <point x="308" y="167"/>
      <point x="334" y="15" type="curve" smooth="yes"/>
      <point x="336" y="5"/>
      <point x="345" y="0"/>
      <point x="355" y="0" type="curve" smooth="yes"/>
      <point x="399" y="0" type="line" smooth="yes"/>
      <point x="412" y="0"/>
      <point x="423" y="10"/>
      <point x="427" y="24" type="curve" smooth="yes"/>
      <point x="400" y="169"/>
      <point x="374" y="314"/>
      <point x="347" y="459" type="curve" smooth="yes"/>
      <point x="346" y="466"/>
      <point x="341" y="470"/>
    </contour>
    <contour>
      <point x="414" y="550" type="curve"/>
      <point x="407" y="400"/>
      <point x="400" y="251"/>
      <point x="393" y="101" type="curve"/>
      <point x="388" y="39"/>
      <point x="385" y="19"/>
      <point x="376" y="0" type="curve"/>
      <point x="529" y="0" type="line"/>
      <point x="547" y="179"/>
      <point x="565" y="358"/>
      <point x="583" y="537" type="curve"/>
      <point x="584" y="543"/>
      <point x="583" y="545"/>
      <point x="581" y="547" type="curve" smooth="yes"/>
      <point x="579" y="549"/>
      <point x="578" y="550"/>
      <point x="574" y="550" type="curve"/>
      <point x="520" y="550"/>
      <point x="467" y="550"/>
    </contour>
    <contour>
      <point x="299" y="561" type="move" name="top"/>
    </contour>
  </outline>
</glyph>
<glyph name="x" format="1">
  <advance width="600"/>
  <unicode hex="0078"/>
  <outline>
    <contour>
      <point x="358" y="0" type="curve" smooth="yes"/>
      <point x="411" y="0"/>
      <point x="535" y="0"/>
      <point x="588" y="0" type="curve"/>
      <point x="531" y="105"/>
      <point x="474" y="212"/>
      <point x="416" y="316" type="curve" smooth="yes"/>
      <point x="405" y="336"/>
      <point x="363" y="336"/>
      <point x="352" y="359" type="curve" smooth="yes"/>
      <point x="323" y="419"/>
      <point x="296" y="479"/>
      <point x="266" y="539" type="curve" smooth="yes"/>
      <point x="262" y="547"/>
      <point x="255" y="550"/>
      <point x="246" y="550" type="curve" smooth="yes"/>
      <point x="170" y="550"/>
      <point x="93" y="550"/>
      <point x="17" y="550" type="curve"/>
      <point x="73" y="447"/>
      <point x="129" y="344"/>
      <point x="185" y="241" type="curve" smooth="yes"/>
      <point x="198" y="217"/>
      <point x="241" y="215"/>
      <point x="253" y="191" type="curve" smooth="yes"/>
      <point x="282" y="131"/>
      <point x="309" y="70"/>
      <point x="339" y="10" type="curve" smooth="yes"/>
      <point x="343" y="2"/>
      <point x="350" y="0"/>
    </contour>
    <contour>
      <point x="574" y="550" type="curve" smooth="yes"/>
      <point x="379" y="550" type="line"/>
      <point x="351" y="476"/>
      <point x="324" y="403"/>
      <point x="296" y="329" type="curve" smooth="yes"/>
      <point x="285" y="306"/>
      <point x="189" y="344"/>
      <point x="178" y="323" type="curve" smooth="yes"/>
      <point x="125" y="224"/>
      <point x="71" y="126"/>
      <point x="18" y="27" type="curve" smooth="yes"/>
      <point x="14" y="19"/>
      <point x="13" y="15"/>
      <point x="13" y="11" type="curve" smooth="yes"/>
      <point x="13" y="4"/>
      <point x="17" y="0"/>
      <point x="25" y="0" type="curve" smooth="yes"/>
      <point x="228" y="0" type="line"/>
      <point x="255" y="73"/>
      <point x="283" y="147"/>
      <point x="310" y="220" type="curve" smooth="yes"/>
      <point x="321" y="247"/>
      <point x="420" y="204"/>
      <point x="430" y="225" type="curve" smooth="yes"/>
      <point x="481" y="326"/>
      <point x="532" y="427"/>
      <point x="583" y="528" type="curve" smooth="yes"/>
      <point x="588" y="538"/>
      <point x="588" y="544"/>
      <point x="585" y="547" type="curve" smooth="yes"/>
      <point x="582" y="550"/>
      <point x="578" y="550"/>
    </contour>
  </outline>
</glyph>
<glyph name="y" format="1">
  <advance width="600"/>
  <unicode hex="0079"/>
  <outline>
    <contour>
      <point x="572" y="550" type="curve" smooth="yes"/>
      <point x="521" y="550"/>
      <point x="413" y="550"/>
      <point x="369" y="550" type="curve"/>
      <point x="341" y="356"/>
      <point x="298" y="70"/>
      <point x="284" y="-21" type="curve" smooth="yes"/>
      <point x="281" y="-44"/>
      <point x="273" y="-50"/>
      <point x="248" y="-50" type="curve" smooth="yes"/>
      <point x="72" y="-50" type="line"/>
      <point x="72" y="-239" type="line" smooth="yes"/>
      <point x="72" y="-246"/>
      <point x="76" y="-250"/>
      <point x="83" y="-250" type="curve" smooth="yes"/>
      <point x="274" y="-250" type="line" smooth="yes"/>
      <point x="387" y="-250"/>
      <point x="456" y="-182"/>
      <point x="477" y="-66" type="curve" smooth="yes"/>
      <point x="519" y="159"/>
      <point x="551" y="346"/>
      <point x="582" y="534" type="curve" smooth="yes"/>
      <point x="584" y="544"/>
      <point x="579" y="550"/>
    </contour>
    <contour>
      <point x="229" y="550" type="curve" smooth="yes"/>
      <point x="173" y="550"/>
      <point x="57" y="550"/>
      <point x="11" y="550" type="curve"/>
      <point x="48" y="368"/>
      <point x="117" y="32"/>
      <point x="120" y="21" type="curve" smooth="yes"/>
      <point x="122" y="14"/>
      <point x="127" y="10"/>
      <point x="135" y="10" type="curve" smooth="yes"/>
      <point x="336" y="10" type="line" smooth="yes"/>
      <point x="362" y="10"/>
      <point x="388" y="90"/>
      <point x="390" y="186" type="curve"/>
      <point x="307" y="186" type="line"/>
      <point x="303" y="186"/>
      <point x="299" y="189"/>
      <point x="298" y="194" type="curve" smooth="yes"/>
      <point x="295" y="208"/>
      <point x="262" y="433"/>
      <point x="246" y="535" type="curve" smooth="yes"/>
      <point x="245" y="543"/>
      <point x="238" y="550"/>
    </contour>
    <contour>
      <point x="296" y="561" type="move" name="top"/>
    </contour>
  </outline>
</glyph>
<glyph name="z" format="1">
  <advance width="600"/>
  <unicode hex="007A"/>
  <outline>
    <contour>
      <point x="30" y="550" type="line"/>
      <point x="30" y="482"/>
      <point x="30" y="414"/>
      <point x="30" y="346" type="curve" smooth="yes"/>
      <point x="30" y="343"/>
      <point x="31" y="340"/>
      <point x="33" y="338" type="curve" smooth="yes"/>
      <point x="35" y="336"/>
      <point x="38" y="335"/>
      <point x="41" y="335" type="curve" smooth="yes"/>
      <point x="335" y="335" type="line" smooth="yes"/>
      <point x="448" y="335"/>
      <point x="501" y="341"/>
      <point x="570" y="360" type="curve"/>
      <point x="570" y="539" type="line" smooth="yes"/>
      <point x="570" y="542"/>
      <point x="569" y="545"/>
      <point x="567" y="547" type="curve" smooth="yes"/>
      <point x="565" y="549"/>
      <point x="562" y="550"/>
      <point x="559" y="550" type="curve" smooth="yes"/>
    </contour>
    <contour>
      <point x="410" y="426" type="curve"/>
      <point x="283" y="344"/>
      <point x="157" y="262"/>
      <point x="30" y="180" type="curve"/>
      <point x="30" y="133"/>
      <point x="63" y="127"/>
      <point x="196" y="127" type="curve" smooth="yes"/>
      <point x="482" y="303"/>
      <point x="570" y="357"/>
      <point x="570" y="360" type="curve"/>
      <point x="570" y="409"/>
      <point x="527" y="426"/>
    </contour>
    <contour>
      <point x="570" y="0" type="line"/>
      <point x="570" y="68"/>
      <point x="570" y="136"/>
      <point x="570" y="204" type="curve"/>
      <point x="570" y="210"/>
      <point x="565" y="215"/>
      <point x="559" y="215" type="curve" smooth="yes"/>
      <point x="269" y="215" type="line" smooth="yes"/>
      <point x="156" y="215"/>
      <point x="105" y="208"/>
      <point x="30" y="180" type="curve"/>
      <point x="30" y="11" type="line" smooth="yes"/>
      <point x="30" y="8"/>
      <point x="31" y="5"/>
      <point x="33" y="3" type="curve" smooth="yes"/>
      <point x="35" y="1"/>
      <point x="38" y="0"/>
      <point x="41" y="0" type="curve" smooth="yes"/>
    </contour>
    <contour>
      <point x="300" y="561" type="move" name="top"/>
    </contour>
  </outline>
</glyph>
<glyph name="braceleft" format="1">
  <advance width="600"/>
  <unicode hex="007B"/>
  <outline>
    <contour>
      <point x="430" y="577" type="curve" smooth="yes"/>
      <point x="460" y="577"/>
      <point x="500" y="577"/>
      <point x="530" y="577" type="curve"/>
      <point x="550" y="577" type="line"/>
      <point x="550" y="637"/>
      <point x="550" y="689"/>
      <point x="550" y="749" type="curve"/>
      <point x="550" y="756"/>
      <point x="546" y="760"/>
      <point x="539" y="760" type="curve" smooth="yes"/>
      <point x="319" y="760" type="line" smooth="yes"/>
      <point x="242" y="760"/>
      <point x="199" y="717"/>
      <point x="199" y="640" type="curve" smooth="yes"/>
      <point x="199" y="630" type="line" smooth="yes"/>
      <point x="199" y="581"/>
      <point x="278" y="577"/>
      <point x="291" y="577" type="curve"/>
      <point x="328" y="577"/>
      <point x="393" y="577"/>
    </contour>
    <contour>
      <point x="434" y="425" type="curve" smooth="yes"/>
      <point x="434" y="496"/>
      <point x="402" y="520"/>
      <point x="402" y="577" type="curve" smooth="yes"/>
      <point x="402" y="601"/>
      <point x="402" y="657"/>
      <point x="402" y="653" type="curve"/>
      <point x="210" y="653"/>
      <point x="199" y="647"/>
      <point x="199" y="630" type="curve" smooth="yes"/>
      <point x="199" y="622" type="line" smooth="yes"/>
      <point x="199" y="539"/>
      <point x="238" y="504"/>
      <point x="238" y="450" type="curve" smooth="yes"/>
      <point x="238" y="418"/>
      <point x="207" y="400"/>
      <point x="156" y="400" type="curve" smooth="yes"/>
      <point x="66" y="400" type="line"/>
      <point x="66" y="284" type="line" smooth="yes"/>
      <point x="66" y="276"/>
      <point x="70" y="273"/>
      <point x="77" y="273" type="curve" smooth="yes"/>
      <point x="148" y="273" type="line" smooth="yes"/>
      <point x="271" y="273"/>
      <point x="434" y="308"/>
    </contour>
    <contour>
      <point x="434" y="175" type="curve" smooth="yes"/>
      <point x="434" y="290"/>
      <point x="272" y="327"/>
      <point x="148" y="327" type="curve" smooth="yes"/>
      <point x="121" y="327"/>
      <point x="93" y="327"/>
      <point x="66" y="327" type="curve"/>
      <point x="66" y="211" type="line" smooth="yes"/>
      <point x="66" y="203"/>
      <point x="70" y="200"/>
      <point x="77" y="200" type="curve" smooth="yes"/>
      <point x="155" y="200" type="line" smooth="yes"/>
      <point x="207" y="200"/>
      <point x="238" y="177"/>
      <point x="238" y="149" type="curve" smooth="yes"/>
      <point x="238" y="90"/>
      <point x="199" y="64"/>
      <point x="199" y="-26" type="curve" smooth="yes"/>
      <point x="199" y="-30" type="line" smooth="yes"/>
      <point x="199" y="-54"/>
      <point x="215" y="-54"/>
      <point x="402" y="-54" type="curve"/>
      <point x="402" y="-18"/>
      <point x="402" y="16"/>
      <point x="402" y="22" type="curve" smooth="yes"/>
      <point x="402" y="78"/>
      <point x="434" y="107"/>
    </contour>
    <contour>
      <point x="430" y="22" type="curve" smooth="yes"/>
      <point x="393" y="22"/>
      <point x="328" y="22"/>
      <point x="291" y="22" type="curve"/>
      <point x="253" y="22"/>
      <point x="199" y="16"/>
      <point x="199" y="-30" type="curve" smooth="yes"/>
      <point x="199" y="-41" type="line" smooth="yes"/>
      <point x="199" y="-118"/>
      <point x="242" y="-161"/>
      <point x="319" y="-161" type="curve" smooth="yes"/>
      <point x="539" y="-161" type="line" smooth="yes"/>
      <point x="546" y="-161"/>
      <point x="550" y="-157"/>
      <point x="550" y="-150" type="curve"/>
      <point x="550" y="22" type="line"/>
      <point x="530" y="22" type="line"/>
      <point x="500" y="22"/>
      <point x="460" y="22"/>
    </contour>
  </outline>
</glyph>
<glyph name="bar" format="1">
  <advance width="600"/>
  <unicode hex="007C"/>
  <outline>
    <contour>
      <point x="186" y="760" type="curve"/>
      <point x="186" y="722"/>
      <point x="186" y="686"/>
      <point x="186" y="648" type="curve" smooth="yes"/>
      <point x="186" y="-148" type="line" smooth="yes"/>
      <point x="186" y="-154"/>
      <point x="191" y="-159"/>
      <point x="197" y="-159" type="curve" smooth="yes"/>
      <point x="270" y="-159"/>
      <point x="341" y="-159"/>
      <point x="414" y="-159" type="curve"/>
      <point x="414" y="749" type="line" smooth="yes"/>
      <point x="414" y="752"/>
      <point x="413" y="755"/>
      <point x="411" y="757" type="curve" smooth="yes"/>
      <point x="409" y="759"/>
      <point x="406" y="760"/>
      <point x="403" y="760" type="curve" smooth="yes"/>
      <point x="330" y="760"/>
      <point x="259" y="760"/>
    </contour>
  </outline>
</glyph>
<glyph name="braceright" format="1">
  <advance width="600"/>
  <unicode hex="007D"/>
  <outline>
    <contour>
      <point x="170" y="22" type="curve" smooth="yes"/>
      <point x="140" y="22"/>
      <point x="100" y="22"/>
      <point x="70" y="22" type="curve"/>
      <point x="50" y="22" type="line"/>
      <point x="50" y="-38"/>
      <point x="50" y="-90"/>
      <point x="50" y="-150" type="curve"/>
      <point x="50" y="-157"/>
      <point x="54" y="-161"/>
      <point x="61" y="-161" type="curve" smooth="yes"/>
      <point x="281" y="-161" type="line" smooth="yes"/>
      <point x="358" y="-161"/>
      <point x="401" y="-118"/>
      <point x="401" y="-41" type="curve" smooth="yes"/>
      <point x="401" y="-31" type="line" smooth="yes"/>
      <point x="401" y="18"/>
      <point x="322" y="22"/>
      <point x="309" y="22" type="curve"/>
      <point x="272" y="22"/>
      <point x="207" y="22"/>
    </contour>
    <contour>
      <point x="166" y="174" type="curve" smooth="yes"/>
      <point x="166" y="103"/>
      <point x="198" y="79"/>
      <point x="198" y="22" type="curve" smooth="yes"/>
      <point x="198" y="-2"/>
      <point x="198" y="-58"/>
      <point x="198" y="-54" type="curve"/>
      <point x="390" y="-54"/>
      <point x="401" y="-48"/>
      <point x="401" y="-31" type="curve" smooth="yes"/>
      <point x="401" y="-23" type="line" smooth="yes"/>
      <point x="401" y="60"/>
      <point x="362" y="95"/>
      <point x="362" y="149" type="curve" smooth="yes"/>
      <point x="362" y="181"/>
      <point x="393" y="199"/>
      <point x="444" y="199" type="curve" smooth="yes"/>
      <point x="534" y="199" type="line"/>
      <point x="534" y="315" type="line" smooth="yes"/>
      <point x="534" y="323"/>
      <point x="530" y="326"/>
      <point x="523" y="326" type="curve" smooth="yes"/>
      <point x="452" y="326" type="line" smooth="yes"/>
      <point x="329" y="326"/>
      <point x="166" y="291"/>
    </contour>
    <contour>
      <point x="166" y="424" type="curve" smooth="yes"/>
      <point x="166" y="309"/>
      <point x="328" y="272"/>
      <point x="452" y="272" type="curve" smooth="yes"/>
      <point x="479" y="272"/>
      <point x="507" y="272"/>
      <point x="534" y="272" type="curve"/>
      <point x="534" y="388" type="line" smooth="yes"/>
      <point x="534" y="396"/>
      <point x="530" y="399"/>
      <point x="523" y="399" type="curve" smooth="yes"/>
      <point x="445" y="399" type="line" smooth="yes"/>
      <point x="393" y="399"/>
      <point x="362" y="422"/>
      <point x="362" y="450" type="curve" smooth="yes"/>
      <point x="362" y="509"/>
      <point x="401" y="535"/>
      <point x="401" y="625" type="curve" smooth="yes"/>
      <point x="401" y="629" type="line" smooth="yes"/>
      <point x="401" y="653"/>
      <point x="385" y="653"/>
      <point x="198" y="653" type="curve"/>
      <point x="198" y="617"/>
      <point x="198" y="583"/>
      <point x="198" y="577" type="curve" smooth="yes"/>
      <point x="198" y="521"/>
      <point x="166" y="492"/>
    </contour>
    <contour>
      <point x="170" y="577" type="curve" smooth="yes"/>
      <point x="207" y="577"/>
      <point x="272" y="577"/>
      <point x="309" y="577" type="curve"/>
      <point x="347" y="577"/>
      <point x="401" y="583"/>
      <point x="401" y="629" type="curve" smooth="yes"/>
      <point x="401" y="640" type="line" smooth="yes"/>
      <point x="401" y="717"/>
      <point x="358" y="760"/>
      <point x="281" y="760" type="curve" smooth="yes"/>
      <point x="61" y="760" type="line" smooth="yes"/>
      <point x="54" y="760"/>
      <point x="50" y="756"/>
      <point x="50" y="749" type="curve"/>
      <point x="50" y="577" type="line"/>
      <point x="70" y="577" type="line"/>
      <point x="100" y="577"/>
      <point x="140" y="577"/>
    </contour>
  </outline>
</glyph>
<glyph name="exclamdown" format="1">
  <advance width="600"/>
  <unicode hex="00A1"/>
  <outline>
    <contour>
      <point x="227" y="228" type="line"/>
      <point x="210" y="167"/>
      <point x="193" y="108"/>
      <point x="176" y="47" type="curve"/>
      <point x="176" y="-140" type="line" smooth="yes"/>
      <point x="176" y="-147"/>
      <point x="181" y="-151"/>
      <point x="187" y="-151" type="curve" smooth="yes"/>
      <point x="291" y="-151"/>
      <point x="370" y="-151"/>
      <point x="424" y="-151" type="curve"/>
      <point x="424" y="-113"/>
      <point x="424" y="-78"/>
      <point x="424" y="-41" type="curve" smooth="yes"/>
      <point x="424" y="47" type="line"/>
      <point x="377" y="222"/>
      <point x="376" y="221"/>
      <point x="372" y="225" type="curve" smooth="yes"/>
      <point x="370" y="227"/>
      <point x="368" y="228"/>
      <point x="364" y="228" type="curve"/>
    </contour>
    <contour>
      <point x="176" y="562" type="curve"/>
      <point x="176" y="323" type="line" smooth="yes"/>
      <point x="176" y="317"/>
      <point x="181" y="312"/>
      <point x="187" y="312" type="curve" smooth="yes"/>
      <point x="271" y="312"/>
      <point x="340" y="312"/>
      <point x="424" y="312" type="curve"/>
      <point x="424" y="551" type="line" smooth="yes"/>
      <point x="424" y="557"/>
      <point x="419" y="562"/>
      <point x="413" y="562" type="curve" smooth="yes"/>
      <point x="329" y="562"/>
      <point x="260" y="562"/>
    </contour>
  </outline>
</glyph>
<glyph name="cent" format="1">
  <advance width="600"/>
  <unicode hex="00A2"/>
  <outline>
    <contour>
      <point x="391" y="460" type="line"/>
      <point x="474" y="784" type="line" smooth="yes"/>
      <point x="476" y="793"/>
      <point x="470" y="797"/>
      <point x="464" y="797" type="curve" smooth="yes"/>
      <point x="392" y="797"/>
      <point x="369" y="797"/>
      <point x="295" y="797" type="curve"/>
      <point x="295" y="761"/>
      <point x="295" y="724"/>
      <point x="295" y="689" type="curve"/>
      <point x="295" y="500" type="line" smooth="yes"/>
      <point x="295" y="492"/>
      <point x="297" y="487"/>
      <point x="307" y="484" type="curve" smooth="yes"/>
    </contour>
    <contour>
      <point x="291" y="235" type="line"/>
      <point x="208" y="-89" type="line" smooth="yes"/>
      <point x="206" y="-98"/>
      <point x="212" y="-102"/>
      <point x="218" y="-102" type="curve" smooth="yes"/>
      <point x="290" y="-102"/>
      <point x="313" y="-102"/>
      <point x="387" y="-102" type="curve"/>
      <point x="387" y="-66"/>
      <point x="387" y="-29"/>
      <point x="387" y="6" type="curve"/>
      <point x="387" y="195" type="line" smooth="yes"/>
      <point x="387" y="203"/>
      <point x="385" y="208"/>
      <point x="375" y="211" type="curve" smooth="yes"/>
    </contour>
    <contour>
      <point x="349" y="643" type="curve" smooth="yes"/>
      <point x="137" y="643"/>
      <point x="40" y="539"/>
      <point x="40" y="403" type="curve" smooth="yes"/>
      <point x="40" y="306" type="line" smooth="yes"/>
      <point x="40" y="130"/>
      <point x="158" y="58"/>
      <point x="349" y="58" type="curve" smooth="yes"/>
      <point x="402" y="58"/>
      <point x="401" y="78"/>
      <point x="357" y="258" type="curve"/>
      <point x="284" y="258"/>
      <point x="265" y="279"/>
      <point x="265" y="328" type="curve" smooth="yes"/>
      <point x="265" y="373" type="line" smooth="yes"/>
      <point x="265" y="434"/>
      <point x="317" y="443"/>
      <point x="357" y="443" type="curve" smooth="yes"/>
      <point x="424" y="443"/>
      <point x="467" y="437"/>
      <point x="520" y="419" type="curve"/>
      <point x="540" y="419" type="line"/>
      <point x="540" y="481"/>
      <point x="540" y="542"/>
      <point x="540" y="604" type="curve" smooth="yes"/>
      <point x="540" y="607"/>
      <point x="539" y="610"/>
      <point x="537" y="612" type="curve" smooth="yes"/>
      <point x="521" y="628"/>
      <point x="430" y="643"/>
    </contour>
    <contour>
      <point x="172" y="346" type="curve"/>
      <point x="106" y="217"/>
      <point x="177" y="58"/>
      <point x="349" y="58" type="curve" smooth="yes"/>
      <point x="430" y="58"/>
      <point x="522" y="73"/>
      <point x="537" y="88" type="curve" smooth="yes"/>
      <point x="539" y="90"/>
      <point x="540" y="93"/>
      <point x="540" y="96" type="curve"/>
      <point x="540" y="157"/>
      <point x="540" y="220"/>
      <point x="540" y="282" type="curve"/>
      <point x="520" y="282" type="line"/>
      <point x="467" y="264"/>
      <point x="424" y="258"/>
      <point x="357" y="258" type="curve" smooth="yes"/>
      <point x="262" y="258"/>
      <point x="219" y="286"/>
    </contour>
  </outline>
</glyph>
<glyph name="sterling" format="1">
  <advance width="600"/>
  <unicode hex="00A3"/>
  <outline>
    <contour>
      <point x="391" y="505" type="curve" smooth="yes"/>
      <point x="451" y="505"/>
      <point x="499" y="497"/>
      <point x="542" y="487" type="curve"/>
      <point x="562" y="487" type="line"/>
      <point x="562" y="557"/>
      <point x="562" y="616"/>
      <point x="562" y="691" type="curve" smooth="yes"/>
      <point x="562" y="694"/>
      <point x="561" y="697"/>
      <point x="559" y="699" type="curve" smooth="yes"/>
      <point x="549" y="709"/>
      <point x="470" y="720"/>
      <point x="355" y="720" type="curve" smooth="yes"/>
      <point x="192" y="720"/>
      <point x="100" y="653"/>
      <point x="100" y="512" type="curve" smooth="yes"/>
      <point x="100" y="495" type="line" smooth="yes"/>
      <point x="100" y="456"/>
      <point x="210" y="448"/>
      <point x="320" y="449" type="curve"/>
      <point x="320" y="485"/>
      <point x="324" y="505"/>
    </contour>
    <contour>
      <point x="100" y="495" type="curve" smooth="yes"/>
      <point x="100" y="410"/>
      <point x="100" y="341"/>
      <point x="100" y="251" type="curve" smooth="yes"/>
      <point x="100" y="213"/>
      <point x="77" y="190"/>
      <point x="39" y="190" type="curve" smooth="yes"/>
      <point x="37" y="190"/>
      <point x="36" y="190"/>
      <point x="34" y="190" type="curve"/>
      <point x="30" y="190" type="line"/>
      <point x="30" y="129"/>
      <point x="30" y="82"/>
      <point x="30" y="11" type="curve" smooth="yes"/>
      <point x="30" y="3"/>
      <point x="34" y="0"/>
      <point x="41" y="0" type="curve" smooth="yes"/>
      <point x="56" y="0" type="line" smooth="yes"/>
      <point x="208" y="0"/>
      <point x="320" y="111"/>
      <point x="320" y="426" type="curve" smooth="yes"/>
      <point x="320" y="451"/>
      <point x="320" y="475"/>
      <point x="320" y="500" type="curve" smooth="yes"/>
      <point x="320" y="541"/>
      <point x="320" y="579"/>
      <point x="320" y="618" type="curve"/>
      <point x="196" y="618"/>
      <point x="100" y="573"/>
    </contour>
    <contour>
      <point x="49" y="0" type="curve"/>
      <point x="229" y="0"/>
      <point x="338" y="0"/>
      <point x="474" y="0" type="curve" smooth="yes"/>
      <point x="569" y="0" type="line" smooth="yes"/>
      <point x="577" y="0"/>
      <point x="580" y="3"/>
      <point x="580" y="11" type="curve"/>
      <point x="580" y="75"/>
      <point x="580" y="136"/>
      <point x="580" y="200" type="curve"/>
      <point x="560" y="200" type="line"/>
      <point x="524" y="200"/>
      <point x="497" y="200"/>
      <point x="451" y="200" type="curve" smooth="yes"/>
      <point x="351" y="200"/>
      <point x="267" y="200"/>
      <point x="148" y="200" type="curve"/>
      <point x="42" y="6"/>
      <point x="45" y="0"/>
    </contour>
    <contour>
      <point x="10" y="440" type="line"/>
      <point x="10" y="383"/>
      <point x="10" y="336"/>
      <point x="10" y="279" type="curve" smooth="yes"/>
      <point x="10" y="276"/>
      <point x="11" y="273"/>
      <point x="13" y="271" type="curve" smooth="yes"/>
      <point x="15" y="269"/>
      <point x="18" y="268"/>
      <point x="21" y="268" type="curve" smooth="yes"/>
      <point x="500" y="268" type="line"/>
      <point x="500" y="325"/>
      <point x="500" y="372"/>
      <point x="500" y="429" type="curve" smooth="yes"/>
      <point x="500" y="435"/>
      <point x="495" y="440"/>
      <point x="489" y="440" type="curve" smooth="yes"/>
    </contour>
  </outline>
</glyph>
<glyph name="yen" format="1">
  <advance width="600"/>
  <unicode hex="00A5"/>
  <outline>
    <contour>
      <point x="10" y="500" type="line"/>
      <point x="10" y="454"/>
      <point x="10" y="395"/>
      <point x="10" y="349" type="curve" smooth="yes"/>
      <point x="10" y="346"/>
      <point x="11" y="343"/>
      <point x="13" y="341" type="curve" smooth="yes"/>
      <point x="15" y="339"/>
      <point x="18" y="338"/>
      <point x="21" y="338" type="curve"/>
      <point x="210" y="338" type="line"/>
      <point x="210" y="384"/>
      <point x="210" y="443"/>
      <point x="210" y="489" type="curve" smooth="yes"/>
      <point x="210" y="495"/>
      <point x="205" y="500"/>
      <point x="199" y="500" type="curve"/>
    </contour>
    <contour>
      <point x="390" y="500" type="line"/>
      <point x="390" y="454"/>
      <point x="390" y="395"/>
      <point x="390" y="349" type="curve" smooth="yes"/>
      <point x="390" y="343"/>
      <point x="395" y="338"/>
      <point x="401" y="338" type="curve"/>
      <point x="590" y="338" type="line"/>
      <point x="590" y="384"/>
      <point x="590" y="443"/>
      <point x="590" y="489" type="curve" smooth="yes"/>
      <point x="590" y="495"/>
      <point x="585" y="500"/>
      <point x="579" y="500" type="curve"/>
    </contour>
    <contour>
      <point x="590" y="98" type="line"/>
      <point x="590" y="144"/>
      <point x="590" y="203"/>
      <point x="590" y="249" type="curve" smooth="yes"/>
      <point x="590" y="252"/>
      <point x="589" y="255"/>
      <point x="587" y="257" type="curve" smooth="yes"/>
      <point x="585" y="259"/>
      <point x="582" y="260"/>
      <point x="579" y="260" type="curve"/>
      <point x="10" y="260" type="line"/>
      <point x="10" y="214"/>
      <point x="10" y="155"/>
      <point x="10" y="109" type="curve" smooth="yes"/>
      <point x="10" y="103"/>
      <point x="15" y="98"/>
      <point x="21" y="98" type="curve"/>
    </contour>
    <contour>
      <point x="15" y="700" type="line"/>
      <point x="75" y="527"/>
      <point x="136" y="353"/>
      <point x="196" y="180" type="curve"/>
      <point x="199" y="170"/>
      <point x="207" y="165"/>
      <point x="217" y="165" type="curve"/>
      <point x="281" y="165"/>
      <point x="323" y="277"/>
      <point x="308" y="364" type="curve"/>
      <point x="288" y="472"/>
      <point x="268" y="579"/>
      <point x="248" y="687" type="curve"/>
      <point x="246" y="697"/>
      <point x="241" y="700"/>
      <point x="232" y="700" type="curve" smooth="yes"/>
    </contour>
    <contour>
      <point x="357" y="700" type="line"/>
      <point x="335" y="588"/>
      <point x="314" y="477"/>
      <point x="292" y="365" type="curve"/>
      <point x="263" y="264"/>
      <point x="238" y="191"/>
      <point x="217" y="165" type="curve"/>
      <point x="398" y="165" type="line"/>
      <point x="458" y="337"/>
      <point x="518" y="509"/>
      <point x="578" y="681" type="curve"/>
      <point x="581" y="691"/>
      <point x="576" y="700"/>
      <point x="565" y="700" type="curve"/>
    </contour>
    <contour>
      <point x="413" y="0" type="curve"/>
      <point x="413" y="31"/>
      <point x="413" y="65"/>
      <point x="413" y="101" type="curve" smooth="yes"/>
      <point x="413" y="289" type="line" smooth="yes"/>
      <point x="413" y="295"/>
      <point x="408" y="300"/>
      <point x="187" y="300" type="curve"/>
      <point x="187" y="11" type="line" smooth="yes"/>
      <point x="187" y="8"/>
      <point x="188" y="5"/>
      <point x="190" y="3" type="curve" smooth="yes"/>
      <point x="192" y="1"/>
      <point x="195" y="0"/>
      <point x="198" y="0" type="curve" smooth="yes"/>
      <point x="270" y="0"/>
      <point x="341" y="0"/>
    </contour>
  </outline>
</glyph>
<glyph name="section" format="1">
  <advance width="600"/>
  <unicode hex="00A7"/>
  <outline>
    <contour>
      <point x="315" y="720" type="curve" smooth="yes"/>
      <point x="154" y="720"/>
      <point x="35" y="637"/>
      <point x="35" y="512" type="curve" smooth="yes"/>
      <point x="35" y="472" type="line" smooth="yes"/>
      <point x="35" y="441"/>
      <point x="41" y="438"/>
      <point x="245" y="397" type="curve"/>
      <point x="245" y="438"/>
      <point x="245" y="468"/>
      <point x="245" y="495" type="curve" smooth="yes"/>
      <point x="245" y="527"/>
      <point x="286" y="530"/>
      <point x="332" y="530" type="curve" smooth="yes"/>
      <point x="369" y="530"/>
      <point x="396" y="521"/>
      <point x="430" y="500" type="curve"/>
      <point x="558" y="636"/>
      <point x="560" y="646"/>
      <point x="560" y="657" type="curve" smooth="yes"/>
      <point x="560" y="668"/>
      <point x="559" y="671"/>
      <point x="554" y="676" type="curve" smooth="yes"/>
      <point x="536" y="694"/>
      <point x="452" y="720"/>
    </contour>
    <contour>
      <point x="385" y="427" type="curve" smooth="yes"/>
      <point x="287" y="447" type="line" smooth="yes"/>
      <point x="251" y="454"/>
      <point x="245" y="466"/>
      <point x="245" y="485" type="curve" smooth="yes"/>
      <point x="245" y="515"/>
      <point x="245" y="544"/>
      <point x="245" y="574" type="curve"/>
      <point x="43" y="517"/>
      <point x="35" y="504"/>
      <point x="35" y="472" type="curve" smooth="yes"/>
      <point x="35" y="383"/>
      <point x="72" y="325"/>
      <point x="233" y="291" type="curve" smooth="yes"/>
      <point x="319" y="273" type="line" smooth="yes"/>
      <point x="351" y="266"/>
      <point x="360" y="252"/>
      <point x="360" y="239" type="curve" smooth="yes"/>
      <point x="360" y="228" type="line" smooth="yes"/>
      <point x="360" y="211"/>
      <point x="360" y="174"/>
      <point x="360" y="100" type="curve"/>
      <point x="380" y="100"/>
      <point x="400" y="100"/>
      <point x="420" y="100" type="curve" smooth="yes"/>
      <point x="511" y="100"/>
      <point x="570" y="157"/>
      <point x="570" y="246" type="curve" smooth="yes"/>
      <point x="570" y="256" type="line" smooth="yes"/>
      <point x="570" y="348"/>
      <point x="523" y="399"/>
    </contour>
    <contour>
      <point x="385" y="183" type="curve" smooth="yes"/>
      <point x="287" y="203" type="line" smooth="yes"/>
      <point x="251" y="210"/>
      <point x="245" y="222"/>
      <point x="245" y="241" type="curve" smooth="yes"/>
      <point x="245" y="251" type="line" smooth="yes"/>
      <point x="245" y="284"/>
      <point x="245" y="318"/>
      <point x="245" y="364" type="curve"/>
      <point x="237" y="364"/>
      <point x="211" y="364"/>
      <point x="181" y="364" type="curve" smooth="yes"/>
      <point x="98" y="364"/>
      <point x="35" y="306"/>
      <point x="35" y="229" type="curve" smooth="yes"/>
      <point x="35" y="217" type="line" smooth="yes"/>
      <point x="35" y="127"/>
      <point x="71" y="81"/>
      <point x="233" y="47" type="curve" smooth="yes"/>
      <point x="319" y="29" type="line" smooth="yes"/>
      <point x="351" y="22"/>
      <point x="360" y="8"/>
      <point x="360" y="-5" type="curve" smooth="yes"/>
      <point x="360" y="-30"/>
      <point x="360" y="-56"/>
      <point x="360" y="-81" type="curve"/>
      <point x="541" y="-42"/>
      <point x="570" y="-25"/>
      <point x="570" y="-3" type="curve"/>
      <point x="570" y="101"/>
      <point x="523" y="155"/>
    </contour>
    <contour>
      <point x="276" y="-249" type="curve" smooth="yes"/>
      <point x="456" y="-249"/>
      <point x="570" y="-182"/>
      <point x="570" y="-63" type="curve" smooth="yes"/>
      <point x="570" y="-3" type="line" smooth="yes"/>
      <point x="570" y="14"/>
      <point x="540" y="19"/>
      <point x="360" y="46" type="curve"/>
      <point x="360" y="21"/>
      <point x="360" y="2"/>
      <point x="360" y="-16" type="curve" smooth="yes"/>
      <point x="360" y="-34"/>
      <point x="348" y="-49"/>
      <point x="282" y="-49" type="curve" smooth="yes"/>
      <point x="189" y="-49"/>
      <point x="118" y="-29"/>
      <point x="50" y="8" type="curve"/>
      <point x="30" y="8" type="line"/>
      <point x="30" y="-41"/>
      <point x="30" y="-122"/>
      <point x="30" y="-187" type="curve" smooth="yes"/>
      <point x="30" y="-190"/>
      <point x="31" y="-193"/>
      <point x="33" y="-195" type="curve" smooth="yes"/>
      <point x="68" y="-230"/>
      <point x="175" y="-249"/>
    </contour>
    <contour>
      <point x="560" y="485" type="curve"/>
      <point x="560" y="657" type="line" smooth="yes"/>
      <point x="560" y="673"/>
      <point x="547" y="682"/>
      <point x="365" y="682" type="curve"/>
      <point x="365" y="665"/>
      <point x="365" y="642"/>
      <point x="365" y="617" type="curve" smooth="yes"/>
      <point x="365" y="496" type="line" smooth="yes"/>
      <point x="365" y="489"/>
      <point x="367" y="488"/>
      <point x="368" y="487" type="curve" smooth="yes"/>
      <point x="369" y="486"/>
      <point x="371" y="485"/>
      <point x="375" y="485" type="curve" smooth="yes"/>
      <point x="437" y="485"/>
      <point x="498" y="485"/>
    </contour>
  </outline>
</glyph>
<glyph name="ordfeminine" format="1">
  <advance width="600"/>
  <unicode hex="00AA"/>
  <outline>
    <contour>
      <point x="262" y="760" type="curve" smooth="yes"/>
      <point x="177" y="760"/>
      <point x="103" y="746"/>
      <point x="94" y="736" type="curve" smooth="yes"/>
      <point x="92" y="735"/>
      <point x="92" y="732"/>
      <point x="92" y="728" type="curve" smooth="yes"/>
      <point x="92" y="695"/>
      <point x="92" y="633"/>
      <point x="92" y="599" type="curve"/>
      <point x="108" y="599" type="line"/>
      <point x="158" y="611"/>
      <point x="197" y="616"/>
      <point x="253" y="616" type="curve" smooth="yes"/>
      <point x="302" y="616"/>
      <point x="333" y="607"/>
      <point x="333" y="581" type="curve"/>
      <point x="501" y="579"/>
      <point x="513" y="574"/>
      <point x="513" y="588" type="curve"/>
      <point x="513" y="701"/>
      <point x="460" y="760"/>
    </contour>
    <contour>
      <point x="333" y="641" type="curve"/>
      <point x="333" y="555"/>
      <point x="333" y="573"/>
      <point x="333" y="522" type="curve" smooth="yes"/>
      <point x="333" y="488"/>
      <point x="333" y="434"/>
      <point x="333" y="407" type="curve" smooth="yes"/>
      <point x="333" y="338"/>
      <point x="479" y="299"/>
      <point x="513" y="317" type="curve"/>
      <point x="513" y="356"/>
      <point x="513" y="387"/>
      <point x="513" y="432" type="curve" smooth="yes"/>
      <point x="513" y="484"/>
      <point x="513" y="529"/>
      <point x="513" y="588" type="curve" smooth="yes"/>
      <point x="513" y="610"/>
      <point x="421" y="641"/>
    </contour>
    <contour>
      <point x="545" y="442" type="line"/>
      <point x="528" y="442" type="line"/>
      <point x="527" y="442"/>
      <point x="526" y="442"/>
      <point x="524" y="442" type="curve" smooth="yes"/>
      <point x="516" y="442"/>
      <point x="513" y="448"/>
      <point x="513" y="456" type="curve"/>
      <point x="343" y="437"/>
      <point x="333" y="427"/>
      <point x="333" y="407" type="curve" smooth="yes"/>
      <point x="333" y="319"/>
      <point x="407" y="281"/>
      <point x="484" y="281" type="curve" smooth="yes"/>
      <point x="536" y="281" type="line" smooth="yes"/>
      <point x="542" y="281"/>
      <point x="545" y="285"/>
      <point x="545" y="290" type="curve"/>
    </contour>
    <contour>
      <point x="255" y="429" type="curve" smooth="yes"/>
      <point x="255" y="446" type="line" smooth="yes"/>
      <point x="255" y="471"/>
      <point x="255" y="490"/>
      <point x="255" y="511" type="curve"/>
      <point x="109" y="511"/>
      <point x="75" y="462"/>
      <point x="75" y="434" type="curve" smooth="yes"/>
      <point x="75" y="406" type="line" smooth="yes"/>
      <point x="75" y="327"/>
      <point x="128" y="277"/>
      <point x="212" y="277" type="curve" smooth="yes"/>
      <point x="289" y="277"/>
      <point x="333" y="308"/>
      <point x="375" y="367" type="curve" smooth="yes"/>
      <point x="385" y="381"/>
      <point x="386" y="420"/>
      <point x="376" y="443" type="curve"/>
      <point x="339" y="411"/>
      <point x="320" y="403"/>
      <point x="285" y="403" type="curve" smooth="yes"/>
      <point x="281" y="403" type="line" smooth="yes"/>
      <point x="265" y="403"/>
      <point x="255" y="413"/>
    </contour>
    <contour>
      <point x="360" y="533" type="curve" smooth="yes"/>
      <point x="339" y="546"/>
      <point x="292" y="559"/>
      <point x="218" y="559" type="curve" smooth="yes"/>
      <point x="126" y="559"/>
      <point x="75" y="516"/>
      <point x="75" y="434" type="curve" smooth="yes"/>
      <point x="75" y="430"/>
      <point x="90" y="414"/>
      <point x="255" y="446" type="curve"/>
      <point x="255" y="464"/>
      <point x="265" y="474"/>
      <point x="283" y="474" type="curve" smooth="yes"/>
      <point x="308" y="474"/>
      <point x="362" y="474"/>
      <point x="382" y="474" type="curve"/>
      <point x="382" y="506"/>
      <point x="383" y="519"/>
    </contour>
  </outline>
</glyph>
<glyph name="logicalnot" format="1">
  <advance width="600"/>
  <unicode hex="00AC"/>
  <outline>
    <contour>
      <point x="60" y="456" type="line"/>
      <point x="60" y="392"/>
      <point x="60" y="330"/>
      <point x="60" y="267" type="curve" smooth="yes"/>
      <point x="60" y="264"/>
      <point x="61" y="261"/>
      <point x="63" y="259" type="curve" smooth="yes"/>
      <point x="65" y="257"/>
      <point x="68" y="256"/>
      <point x="71" y="256" type="curve"/>
      <point x="540" y="256" type="line"/>
      <point x="540" y="445" type="line"/>
      <point x="540" y="451"/>
      <point x="535" y="456"/>
      <point x="529" y="456" type="curve"/>
    </contour>
    <contour>
      <point x="540" y="113" type="curve"/>
      <point x="540" y="306" type="line" smooth="yes"/>
      <point x="540" y="312"/>
      <point x="536" y="317"/>
      <point x="529" y="317" type="curve"/>
      <point x="320" y="317" type="line"/>
      <point x="320" y="124" type="line" smooth="yes"/>
      <point x="320" y="118"/>
      <point x="325" y="113"/>
      <point x="331" y="113" type="curve" smooth="yes"/>
      <point x="406" y="113"/>
      <point x="465" y="113"/>
    </contour>
  </outline>
</glyph>
<glyph name="registered" format="1">
  <advance width="600"/>
  <unicode hex="00AE"/>
  <outline>
    <contour>
      <point x="280" y="327" type="curve"/>
      <point x="280" y="352"/>
      <point x="280" y="376"/>
      <point x="280" y="401" type="curve"/>
      <point x="280" y="602" type="line"/>
      <point x="280" y="603"/>
      <point x="280" y="608"/>
      <point x="183" y="608" type="curve"/>
      <point x="183" y="338" type="line" smooth="yes"/>
      <point x="183" y="331"/>
      <point x="187" y="327"/>
      <point x="194" y="327" type="curve" smooth="yes"/>
      <point x="223" y="327"/>
      <point x="251" y="327"/>
    </contour>
    <contour>
      <point x="163" y="635" type="curve"/>
      <point x="163" y="611"/>
      <point x="163" y="591"/>
      <point x="163" y="567" type="curve"/>
      <point x="163" y="560"/>
      <point x="167" y="556"/>
      <point x="174" y="556" type="curve"/>
      <point x="180" y="556"/>
      <point x="190" y="556"/>
      <point x="196" y="556" type="curve" smooth="yes"/>
      <point x="232" y="556"/>
      <point x="278" y="556"/>
      <point x="313" y="556" type="curve" smooth="yes"/>
      <point x="352" y="556"/>
      <point x="372" y="556"/>
      <point x="393" y="556" type="curve"/>
      <point x="393" y="604"/>
      <point x="367" y="635"/>
      <point x="324" y="635" type="curve" smooth="yes"/>
      <point x="277" y="635"/>
      <point x="209" y="635"/>
    </contour>
    <contour>
      <point x="433" y="506" type="curve" smooth="yes"/>
      <point x="433" y="545" type="line" smooth="yes"/>
      <point x="433" y="604"/>
      <point x="396" y="635"/>
      <point x="324" y="635" type="curve"/>
      <point x="306" y="635"/>
      <point x="301" y="639"/>
      <point x="313" y="556" type="curve"/>
      <point x="331" y="556"/>
      <point x="340" y="549"/>
      <point x="340" y="532" type="curve" smooth="yes"/>
      <point x="340" y="519" type="line" smooth="yes"/>
      <point x="340" y="504"/>
      <point x="329" y="494"/>
      <point x="314" y="494" type="curve" smooth="yes"/>
      <point x="296" y="494"/>
      <point x="253" y="494"/>
      <point x="239" y="494" type="curve"/>
      <point x="239" y="471"/>
      <point x="239" y="451"/>
      <point x="239" y="423" type="curve" smooth="yes"/>
      <point x="239" y="420"/>
      <point x="242" y="417"/>
      <point x="245" y="417" type="curve" smooth="yes"/>
      <point x="344" y="417" type="line" smooth="yes"/>
      <point x="400" y="417"/>
      <point x="433" y="455"/>
    </contour>
    <contour>
      <point x="370" y="477" type="line"/>
      <point x="316" y="477"/>
      <point x="291" y="448"/>
      <point x="296" y="434" type="curve" smooth="yes"/>
      <point x="319" y="372" type="line" smooth="yes"/>
      <point x="332" y="336"/>
      <point x="355" y="324"/>
      <point x="399" y="324" type="curve" smooth="yes"/>
      <point x="422" y="324" type="line" smooth="yes"/>
      <point x="430" y="324"/>
      <point x="433" y="328"/>
      <point x="433" y="335" type="curve"/>
      <point x="433" y="351"/>
      <point x="433" y="379"/>
      <point x="433" y="401" type="curve"/>
      <point x="430" y="401" type="line"/>
      <point x="426" y="401"/>
      <point x="420" y="401"/>
      <point x="414" y="401" type="curve"/>
      <point x="402" y="401"/>
      <point x="399" y="403"/>
      <point x="395" y="413" type="curve" smooth="yes"/>
    </contour>
    <contour>
      <point x="300" y="760" type="curve" smooth="yes"/>
      <point x="76" y="760"/>
      <point x="19" y="685"/>
      <point x="19" y="543" type="curve" smooth="yes"/>
      <point x="19" y="417" type="line" smooth="yes"/>
      <point x="19" y="275"/>
      <point x="76" y="200"/>
      <point x="300" y="200" type="curve" smooth="yes"/>
      <point x="300" y="200"/>
      <point x="317" y="219"/>
      <point x="300" y="277" type="curve"/>
      <point x="119" y="277"/>
      <point x="105" y="330"/>
      <point x="105" y="411" type="curve" smooth="yes"/>
      <point x="105" y="551" type="line" smooth="yes"/>
      <point x="105" y="631"/>
      <point x="119" y="683"/>
      <point x="300" y="683" type="curve" smooth="yes"/>
      <point x="359" y="683"/>
      <point x="395" y="683"/>
      <point x="447" y="683" type="curve"/>
      <point x="447" y="724"/>
      <point x="409" y="760"/>
    </contour>
    <contour>
      <point x="300" y="200" type="curve" smooth="yes"/>
      <point x="530" y="200"/>
      <point x="581" y="275"/>
      <point x="581" y="417" type="curve" smooth="yes"/>
      <point x="581" y="543" type="line" smooth="yes"/>
      <point x="581" y="685"/>
      <point x="530" y="760"/>
      <point x="300" y="760" type="curve" smooth="yes"/>
      <point x="300" y="760"/>
      <point x="284" y="739"/>
      <point x="300" y="683" type="curve"/>
      <point x="487" y="683"/>
      <point x="495" y="630"/>
      <point x="495" y="549" type="curve" smooth="yes"/>
      <point x="495" y="409" type="line" smooth="yes"/>
      <point x="495" y="329"/>
      <point x="487" y="277"/>
      <point x="300" y="277" type="curve" smooth="yes"/>
      <point x="241" y="277"/>
      <point x="205" y="277"/>
      <point x="153" y="277" type="curve"/>
      <point x="153" y="236"/>
      <point x="191" y="200"/>
    </contour>
  </outline>
</glyph>
<glyph name="degree" format="1">
  <advance width="600"/>
  <unicode hex="00B0"/>
  <outline>
    <contour>
      <point x="300" y="456" type="curve"/>
      <point x="252" y="456"/>
      <point x="225" y="481"/>
      <point x="225" y="523" type="curve" smooth="yes"/>
      <point x="225" y="546" type="line" smooth="yes"/>
      <point x="225" y="589"/>
      <point x="253" y="613"/>
      <point x="300" y="613" type="curve" smooth="yes"/>
      <point x="330" y="613"/>
      <point x="346" y="609"/>
      <point x="366" y="597" type="curve"/>
      <point x="379" y="618"/>
      <point x="364" y="710"/>
      <point x="300" y="710" type="curve"/>
      <point x="195" y="710"/>
      <point x="128" y="650"/>
      <point x="128" y="556" type="curve" smooth="yes"/>
      <point x="128" y="514" type="line" smooth="yes"/>
      <point x="128" y="419"/>
      <point x="195" y="359"/>
      <point x="300" y="359" type="curve"/>
      <point x="309" y="359"/>
      <point x="309" y="430"/>
    </contour>
    <contour>
      <point x="300" y="613" type="curve"/>
      <point x="348" y="613"/>
      <point x="375" y="589"/>
      <point x="375" y="546" type="curve" smooth="yes"/>
      <point x="375" y="523" type="line" smooth="yes"/>
      <point x="375" y="481"/>
      <point x="347" y="456"/>
      <point x="300" y="456" type="curve" smooth="yes"/>
      <point x="270" y="456"/>
      <point x="255" y="460"/>
      <point x="234" y="473" type="curve"/>
      <point x="221" y="453"/>
      <point x="236" y="359"/>
      <point x="300" y="359" type="curve"/>
      <point x="405" y="359"/>
      <point x="472" y="419"/>
      <point x="472" y="514" type="curve" smooth="yes"/>
      <point x="472" y="556" type="line" smooth="yes"/>
      <point x="472" y="650"/>
      <point x="405" y="710"/>
      <point x="300" y="710" type="curve"/>
      <point x="287" y="710"/>
      <point x="290" y="642"/>
    </contour>
  </outline>
</glyph>
<glyph name="periodcentered" format="1">
  <advance width="600"/>
  <unicode hex="00B7"/>
  <outline>
    <contour>
      <point x="424" y="174" type="curve"/>
      <point x="424" y="413" type="line" smooth="yes"/>
      <point x="424" y="419"/>
      <point x="419" y="424"/>
      <point x="413" y="424" type="curve" smooth="yes"/>
      <point x="329" y="424"/>
      <point x="260" y="424"/>
      <point x="176" y="424" type="curve"/>
      <point x="176" y="185" type="line" smooth="yes"/>
      <point x="176" y="179"/>
      <point x="181" y="174"/>
      <point x="187" y="174" type="curve" smooth="yes"/>
      <point x="271" y="174"/>
      <point x="340" y="174"/>
    </contour>
  </outline>
</glyph>
<glyph name="cedilla" format="1">
  <advance width="600"/>
  <unicode hex="00B8"/>
  <outline>
    <contour>
      <point x="429" y="-114" type="curve" smooth="yes"/>
      <point x="429" y="-30"/>
      <point x="338" y="43"/>
      <point x="294" y="55" type="curve"/>
      <point x="298" y="74"/>
      <point x="302" y="92"/>
      <point x="306" y="111" type="curve"/>
      <point x="228" y="111"/>
      <point x="237" y="107"/>
      <point x="234" y="100" type="curve" smooth="yes"/>
      <point x="229" y="86"/>
      <point x="224" y="75"/>
      <point x="217" y="57" type="curve" smooth="yes"/>
      <point x="214" y="50"/>
      <point x="215" y="44"/>
      <point x="225" y="36" type="curve" smooth="yes"/>
      <point x="262" y="14"/>
      <point x="274" y="-13"/>
      <point x="274" y="-47" type="curve" smooth="yes"/>
      <point x="274" y="-77"/>
      <point x="254" y="-91"/>
      <point x="220" y="-91" type="curve" smooth="yes"/>
      <point x="194" y="-91"/>
      <point x="178" y="-87"/>
      <point x="162" y="-78" type="curve"/>
      <point x="150" y="-78" type="line"/>
      <point x="150" y="-126"/>
      <point x="150" y="-169"/>
      <point x="150" y="-220" type="curve" smooth="yes"/>
      <point x="150" y="-231"/>
      <point x="177" y="-254"/>
      <point x="255" y="-254" type="curve" smooth="yes"/>
      <point x="381" y="-254"/>
      <point x="429" y="-183"/>
    </contour>
  </outline>
</glyph>
<glyph name="onequarter" format="1">
  <advance width="600"/>
  <unicode hex="00BC"/>
  <outline>
    <contour>
      <point x="252" y="391" type="curve"/>
      <point x="252" y="494"/>
      <point x="252" y="597"/>
      <point x="252" y="699" type="curve" smooth="yes"/>
      <point x="252" y="706"/>
      <point x="248" y="710"/>
      <point x="241" y="710" type="curve" smooth="yes"/>
      <point x="114" y="710" type="line"/>
      <point x="114" y="609"/>
      <point x="114" y="506"/>
      <point x="114" y="404" type="curve" smooth="yes"/>
      <point x="114" y="395"/>
      <point x="208" y="391"/>
    </contour>
    <contour>
      <point x="25" y="486" type="line"/>
      <point x="25" y="465"/>
      <point x="25" y="413"/>
      <point x="25" y="377" type="curve" smooth="yes"/>
      <point x="25" y="369"/>
      <point x="29" y="366"/>
      <point x="36" y="366" type="curve" smooth="yes"/>
      <point x="314" y="366" type="line"/>
      <point x="314" y="387"/>
      <point x="314" y="455"/>
      <point x="314" y="475" type="curve" smooth="yes"/>
      <point x="314" y="482"/>
      <point x="310" y="486"/>
      <point x="303" y="486" type="curve" smooth="yes"/>
    </contour>
    <contour>
      <point x="36" y="520" type="curve" smooth="yes"/>
      <point x="43" y="520"/>
      <point x="58" y="531"/>
      <point x="183" y="640" type="curve" smooth="yes"/>
      <point x="220" y="675"/>
      <point x="197" y="710"/>
      <point x="169" y="710" type="curve"/>
      <point x="103" y="710" type="line"/>
      <point x="79" y="688"/>
      <point x="54" y="666"/>
      <point x="30" y="644" type="curve"/>
      <point x="30" y="526" type="line" smooth="yes"/>
      <point x="30" y="522"/>
      <point x="32" y="520"/>
    </contour>
    <contour>
      <point x="354" y="117" type="curve"/>
      <point x="412" y="181"/>
      <point x="489" y="266"/>
      <point x="552" y="335" type="curve"/>
      <point x="552" y="342" type="line"/>
      <point x="524" y="342"/>
      <point x="413" y="342"/>
      <point x="380" y="342" type="curve" smooth="yes"/>
      <point x="375" y="342"/>
      <point x="371" y="341"/>
      <point x="367" y="334" type="curve" smooth="yes"/>
      <point x="349" y="303"/>
      <point x="264" y="158"/>
      <point x="264" y="156" type="curve" smooth="yes"/>
      <point x="264" y="134"/>
      <point x="320" y="117"/>
    </contour>
    <contour>
      <point x="590" y="50" type="line"/>
      <point x="590" y="75"/>
      <point x="590" y="130"/>
      <point x="590" y="155" type="curve" smooth="yes"/>
      <point x="590" y="162"/>
      <point x="586" y="166"/>
      <point x="579" y="166" type="curve" smooth="yes"/>
      <point x="372" y="166" type="line" smooth="yes"/>
      <point x="352" y="166"/>
      <point x="338" y="165"/>
      <point x="264" y="156" type="curve"/>
      <point x="264" y="61" type="line" smooth="yes"/>
      <point x="264" y="55"/>
      <point x="268" y="50"/>
      <point x="275" y="50" type="curve" smooth="yes"/>
    </contour>
    <contour>
      <point x="559" y="0" type="curve"/>
      <point x="559" y="21"/>
      <point x="559" y="24"/>
      <point x="559" y="44" type="curve" smooth="yes"/>
      <point x="559" y="196" type="line" smooth="yes"/>
      <point x="559" y="203"/>
      <point x="556" y="207"/>
      <point x="548" y="207" type="curve" smooth="yes"/>
      <point x="490" y="207" type="line"/>
      <point x="454" y="176"/>
      <point x="423" y="151"/>
      <point x="423" y="145" type="curve" smooth="yes"/>
      <point x="423" y="11" type="line" smooth="yes"/>
      <point x="423" y="3"/>
      <point x="427" y="0"/>
      <point x="434" y="0" type="curve" smooth="yes"/>
      <point x="468" y="0"/>
      <point x="525" y="0"/>
    </contour>
    <contour>
      <point x="350" y="391" type="curve"/>
      <point x="389" y="391"/>
      <point x="427" y="391"/>
      <point x="466" y="391" type="curve" smooth="yes"/>
      <point x="471" y="391"/>
      <point x="474" y="392"/>
      <point x="477" y="399" type="curve" smooth="yes"/>
      <point x="515" y="498"/>
      <point x="553" y="597"/>
      <point x="592" y="697" type="curve" smooth="yes"/>
      <point x="595" y="705"/>
      <point x="592" y="710"/>
      <point x="584" y="710" type="curve" smooth="yes"/>
      <point x="510" y="710"/>
      <point x="472" y="710"/>
      <point x="381" y="710" type="curve"/>
      <point x="371" y="604"/>
      <point x="360" y="497"/>
    </contour>
    <contour>
      <point x="250" y="310" type="curve"/>
      <point x="211" y="310"/>
      <point x="173" y="310"/>
      <point x="134" y="310" type="curve" smooth="yes"/>
      <point x="129" y="310"/>
      <point x="126" y="309"/>
      <point x="123" y="302" type="curve" smooth="yes"/>
      <point x="85" y="203"/>
      <point x="47" y="104"/>
      <point x="8" y="4" type="curve" smooth="yes"/>
      <point x="5" y="-4"/>
      <point x="8" y="-9"/>
      <point x="16" y="-9" type="curve" smooth="yes"/>
      <point x="90" y="-9"/>
      <point x="128" y="-9"/>
      <point x="219" y="-9" type="curve"/>
      <point x="229" y="97"/>
      <point x="240" y="204"/>
    </contour>
  </outline>
</glyph>
<glyph name="onehalf" format="1">
  <advance width="600"/>
  <unicode hex="00BD"/>
  <outline>
    <contour>
      <point x="252" y="391" type="curve"/>
      <point x="252" y="494"/>
      <point x="252" y="597"/>
      <point x="252" y="699" type="curve" smooth="yes"/>
      <point x="252" y="706"/>
      <point x="248" y="710"/>
      <point x="241" y="710" type="curve" smooth="yes"/>
      <point x="114" y="710" type="line"/>
      <point x="114" y="609"/>
      <point x="114" y="506"/>
      <point x="114" y="404" type="curve" smooth="yes"/>
      <point x="114" y="395"/>
      <point x="208" y="391"/>
    </contour>
    <contour>
      <point x="25" y="486" type="line"/>
      <point x="25" y="465"/>
      <point x="25" y="413"/>
      <point x="25" y="377" type="curve" smooth="yes"/>
      <point x="25" y="369"/>
      <point x="29" y="366"/>
      <point x="36" y="366" type="curve" smooth="yes"/>
      <point x="314" y="366" type="line"/>
      <point x="314" y="387"/>
      <point x="314" y="455"/>
      <point x="314" y="475" type="curve" smooth="yes"/>
      <point x="314" y="482"/>
      <point x="310" y="486"/>
      <point x="303" y="486" type="curve" smooth="yes"/>
    </contour>
    <contour>
      <point x="36" y="520" type="curve" smooth="yes"/>
      <point x="43" y="520"/>
      <point x="58" y="531"/>
      <point x="183" y="640" type="curve" smooth="yes"/>
      <point x="220" y="675"/>
      <point x="197" y="710"/>
      <point x="169" y="710" type="curve"/>
      <point x="103" y="710" type="line"/>
      <point x="79" y="688"/>
      <point x="54" y="666"/>
      <point x="30" y="644" type="curve"/>
      <point x="30" y="526" type="line" smooth="yes"/>
      <point x="30" y="522"/>
      <point x="32" y="520"/>
    </contour>
    <contour>
      <point x="424" y="231" type="curve" smooth="yes"/>
      <point x="448" y="231"/>
      <point x="452" y="229"/>
      <point x="452" y="222" type="curve"/>
      <point x="558" y="224"/>
      <point x="579" y="241"/>
      <point x="579" y="247" type="curve" smooth="yes"/>
      <point x="579" y="307"/>
      <point x="533" y="341"/>
      <point x="433" y="341" type="curve" smooth="yes"/>
      <point x="364" y="341"/>
      <point x="315" y="328"/>
      <point x="305" y="318" type="curve" smooth="yes"/>
      <point x="300" y="313"/>
      <point x="300" y="310"/>
      <point x="300" y="304" type="curve" smooth="yes"/>
      <point x="300" y="277"/>
      <point x="300" y="240"/>
      <point x="300" y="208" type="curve"/>
      <point x="312" y="208" type="line"/>
      <point x="349" y="224"/>
      <point x="384" y="231"/>
    </contour>
    <contour>
      <point x="452" y="290" type="curve"/>
      <point x="452" y="268"/>
      <point x="452" y="240"/>
      <point x="452" y="222" type="curve" smooth="yes"/>
      <point x="452" y="214"/>
      <point x="447" y="211"/>
      <point x="391" y="194" type="curve" smooth="yes"/>
      <point x="313" y="172"/>
      <point x="285" y="133"/>
      <point x="285" y="82" type="curve" smooth="yes"/>
      <point x="285" y="76"/>
      <point x="295" y="76"/>
      <point x="396" y="76" type="curve"/>
      <point x="396" y="116"/>
      <point x="399" y="124"/>
      <point x="473" y="143" type="curve" smooth="yes"/>
      <point x="548" y="161"/>
      <point x="579" y="186"/>
      <point x="579" y="238" type="curve" smooth="yes"/>
      <point x="579" y="247" type="line" smooth="yes"/>
      <point x="579" y="276"/>
      <point x="537" y="290"/>
    </contour>
    <contour>
      <point x="584" y="0" type="line"/>
      <point x="584" y="28"/>
      <point x="584" y="78"/>
      <point x="584" y="106" type="curve" smooth="yes"/>
      <point x="584" y="113"/>
      <point x="580" y="117"/>
      <point x="573" y="117" type="curve" smooth="yes"/>
      <point x="509" y="117" type="line" smooth="yes"/>
      <point x="432" y="117"/>
      <point x="339" y="96"/>
      <point x="285" y="82" type="curve"/>
      <point x="285" y="59"/>
      <point x="285" y="34"/>
      <point x="285" y="11" type="curve" smooth="yes"/>
      <point x="285" y="4"/>
      <point x="289" y="0"/>
      <point x="296" y="0" type="curve" smooth="yes"/>
    </contour>
    <contour>
      <point x="340" y="391" type="curve"/>
      <point x="379" y="391"/>
      <point x="417" y="391"/>
      <point x="456" y="391" type="curve" smooth="yes"/>
      <point x="461" y="391"/>
      <point x="464" y="392"/>
      <point x="467" y="399" type="curve" smooth="yes"/>
      <point x="505" y="498"/>
      <point x="543" y="597"/>
      <point x="582" y="697" type="curve" smooth="yes"/>
      <point x="585" y="705"/>
      <point x="582" y="710"/>
      <point x="574" y="710" type="curve" smooth="yes"/>
      <point x="500" y="710"/>
      <point x="462" y="710"/>
      <point x="371" y="710" type="curve"/>
      <point x="361" y="604"/>
      <point x="350" y="497"/>
    </contour>
    <contour>
      <point x="240" y="310" type="curve"/>
      <point x="201" y="310"/>
      <point x="163" y="310"/>
      <point x="124" y="310" type="curve" smooth="yes"/>
      <point x="119" y="310"/>
      <point x="116" y="309"/>
      <point x="113" y="302" type="curve" smooth="yes"/>
      <point x="75" y="203"/>
      <point x="37" y="104"/>
      <point x="-2" y="4" type="curve" smooth="yes"/>
      <point x="-5" y="-4"/>
      <point x="-2" y="-9"/>
      <point x="6" y="-9" type="curve" smooth="yes"/>
      <point x="80" y="-9"/>
      <point x="118" y="-9"/>
      <point x="209" y="-9" type="curve"/>
      <point x="219" y="97"/>
      <point x="230" y="204"/>
    </contour>
  </outline>
</glyph>
<glyph name="threequarters" format="1">
  <advance width="600"/>
  <unicode hex="00BE"/>
  <outline>
    <contour>
      <point x="161" y="606" type="curve" smooth="yes"/>
      <point x="197" y="606"/>
      <point x="207" y="601"/>
      <point x="207" y="593" type="curve" smooth="yes"/>
      <point x="207" y="586"/>
      <point x="207" y="575"/>
      <point x="207" y="568" type="curve"/>
      <point x="282" y="569"/>
      <point x="318" y="596"/>
      <point x="318" y="623" type="curve" smooth="yes"/>
      <point x="318" y="630" type="line" smooth="yes"/>
      <point x="318" y="692"/>
      <point x="255" y="711"/>
      <point x="169" y="711" type="curve"/>
      <point x="105" y="711"/>
      <point x="61" y="701"/>
      <point x="50" y="690" type="curve" smooth="yes"/>
      <point x="45" y="685"/>
      <point x="45" y="682"/>
      <point x="45" y="676" type="curve" smooth="yes"/>
      <point x="45" y="650"/>
      <point x="45" y="615"/>
      <point x="45" y="595" type="curve"/>
      <point x="57" y="595" type="line"/>
      <point x="94" y="603"/>
      <point x="118" y="606"/>
    </contour>
    <contour>
      <point x="97" y="530" type="curve" smooth="yes"/>
      <point x="286" y="530"/>
      <point x="318" y="571"/>
      <point x="318" y="623" type="curve" smooth="yes"/>
      <point x="318" y="631"/>
      <point x="292" y="635"/>
      <point x="207" y="635" type="curve"/>
      <point x="207" y="627"/>
      <point x="207" y="609"/>
      <point x="207" y="593" type="curve" smooth="yes"/>
      <point x="207" y="585"/>
      <point x="200" y="580"/>
      <point x="86" y="580" type="curve"/>
      <point x="86" y="571"/>
      <point x="86" y="554"/>
      <point x="86" y="541" type="curve" smooth="yes"/>
      <point x="86" y="534"/>
      <point x="90" y="530"/>
    </contour>
    <contour>
      <point x="97" y="498" type="curve" smooth="yes"/>
      <point x="200" y="498"/>
      <point x="211" y="492"/>
      <point x="211" y="480" type="curve" smooth="yes"/>
      <point x="211" y="471"/>
      <point x="211" y="445"/>
      <point x="211" y="437" type="curve"/>
      <point x="297" y="437"/>
      <point x="322" y="443"/>
      <point x="322" y="460" type="curve" smooth="yes"/>
      <point x="322" y="532"/>
      <point x="253" y="548"/>
      <point x="86" y="548" type="curve"/>
      <point x="86" y="543"/>
      <point x="86" y="525"/>
      <point x="86" y="509" type="curve" smooth="yes"/>
      <point x="86" y="502"/>
      <point x="90" y="498"/>
    </contour>
    <contour>
      <point x="154" y="468" type="curve" smooth="yes"/>
      <point x="107" y="468"/>
      <point x="83" y="473"/>
      <point x="49" y="484" type="curve"/>
      <point x="37" y="484" type="line"/>
      <point x="37" y="451"/>
      <point x="37" y="419"/>
      <point x="37" y="393" type="curve" smooth="yes"/>
      <point x="37" y="387"/>
      <point x="37" y="384"/>
      <point x="42" y="379" type="curve" smooth="yes"/>
      <point x="51" y="370"/>
      <point x="87" y="357"/>
      <point x="166" y="357" type="curve" smooth="yes"/>
      <point x="256" y="357"/>
      <point x="322" y="386"/>
      <point x="322" y="454" type="curve" smooth="yes"/>
      <point x="322" y="460" type="line" smooth="yes"/>
      <point x="322" y="475"/>
      <point x="287" y="507"/>
      <point x="211" y="507" type="curve"/>
      <point x="211" y="500"/>
      <point x="211" y="489"/>
      <point x="211" y="480" type="curve" smooth="yes"/>
      <point x="211" y="473"/>
      <point x="202" y="468"/>
    </contour>
    <contour>
      <point x="354" y="117" type="curve"/>
      <point x="412" y="181"/>
      <point x="489" y="266"/>
      <point x="552" y="335" type="curve"/>
      <point x="552" y="342" type="line"/>
      <point x="524" y="342"/>
      <point x="413" y="342"/>
      <point x="380" y="342" type="curve" smooth="yes"/>
      <point x="375" y="342"/>
      <point x="371" y="341"/>
      <point x="367" y="334" type="curve" smooth="yes"/>
      <point x="349" y="303"/>
      <point x="264" y="158"/>
      <point x="264" y="156" type="curve" smooth="yes"/>
      <point x="264" y="134"/>
      <point x="320" y="117"/>
    </contour>
    <contour>
      <point x="590" y="50" type="line"/>
      <point x="590" y="75"/>
      <point x="590" y="130"/>
      <point x="590" y="155" type="curve" smooth="yes"/>
      <point x="590" y="162"/>
      <point x="586" y="166"/>
      <point x="579" y="166" type="curve" smooth="yes"/>
      <point x="372" y="166" type="line" smooth="yes"/>
      <point x="352" y="166"/>
      <point x="338" y="165"/>
      <point x="264" y="156" type="curve"/>
      <point x="264" y="61" type="line" smooth="yes"/>
      <point x="264" y="55"/>
      <point x="268" y="50"/>
      <point x="275" y="50" type="curve" smooth="yes"/>
    </contour>
    <contour>
      <point x="559" y="0" type="curve"/>
      <point x="559" y="21"/>
      <point x="559" y="24"/>
      <point x="559" y="44" type="curve" smooth="yes"/>
      <point x="559" y="196" type="line" smooth="yes"/>
      <point x="559" y="203"/>
      <point x="556" y="207"/>
      <point x="548" y="207" type="curve" smooth="yes"/>
      <point x="490" y="207" type="line"/>
      <point x="454" y="176"/>
      <point x="423" y="151"/>
      <point x="423" y="145" type="curve" smooth="yes"/>
      <point x="423" y="11" type="line" smooth="yes"/>
      <point x="423" y="3"/>
      <point x="427" y="0"/>
      <point x="434" y="0" type="curve" smooth="yes"/>
      <point x="468" y="0"/>
      <point x="525" y="0"/>
    </contour>
    <contour>
      <point x="350" y="391" type="curve"/>
      <point x="389" y="391"/>
      <point x="427" y="391"/>
      <point x="466" y="391" type="curve" smooth="yes"/>
      <point x="471" y="391"/>
      <point x="474" y="392"/>
      <point x="477" y="399" type="curve" smooth="yes"/>
      <point x="515" y="498"/>
      <point x="553" y="597"/>
      <point x="592" y="697" type="curve" smooth="yes"/>
      <point x="595" y="705"/>
      <point x="592" y="710"/>
      <point x="584" y="710" type="curve" smooth="yes"/>
      <point x="510" y="710"/>
      <point x="472" y="710"/>
      <point x="381" y="710" type="curve"/>
      <point x="371" y="604"/>
      <point x="360" y="497"/>
    </contour>
    <contour>
      <point x="250" y="310" type="curve"/>
      <point x="211" y="310"/>
      <point x="173" y="310"/>
      <point x="134" y="310" type="curve" smooth="yes"/>
      <point x="129" y="310"/>
      <point x="126" y="309"/>
      <point x="123" y="302" type="curve" smooth="yes"/>
      <point x="85" y="203"/>
      <point x="47" y="104"/>
      <point x="8" y="4" type="curve" smooth="yes"/>
      <point x="5" y="-4"/>
      <point x="8" y="-9"/>
      <point x="16" y="-9" type="curve" smooth="yes"/>
      <point x="90" y="-9"/>
      <point x="128" y="-9"/>
      <point x="219" y="-9" type="curve"/>
      <point x="229" y="97"/>
      <point x="240" y="204"/>
    </contour>
  </outline>
</glyph>
<glyph name="AE" format="1">
  <advance width="600"/>
  <unicode hex="00C6"/>
  <outline>
    <contour>
      <point x="183" y="0" type="curve"/>
      <point x="209" y="189"/>
      <point x="236" y="379"/>
      <point x="262" y="568" type="curve"/>
      <point x="278" y="660"/>
      <point x="298" y="689"/>
      <point x="355" y="700" type="curve"/>
      <point x="109" y="700" type="line"/>
      <point x="73" y="471"/>
      <point x="36" y="242"/>
      <point x="0" y="13" type="curve"/>
      <point x="-2" y="3"/>
      <point x="4" y="0"/>
      <point x="8" y="0" type="curve" smooth="yes"/>
      <point x="66" y="0"/>
      <point x="125" y="0"/>
    </contour>
    <contour>
      <point x="477" y="0" type="curve"/>
      <point x="464" y="229"/>
      <point x="450" y="460"/>
      <point x="437" y="689" type="curve"/>
      <point x="436" y="697"/>
      <point x="432" y="700"/>
      <point x="425" y="700" type="curve"/>
      <point x="263" y="700"/>
      <point x="203" y="688"/>
      <point x="203" y="535" type="curve"/>
      <point x="265" y="535" type="line"/>
      <point x="269" y="535"/>
      <point x="273" y="534"/>
      <point x="273" y="529" type="curve"/>
      <point x="282" y="358"/>
      <point x="290" y="187"/>
      <point x="299" y="7" type="curve" smooth="yes"/>
      <point x="300" y="1"/>
      <point x="304" y="0"/>
      <point x="310" y="0" type="curve" smooth="yes"/>
      <point x="366" y="0"/>
      <point x="421" y="0"/>
    </contour>
    <contour>
      <point x="133" y="260" type="line"/>
      <point x="133" y="111" type="line"/>
      <point x="133" y="105"/>
      <point x="138" y="100"/>
      <point x="144" y="100" type="curve"/>
      <point x="321" y="100" type="line"/>
      <point x="321" y="249" type="line"/>
      <point x="321" y="257"/>
      <point x="318" y="260"/>
      <point x="310" y="260" type="curve"/>
    </contour>
    <contour>
      <point x="305" y="700" type="line"/>
      <point x="305" y="541" type="line"/>
      <point x="305" y="535"/>
      <point x="310" y="530"/>
      <point x="316" y="530" type="curve" smooth="yes"/>
      <point x="590" y="530" type="line"/>
      <point x="590" y="583"/>
      <point x="590" y="636"/>
      <point x="590" y="689" type="curve" smooth="yes"/>
      <point x="590" y="692"/>
      <point x="589" y="695"/>
      <point x="587" y="697" type="curve" smooth="yes"/>
      <point x="585" y="699"/>
      <point x="582" y="700"/>
      <point x="579" y="700" type="curve"/>
    </contour>
    <contour>
      <point x="345" y="433" type="line"/>
      <point x="345" y="284" type="line"/>
      <point x="345" y="277"/>
      <point x="349" y="273"/>
      <point x="356" y="273" type="curve" smooth="yes"/>
      <point x="550" y="273" type="line"/>
      <point x="550" y="322"/>
      <point x="550" y="372"/>
      <point x="550" y="422" type="curve" smooth="yes"/>
      <point x="550" y="429"/>
      <point x="546" y="433"/>
      <point x="539" y="433" type="curve"/>
    </contour>
    <contour>
      <point x="395" y="170" type="line"/>
      <point x="395" y="11" type="line" smooth="yes"/>
      <point x="395" y="5"/>
      <point x="400" y="0"/>
      <point x="406" y="0" type="curve" smooth="yes"/>
      <point x="590" y="0" type="line"/>
      <point x="590" y="53"/>
      <point x="590" y="106"/>
      <point x="590" y="159" type="curve" smooth="yes"/>
      <point x="590" y="165"/>
      <point x="585" y="170"/>
      <point x="579" y="170" type="curve" smooth="yes"/>
    </contour>
    <contour>
      <point x="344" y="711" type="move" name="top"/>
    </contour>
  </outline>
</glyph>
<glyph name="Ccedilla" format="1">
  <advance width="600"/>
  <unicode hex="00C7"/>
  <outline>
    <contour>
      <point x="327" y="520" type="curve" smooth="yes"/>
      <point x="363" y="520"/>
      <point x="389" y="508"/>
      <point x="409" y="484" type="curve"/>
      <point x="547" y="596"/>
      <point x="573" y="622"/>
      <point x="573" y="633" type="curve" smooth="yes"/>
      <point x="573" y="644"/>
      <point x="572" y="647"/>
      <point x="567" y="652" type="curve" smooth="yes"/>
      <point x="530" y="689"/>
      <point x="438" y="720"/>
      <point x="327" y="720" type="curve" smooth="yes"/>
      <point x="156" y="720"/>
      <point x="26" y="633"/>
      <point x="26" y="462" type="curve" smooth="yes"/>
      <point x="26" y="228" type="line" smooth="yes"/>
      <point x="26" y="195"/>
      <point x="131" y="160"/>
      <point x="261" y="161" type="curve"/>
      <point x="261" y="189"/>
      <point x="261" y="225"/>
      <point x="261" y="270" type="curve" smooth="yes"/>
      <point x="261" y="445" type="line" smooth="yes"/>
      <point x="261" y="494"/>
      <point x="282" y="520"/>
    </contour>
    <contour>
      <point x="332" y="-20" type="curve" smooth="yes"/>
      <point x="449" y="-20"/>
      <point x="543" y="4"/>
      <point x="572" y="33" type="curve" smooth="yes"/>
      <point x="574" y="35"/>
      <point x="575" y="38"/>
      <point x="575" y="41" type="curve" smooth="yes"/>
      <point x="575" y="107"/>
      <point x="575" y="172"/>
      <point x="575" y="241" type="curve"/>
      <point x="555" y="241" type="line"/>
      <point x="476" y="202"/>
      <point x="421" y="190"/>
      <point x="352" y="190" type="curve" smooth="yes"/>
      <point x="285" y="190"/>
      <point x="261" y="217"/>
      <point x="261" y="270" type="curve"/>
      <point x="69" y="268"/>
      <point x="26" y="261"/>
      <point x="26" y="228" type="curve" smooth="yes"/>
      <point x="26" y="77"/>
      <point x="135" y="-20"/>
    </contour>
    <contour>
      <point x="573" y="435" type="curve"/>
      <point x="573" y="633" type="line" smooth="yes"/>
      <point x="573" y="654"/>
      <point x="563" y="658"/>
      <point x="378" y="658" type="curve"/>
      <point x="378" y="641"/>
      <point x="378" y="618"/>
      <point x="378" y="593" type="curve" smooth="yes"/>
      <point x="378" y="446" type="line"/>
      <point x="378" y="439"/>
      <point x="380" y="438"/>
      <point x="381" y="437" type="curve" smooth="yes"/>
      <point x="382" y="436"/>
      <point x="384" y="435"/>
      <point x="388" y="435" type="curve"/>
      <point x="450" y="435"/>
      <point x="511" y="435"/>
    </contour>
    <contour>
      <point x="434" y="-115" type="curve" smooth="yes"/>
      <point x="434" y="-13"/>
      <point x="351" y="35"/>
      <point x="295" y="51" type="curve"/>
      <point x="299" y="70"/>
      <point x="303" y="88"/>
      <point x="307" y="107" type="curve"/>
      <point x="234" y="107"/>
      <point x="225" y="95"/>
      <point x="220" y="84" type="curve" smooth="yes"/>
      <point x="216" y="74"/>
      <point x="211" y="60"/>
      <point x="206" y="47" type="curve" smooth="yes"/>
      <point x="202" y="38"/>
      <point x="207" y="33"/>
      <point x="214" y="31" type="curve" smooth="yes"/>
      <point x="252" y="20"/>
      <point x="271" y="-2"/>
      <point x="271" y="-48" type="curve" smooth="yes"/>
      <point x="271" y="-78"/>
      <point x="251" y="-92"/>
      <point x="217" y="-92" type="curve" smooth="yes"/>
      <point x="192" y="-92"/>
      <point x="177" y="-88"/>
      <point x="162" y="-79" type="curve"/>
      <point x="150" y="-79" type="line"/>
      <point x="150" y="-127"/>
      <point x="150" y="-170"/>
      <point x="150" y="-221" type="curve" smooth="yes"/>
      <point x="150" y="-232"/>
      <point x="177" y="-255"/>
      <point x="255" y="-255" type="curve" smooth="yes"/>
      <point x="385" y="-255"/>
      <point x="434" y="-184"/>
    </contour>
  </outline>
</glyph>
<glyph name="Ecircumflex" format="1">
  <advance width="600"/>
  <unicode hex="00CA"/>
  <outline>
    <contour>
      <point x="5" y="700" type="line"/>
      <point x="5" y="640"/>
      <point x="5" y="581"/>
      <point x="5" y="521" type="curve" smooth="yes"/>
      <point x="5" y="518"/>
      <point x="6" y="515"/>
      <point x="8" y="513" type="curve" smooth="yes"/>
      <point x="10" y="511"/>
      <point x="13" y="510"/>
      <point x="16" y="510" type="curve" smooth="yes"/>
      <point x="570" y="510" type="line"/>
      <point x="570" y="570"/>
      <point x="570" y="629"/>
      <point x="570" y="689" type="curve" smooth="yes"/>
      <point x="570" y="692"/>
      <point x="569" y="695"/>
      <point x="567" y="697" type="curve" smooth="yes"/>
      <point x="565" y="699"/>
      <point x="562" y="700"/>
      <point x="559" y="700" type="curve" smooth="yes"/>
    </contour>
    <contour>
      <point x="260" y="100" type="curve"/>
      <point x="260" y="639" type="line" smooth="yes"/>
      <point x="260" y="645"/>
      <point x="255" y="650"/>
      <point x="35" y="650" type="curve"/>
      <point x="35" y="111" type="line"/>
      <point x="35" y="105"/>
      <point x="40" y="100"/>
    </contour>
    <contour>
      <point x="35" y="190" type="line"/>
      <point x="35" y="11" type="line" smooth="yes"/>
      <point x="35" y="5"/>
      <point x="40" y="0"/>
      <point x="46" y="0" type="curve" smooth="yes"/>
      <point x="570" y="0" type="line"/>
      <point x="570" y="60"/>
      <point x="570" y="119"/>
      <point x="570" y="179" type="curve" smooth="yes"/>
      <point x="570" y="185"/>
      <point x="565" y="190"/>
      <point x="559" y="190" type="curve" smooth="yes"/>
    </contour>
    <contour>
      <point x="145" y="435" type="line"/>
      <point x="145" y="269"/>
      <point x="150" y="265"/>
      <point x="156" y="265" type="curve" smooth="yes"/>
      <point x="510" y="265" type="line"/>
      <point x="510" y="318"/>
      <point x="510" y="371"/>
      <point x="510" y="424" type="curve" smooth="yes"/>
      <point x="510" y="427"/>
      <point x="509" y="430"/>
      <point x="507" y="432" type="curve" smooth="yes"/>
      <point x="505" y="434"/>
      <point x="502" y="435"/>
      <point x="499" y="435" type="curve" smooth="yes"/>
    </contour>
    <contour>
      <point x="218" y="775" type="line"/>
      <point x="263" y="812"/>
      <point x="310" y="851"/>
      <point x="373" y="905" type="curve"/>
      <point x="319" y="949"/>
      <point x="281" y="947"/>
      <point x="272" y="947" type="curve"/>
      <point x="209" y="947" type="line"/>
      <point x="183" y="919"/>
      <point x="107" y="839"/>
      <point x="78" y="808" type="curve" smooth="yes"/>
      <point x="62" y="791"/>
      <point x="60" y="788"/>
      <point x="60" y="783" type="curve" smooth="yes"/>
      <point x="60" y="778"/>
      <point x="63" y="775"/>
      <point x="71" y="775" type="curve"/>
    </contour>
    <contour>
      <point x="524" y="775" type="curve"/>
      <point x="477" y="824"/>
      <point x="397" y="908"/>
      <point x="378" y="928" type="curve" smooth="yes"/>
      <point x="362" y="944"/>
      <point x="358" y="947"/>
      <point x="348" y="947" type="curve" smooth="yes"/>
      <point x="269" y="947" type="line"/>
      <point x="263" y="947"/>
      <point x="229" y="946"/>
      <point x="200" y="905" type="curve"/>
      <point x="264" y="851"/>
      <point x="322" y="802"/>
      <point x="343" y="784" type="curve" smooth="yes"/>
      <point x="352" y="777"/>
      <point x="357" y="775"/>
      <point x="372" y="775" type="curve" smooth="yes"/>
      <point x="428" y="775"/>
      <point x="494" y="775"/>
    </contour>
  </outline>
</glyph>
<glyph name="Edieresis" format="1">
  <advance width="600"/>
  <unicode hex="00CB"/>
  <outline>
    <contour>
      <point x="5" y="700" type="line"/>
      <point x="5" y="640"/>
      <point x="5" y="581"/>
      <point x="5" y="521" type="curve" smooth="yes"/>
      <point x="5" y="518"/>
      <point x="6" y="515"/>
      <point x="8" y="513" type="curve" smooth="yes"/>
      <point x="10" y="511"/>
      <point x="13" y="510"/>
      <point x="16" y="510" type="curve" smooth="yes"/>
      <point x="570" y="510" type="line"/>
      <point x="570" y="570"/>
      <point x="570" y="629"/>
      <point x="570" y="689" type="curve" smooth="yes"/>
      <point x="570" y="692"/>
      <point x="569" y="695"/>
      <point x="567" y="697" type="curve" smooth="yes"/>
      <point x="565" y="699"/>
      <point x="562" y="700"/>
      <point x="559" y="700" type="curve" smooth="yes"/>
    </contour>
    <contour>
      <point x="260" y="100" type="curve"/>
      <point x="260" y="639" type="line" smooth="yes"/>
      <point x="260" y="645"/>
      <point x="255" y="650"/>
      <point x="35" y="650" type="curve"/>
      <point x="35" y="111" type="line"/>
      <point x="35" y="105"/>
      <point x="40" y="100"/>
    </contour>
    <contour>
      <point x="35" y="190" type="line"/>
      <point x="35" y="11" type="line" smooth="yes"/>
      <point x="35" y="5"/>
      <point x="40" y="0"/>
      <point x="46" y="0" type="curve" smooth="yes"/>
      <point x="570" y="0" type="line"/>
      <point x="570" y="60"/>
      <point x="570" y="119"/>
      <point x="570" y="179" type="curve" smooth="yes"/>
      <point x="570" y="185"/>
      <point x="565" y="190"/>
      <point x="559" y="190" type="curve" smooth="yes"/>
    </contour>
    <contour>
      <point x="145" y="435" type="line"/>
      <point x="145" y="269"/>
      <point x="150" y="265"/>
      <point x="156" y="265" type="curve" smooth="yes"/>
      <point x="510" y="265" type="line"/>
      <point x="510" y="318"/>
      <point x="510" y="371"/>
      <point x="510" y="424" type="curve" smooth="yes"/>
      <point x="510" y="427"/>
      <point x="509" y="430"/>
      <point x="507" y="432" type="curve" smooth="yes"/>
      <point x="505" y="434"/>
      <point x="502" y="435"/>
      <point x="499" y="435" type="curve" smooth="yes"/>
    </contour>
    <contour>
      <point x="255" y="775" type="curve"/>
      <point x="255" y="921" type="line" smooth="yes"/>
      <point x="255" y="927"/>
      <point x="250" y="932"/>
      <point x="244" y="932" type="curve" smooth="yes"/>
      <point x="193" y="932"/>
      <point x="140" y="932"/>
      <point x="89" y="932" type="curve"/>
      <point x="89" y="786" type="line" smooth="yes"/>
      <point x="89" y="780"/>
      <point x="94" y="775"/>
      <point x="100" y="775" type="curve" smooth="yes"/>
      <point x="151" y="775"/>
      <point x="204" y="775"/>
    </contour>
    <contour>
      <point x="485" y="775" type="curve"/>
      <point x="485" y="921" type="line" smooth="yes"/>
      <point x="485" y="927"/>
      <point x="480" y="932"/>
      <point x="474" y="932" type="curve" smooth="yes"/>
      <point x="423" y="932"/>
      <point x="370" y="932"/>
      <point x="319" y="932" type="curve"/>
      <point x="319" y="786" type="line" smooth="yes"/>
      <point x="319" y="780"/>
      <point x="324" y="775"/>
      <point x="330" y="775" type="curve" smooth="yes"/>
      <point x="381" y="775"/>
      <point x="434" y="775"/>
    </contour>
  </outline>
</glyph>
<glyph name="Icircumflex" format="1">
  <advance width="600"/>
  <unicode hex="00CE"/>
  <outline>
    <contour>
      <point x="412" y="50" type="curve"/>
      <point x="412" y="639" type="line" smooth="yes"/>
      <point x="412" y="645"/>
      <point x="407" y="650"/>
      <point x="188" y="650" type="curve"/>
      <point x="188" y="61" type="line" smooth="yes"/>
      <point x="188" y="55"/>
      <point x="193" y="50"/>
    </contour>
    <contour>
      <point x="30" y="700" type="line"/>
      <point x="30" y="654"/>
      <point x="30" y="547"/>
      <point x="30" y="501" type="curve"/>
      <point x="30" y="498"/>
      <point x="31" y="495"/>
      <point x="33" y="493" type="curve" smooth="yes"/>
      <point x="35" y="491"/>
      <point x="38" y="490"/>
      <point x="41" y="490" type="curve" smooth="yes"/>
      <point x="570" y="490" type="line"/>
      <point x="570" y="536"/>
      <point x="570" y="643"/>
      <point x="570" y="689" type="curve" smooth="yes"/>
      <point x="570" y="695"/>
      <point x="565" y="700"/>
      <point x="559" y="700" type="curve" smooth="yes"/>
    </contour>
    <contour>
      <point x="30" y="210" type="line"/>
      <point x="30" y="164"/>
      <point x="30" y="57"/>
      <point x="30" y="11" type="curve"/>
      <point x="30" y="8"/>
      <point x="31" y="5"/>
      <point x="33" y="3" type="curve" smooth="yes"/>
      <point x="35" y="1"/>
      <point x="38" y="0"/>
      <point x="41" y="0" type="curve" smooth="yes"/>
      <point x="570" y="0" type="line"/>
      <point x="570" y="46"/>
      <point x="570" y="153"/>
      <point x="570" y="199" type="curve" smooth="yes"/>
      <point x="570" y="205"/>
      <point x="565" y="210"/>
      <point x="559" y="210" type="curve" smooth="yes"/>
    </contour>
    <contour>
      <point x="231" y="775" type="line"/>
      <point x="276" y="812"/>
      <point x="323" y="851"/>
      <point x="386" y="905" type="curve"/>
      <point x="332" y="949"/>
      <point x="294" y="947"/>
      <point x="285" y="947" type="curve"/>
      <point x="222" y="947" type="line"/>
      <point x="196" y="919"/>
      <point x="120" y="839"/>
      <point x="91" y="808" type="curve" smooth="yes"/>
      <point x="75" y="791"/>
      <point x="73" y="788"/>
      <point x="73" y="783" type="curve" smooth="yes"/>
      <point x="73" y="778"/>
      <point x="76" y="775"/>
      <point x="84" y="775" type="curve"/>
    </contour>
    <contour>
      <point x="537" y="775" type="curve"/>
      <point x="490" y="824"/>
      <point x="410" y="908"/>
      <point x="391" y="928" type="curve" smooth="yes"/>
      <point x="375" y="944"/>
      <point x="371" y="947"/>
      <point x="361" y="947" type="curve" smooth="yes"/>
      <point x="282" y="947" type="line"/>
      <point x="276" y="947"/>
      <point x="242" y="946"/>
      <point x="213" y="905" type="curve"/>
      <point x="277" y="851"/>
      <point x="335" y="802"/>
      <point x="356" y="784" type="curve" smooth="yes"/>
      <point x="365" y="777"/>
      <point x="370" y="775"/>
      <point x="385" y="775" type="curve" smooth="yes"/>
      <point x="441" y="775"/>
      <point x="507" y="775"/>
    </contour>
  </outline>
</glyph>
<glyph name="Eth" format="1">
  <advance width="600"/>
  <unicode hex="00D0"/>
  <outline>
    <contour>
      <point x="2" y="410" type="line"/>
      <point x="2" y="377"/>
      <point x="2" y="345"/>
      <point x="2" y="311" type="curve" smooth="yes"/>
      <point x="2" y="304"/>
      <point x="6" y="300"/>
      <point x="13" y="300" type="curve" smooth="yes"/>
      <point x="305" y="300" type="line"/>
      <point x="305" y="334"/>
      <point x="305" y="366"/>
      <point x="305" y="399" type="curve" smooth="yes"/>
      <point x="305" y="405"/>
      <point x="300" y="410"/>
      <point x="294" y="410" type="curve"/>
    </contour>
    <contour>
      <point x="260" y="5" type="curve"/>
      <point x="260" y="639" type="line" smooth="yes"/>
      <point x="260" y="645"/>
      <point x="255" y="650"/>
      <point x="35" y="650" type="curve"/>
      <point x="35" y="11" type="line" smooth="yes"/>
      <point x="35" y="6"/>
      <point x="55" y="5"/>
    </contour>
    <contour>
      <point x="5" y="700" type="curve"/>
      <point x="5" y="637"/>
      <point x="5" y="574"/>
      <point x="5" y="511" type="curve"/>
      <point x="5" y="508"/>
      <point x="6" y="505"/>
      <point x="8" y="503" type="curve" smooth="yes"/>
      <point x="10" y="501"/>
      <point x="13" y="500"/>
      <point x="16" y="500" type="curve" smooth="yes"/>
      <point x="30" y="500"/>
      <point x="78" y="500"/>
      <point x="92" y="500" type="curve" smooth="yes"/>
      <point x="155" y="500"/>
      <point x="231" y="500"/>
      <point x="293" y="500" type="curve" smooth="yes"/>
      <point x="337" y="500"/>
      <point x="372" y="500"/>
      <point x="443" y="500" type="curve"/>
      <point x="443" y="639"/>
      <point x="421" y="700"/>
      <point x="341" y="700" type="curve" smooth="yes"/>
      <point x="273" y="700"/>
      <point x="82" y="700"/>
    </contour>
    <contour>
      <point x="575" y="246" type="curve" smooth="yes"/>
      <point x="575" y="456" type="line" smooth="yes"/>
      <point x="575" y="612"/>
      <point x="485" y="700"/>
      <point x="341" y="700" type="curve"/>
      <point x="317" y="700"/>
      <point x="293" y="693"/>
      <point x="293" y="500" type="curve"/>
      <point x="323" y="500"/>
      <point x="345" y="497"/>
      <point x="345" y="449" type="curve" smooth="yes"/>
      <point x="345" y="256" type="line" smooth="yes"/>
      <point x="345" y="218"/>
      <point x="325" y="200"/>
      <point x="289" y="200" type="curve" smooth="yes"/>
      <point x="279" y="200"/>
      <point x="94" y="200"/>
      <point x="75" y="200" type="curve"/>
      <point x="48" y="141"/>
      <point x="35" y="82"/>
      <point x="35" y="11" type="curve" smooth="yes"/>
      <point x="35" y="5"/>
      <point x="40" y="0"/>
      <point x="46" y="0" type="curve" smooth="yes"/>
      <point x="345" y="0" type="line" smooth="yes"/>
      <point x="487" y="0"/>
      <point x="575" y="93"/>
    </contour>
  </outline>
</glyph>
